<?xml version="1.0" standalone="no"?>
<!DOCTYPE svg PUBLIC "-//W3C//DTD SVG 1.1//EN" "http://www.w3.org/Graphics/SVG/1.1/DTD/svg11.dtd" >
<svg>
<metadata>
Created by FontForge 20090622 at Sun Oct 18 16:07:11 2015
 By deploy user
&#194;&#169; Copyright SoftMaker Software GmbH and its licensors
</metadata>
<defs>
<font id="FunctionBook" horiz-adv-x="500" >
  <font-face 
    font-family="Function"
    font-weight="400"
    font-stretch="normal"
    units-per-em="1000"
    panose-1="0 0 4 0 0 0 0 0 0 0"
    ascent="800"
    descent="-200"
    x-height="415"
    cap-height="667"
    bbox="-143 -250 1044 928"
    underline-thickness="69"
    underline-position="-64"
    unicode-range="U+0020-U+FB04"
  />
<missing-glyph 
d="M63 0v765h375v-765h-375zM125 63h250v640h-250v-640z" />
    <glyph glyph-name=".notdef" 
d="M63 0v765h375v-765h-375zM125 63h250v640h-250v-640z" />
    <glyph glyph-name="NULL" horiz-adv-x="0" 
 />
    <glyph glyph-name="nonmarkingreturn" horiz-adv-x="250" 
 />
    <glyph glyph-name="space" unicode=" " horiz-adv-x="250" 
 />
    <glyph glyph-name="exclam" unicode="!" horiz-adv-x="279" 
d="M140 89q20 0 34.5 -14.5t14.5 -34.5q0 -21 -14.5 -35.5t-35.5 -14.5q-20 0 -34.5 15t-14.5 35t15 34.5t35 14.5zM103 135v532h73v-532h-73z" />
    <glyph glyph-name="quotedbl" unicode="&#x22;" horiz-adv-x="329" 
d="M120 399h-54l-13 268h81zM263 399h-54l-13 268h80z" />
    <glyph glyph-name="numbersign" unicode="#" horiz-adv-x="600" 
d="M559 471v-60h-110l-18 -139h103v-60h-110l-27 -215l-62 9l25 206h-141l-27 -215l-62 9l25 206h-106v60h114l17 139h-106v60h114l24 201l63 -8l-24 -193h141l25 201l62 -8l-24 -193h104zM384 411h-140l-17 -139h140z" />
    <glyph glyph-name="dollar" unicode="$" horiz-adv-x="567" 
d="M327 763v-91q93 -11 140 -101l-58 -38q-34 58 -82 69v-219q54 -24 89 -47q75 -50 75 -141q0 -74 -44.5 -128.5t-119.5 -70.5v-97h-59v93q-71 2 -124.5 49.5t-66.5 120.5l72 20q8 -52 40 -84t79 -36v269q-85 35 -121 74.5t-36 98.5q0 66 42.5 112t114.5 57v90h59zM327 304
v-237q89 35 89 124q0 70 -89 113zM268 409v194q-82 -21 -82 -100q0 -57 82 -94z" />
    <glyph glyph-name="percent" unicode="%" horiz-adv-x="715" 
d="M181 674q62 0 105.5 -42.5t43.5 -103.5t-43.5 -103t-106.5 -42q-61 0 -104 43t-43 105q0 58 44 100.5t104 42.5zM181 619q-36 0 -62.5 -26t-26.5 -63q0 -38 26 -64.5t64 -26.5q37 0 63 26.5t26 63.5q0 38 -26 64t-64 26zM532 680l38 -22l-388 -671l-38 23zM533 284
q62 0 105.5 -42.5t43.5 -103.5t-43.5 -103t-106.5 -42q-61 0 -104 43t-43 105q0 58 44 100.5t104 42.5zM533 229q-36 0 -62.5 -26t-26.5 -63q0 -38 26.5 -64.5t63.5 -26.5t63 26.5t26 63.5q0 38 -26 64t-64 26z" />
    <glyph glyph-name="ampersand" unicode="&#x26;" horiz-adv-x="636" 
d="M328 380l140 -179q32 32 76 88l53 -45q-33 -47 -85 -99l114 -145h-93l-73 93q-116 -106 -214 -106q-80 0 -136.5 54t-56.5 132q0 91 90 164q25 20 82 57q-67 89 -67 143q0 61 41.5 101t104.5 40q60 0 101 -38.5t41 -95.5q0 -58 -51 -109q-21 -21 -67 -55zM416 148
l-148 192q-65 -45 -77 -55q-65 -52 -65 -109q0 -49 35.5 -85t83.5 -36q69 0 171 93zM285 434q52 38 60 46q30 30 30 65q0 30 -20.5 49.5t-52.5 19.5q-30 0 -51.5 -21t-21.5 -52q0 -21 8 -36.5t43 -63.5q2 -1 5 -7z" />
    <glyph glyph-name="quotesingle" unicode="'" horiz-adv-x="187" 
d="M120 399h-54l-13 268h81z" />
    <glyph glyph-name="parenleft" unicode="(" horiz-adv-x="294" 
d="M166 733l64 -29q-75 -191 -75 -427q0 -237 75 -428l-64 -29q-38 82 -60.5 205.5t-22.5 251.5q0 279 83 456z" />
    <glyph glyph-name="parenright" unicode=")" horiz-adv-x="294" 
d="M126 -180l-63 29q75 191 75 428q0 236 -75 427l63 29q84 -176 84 -456q0 -279 -84 -457z" />
    <glyph glyph-name="asterisk" unicode="*" horiz-adv-x="567" 
d="M255 605l-5 124h67l-5 -124l116 43l21 -63l-120 -34l77 -97l-54 -40l-69 104l-68 -104l-54 40l77 97l-120 34l21 63z" />
    <glyph glyph-name="plus" unicode="+" horiz-adv-x="567" 
d="M48 310v61h205v201h61v-201h205v-61h-205v-202h-61v202h-205z" />
    <glyph glyph-name="comma" unicode="," horiz-adv-x="227" 
d="M107 98l65 -24l-100 -226l-48 19z" />
    <glyph glyph-name="hyphen" unicode="-" horiz-adv-x="181" 
d="M0 245h181v-64h-181v64z" />
    <glyph glyph-name="period" unicode="." horiz-adv-x="227" 
d="M113 89q21 0 35.5 -14.5t14.5 -34.5q0 -21 -14.5 -35.5t-34.5 -14.5q-21 0 -35.5 14.5t-14.5 35.5q0 20 14.5 34.5t34.5 14.5z" />
    <glyph glyph-name="slash" unicode="/" horiz-adv-x="485" 
d="M422 733l58 -26l-436 -887l-58 27z" />
    <glyph glyph-name="zero" unicode="0" horiz-adv-x="567" 
d="M284 677q101 0 169.5 -98.5t68.5 -243.5t-66 -244q-31 -47 -78 -74.5t-94 -27.5q-49 0 -97 29t-79 78q-63 98 -63 240q0 143 69.5 242t169.5 99zM283 609q-70 0 -117.5 -79t-47.5 -195q0 -120 47 -198.5t119 -78.5q69 0 117 80t48 195q0 118 -47.5 197t-118.5 79z" />
    <glyph glyph-name="one" unicode="1" horiz-adv-x="567" 
d="M264 598h-110l39 69h146v-667h-75v598z" />
    <glyph glyph-name="two" unicode="2" horiz-adv-x="567" 
d="M201 69h279v-69h-430l242 281q67 78 91.5 120t24.5 80q0 53 -39 90.5t-95 37.5q-75 0 -111 -58q-18 -29 -22 -79h-75q8 75 34 115q58 90 173 90q88 0 148 -57.5t60 -140.5q0 -55 -28 -104t-116 -150z" />
    <glyph glyph-name="three" unicode="3" horiz-adv-x="567" 
d="M254 317v65q51 1 79 17q53 30 53 97q0 49 -32.5 81t-81.5 32q-63 0 -92 -43q-13 -20 -21 -64h-73q9 63 31 98q48 77 154 77q82 0 135 -51t53 -128q0 -100 -85 -148q95 -44 95 -161q0 -86 -59 -143t-148 -57q-56 0 -102.5 25.5t-70.5 68.5q-20 36 -24 90h72q6 -43 23 -65
q37 -50 105 -50q55 0 93 39t38 95q0 81 -66 111q-28 13 -76 14z" />
    <glyph glyph-name="four" unicode="4" horiz-adv-x="567" 
d="M435 176h82v-67h-82v-109h-74v109h-342l416 594v-527zM361 176v301l-211 -301h211z" />
    <glyph glyph-name="five" unicode="5" horiz-adv-x="567" 
d="M477 598h-213l-44 -143q23 4 38 4q97 0 160.5 -65.5t63.5 -165.5q0 -103 -69.5 -171t-175.5 -68q-130 0 -204 119l59 42q58 -92 151 -92q70 0 118 49t48 120q0 70 -47.5 118t-117.5 48q-58 0 -129 -45l97 319h265v-69z" />
    <glyph glyph-name="six" unicode="6" horiz-adv-x="567" 
d="M335 684l56 -42l-154 -214q33 10 62 10q89 0 151 -64.5t62 -155.5q0 -94 -67 -161.5t-162 -67.5q-94 0 -162 66.5t-68 158.5q0 77 55 154zM283 372q-65 0 -111 -46t-46 -111t46 -111t111 -46q64 0 110 46t46 109q0 67 -45.5 113t-110.5 46z" />
    <glyph glyph-name="seven" unicode="7" horiz-adv-x="567" 
d="M437 598h-364v69h491l-447 -683l-58 39z" />
    <glyph glyph-name="eight" unicode="8" horiz-adv-x="567" 
d="M184 347q-82 49 -82 147q0 78 53.5 130.5t133.5 52.5t133.5 -52.5t53.5 -130.5q0 -45 -23 -85t-61 -62q97 -48 97 -161q0 -85 -57 -141t-143 -56q-87 0 -145.5 56t-58.5 139q0 112 99 163zM289 609q-47 0 -81.5 -34t-34.5 -80q0 -49 34 -83.5t82 -34.5t82 34t34 82
t-34 82t-82 34zM287 314q-52 0 -90.5 -37.5t-38.5 -88.5q0 -54 37.5 -92t91.5 -38q53 0 91 37.5t38 90.5t-38 90.5t-91 37.5z" />
    <glyph glyph-name="nine" unicode="9" horiz-adv-x="567" 
d="M231 -16l-55 41l153 214q-32 -9 -61 -9q-89 0 -151.5 64t-62.5 156q0 94 67 160.5t162 66.5t163 -66t68 -158q0 -78 -55 -154zM284 609q-65 0 -111 -45.5t-46 -109.5q0 -66 46 -112t111 -46t111 46t46 111t-46 110.5t-111 45.5z" />
    <glyph glyph-name="colon" unicode=":" horiz-adv-x="227" 
d="M113 89q21 0 35.5 -14.5t14.5 -34.5q0 -21 -14.5 -35.5t-34.5 -14.5q-21 0 -35.5 14.5t-14.5 35.5q0 20 14.5 34.5t34.5 14.5zM113 425q21 0 35.5 -14.5t14.5 -34.5q0 -21 -14.5 -35.5t-34.5 -14.5q-21 0 -35.5 14.5t-14.5 35.5q0 20 14.5 34.5t34.5 14.5z" />
    <glyph glyph-name="semicolon" unicode=";" horiz-adv-x="227" 
d="M107 98l65 -24l-100 -226l-48 19zM130 425q20 0 34.5 -14.5t14.5 -34.5q0 -21 -14.5 -35.5t-35.5 -14.5q-20 0 -34.5 15t-14.5 35t15 34.5t35 14.5z" />
    <glyph glyph-name="less" unicode="&#x3c;" 
d="M466 573v-75l-353 -161l353 -162v-74l-433 203v65z" />
    <glyph glyph-name="equal" unicode="=" horiz-adv-x="567" 
d="M48 373v58h471v-58h-471zM48 249v58h471v-58h-471z" />
    <glyph glyph-name="greater" unicode="&#x3e;" 
d="M34 101v74l353 162l-353 161v75l433 -204v-65z" />
    <glyph glyph-name="question" unicode="?" horiz-adv-x="436" 
d="M289 286h72q-1 -52 -19 -83q-40 -70 -125 -70q-61 0 -102 41.5t-41 102.5q0 96 121 135q63 20 82 35q30 23 30 68q0 39 -25.5 65t-65.5 26q-38 0 -63 -25t-25 -62q0 -17 6 -42h-73q-4 32 -4 46q0 64 46.5 108t114.5 44q70 0 116 -45.5t46 -114.5q0 -86 -63 -129
q-28 -19 -103 -41q-68 -20 -68 -73q0 -30 21 -51t50 -21q44 0 62 37q9 18 10 49zM219 89q20 0 34.5 -14.5t14.5 -34.5q0 -21 -14.5 -35.5t-35.5 -14.5q-20 0 -34.5 15t-14.5 35t15 34.5t35 14.5z" />
    <glyph glyph-name="at" unicode="@" horiz-adv-x="720" 
d="M542 508l-27 -227q-4 -34 -4 -46q0 -32 27 -32q35 0 63.5 53t28.5 119q0 107 -72.5 175.5t-185.5 68.5q-119 0 -200.5 -82.5t-81.5 -202.5q0 -78 37 -144.5t101 -103.5t158 -37q102 0 198 46q4 2 21 9l21 -58q-116 -58 -239 -58q-113 0 -192.5 46t-124.5 126t-45 174
q0 146 100.5 245.5t247.5 99.5q135 0 226 -86t91 -213q0 -97 -48 -168.5t-113 -71.5q-52 0 -72 59q-56 -60 -123 -60q-72 0 -120 51.5t-48 129.5q0 84 53.5 140t133.5 56q72 0 118 -56l5 48h66zM359 451q-49 0 -83 -38.5t-34 -94.5q0 -50 27 -82t69 -32q47 0 83 42.5
t36 99.5q0 46 -27.5 75.5t-70.5 29.5z" />
    <glyph glyph-name="A" unicode="A" horiz-adv-x="620" 
d="M453 189h-285l-80 -189h-81l307 699l300 -699h-82zM424 258l-111 267l-114 -267h225z" />
    <glyph glyph-name="B" unicode="B" horiz-adv-x="530" 
d="M87 0v667h121q99 0 151 -42q62 -50 62 -139q0 -82 -66 -129q59 -17 92.5 -62t33.5 -107q0 -89 -67 -143q-56 -45 -161 -45h-166zM162 373h56q64 0 94 26q36 32 36 86q0 57 -35 88q-28 25 -93 25h-58v-225zM162 69h85q81 0 117 29q43 34 43 92q0 68 -56 99q-38 21 -114 21
h-75v-241z" />
    <glyph glyph-name="C" unicode="C" horiz-adv-x="646" 
d="M596 612v-92q-94 88 -202 88q-110 0 -189.5 -82t-79.5 -196q0 -112 79.5 -192t190.5 -80q108 0 201 87v-92q-95 -65 -201 -65q-141 0 -243 101.5t-102 241.5q0 143 102.5 245t246.5 102q103 0 197 -66z" />
    <glyph glyph-name="D" unicode="D" horiz-adv-x="633" 
d="M87 0v667h137q153 0 245 -77q115 -97 115 -256q0 -160 -117 -257q-93 -77 -244 -77h-136zM162 69h65q119 0 191 61q91 77 91 203q0 128 -90 204q-73 61 -192 61h-65v-529z" />
    <glyph glyph-name="E" unicode="E" horiz-adv-x="482" 
d="M432 598h-270v-199h263v-69h-263v-261h270v-69h-345v667h345v-69z" />
    <glyph glyph-name="F" unicode="F" horiz-adv-x="433" 
d="M390 598h-228v-199h221v-69h-221v-330h-75v667h303v-69z" />
    <glyph glyph-name="G" unicode="G" horiz-adv-x="758" 
d="M430 335h278v-17q0 -106 -35 -169q-41 -73 -117 -117t-164 -44q-141 0 -241.5 101t-100.5 243q0 143 102 244.5t246 101.5q114 0 204 -68q37 -28 77 -77l-55 -50q-95 125 -225 125q-114 0 -194 -81t-80 -196q0 -111 79.5 -192t188.5 -81q62 0 119.5 31.5t88.5 82.5
q23 37 27 94h-198v69z" />
    <glyph glyph-name="H" unicode="H" horiz-adv-x="663" 
d="M162 395h340v272h75v-667h-75v326h-340v-326h-75v667h75v-272z" />
    <glyph glyph-name="I" unicode="I" horiz-adv-x="248" 
d="M162 667v-667h-75v667h75z" />
    <glyph glyph-name="J" unicode="J" horiz-adv-x="307" 
d="M220 667v-539q0 -111 -47 -156q-42 -41 -100 -41q-59 0 -120 49l41 58q42 -37 77 -37q74 0 74 127v539h75z" />
    <glyph glyph-name="K" unicode="K" horiz-adv-x="569" 
d="M162 381l284 286h100l-313 -311l323 -356h-102l-273 306l-19 -19v-287h-75v667h75v-286z" />
    <glyph glyph-name="L" unicode="L" horiz-adv-x="358" 
d="M162 667v-598h183v-69h-258v667h75z" />
    <glyph glyph-name="M" unicode="M" horiz-adv-x="863" 
d="M63 0l110 704l256 -563l262 564l103 -705h-76l-62 464l-227 -492l-224 492l-66 -464h-76z" />
    <glyph glyph-name="N" unicode="N" horiz-adv-x="767" 
d="M87 0v695l519 -545v517h75v-697l-519 544v-514h-75z" />
    <glyph glyph-name="O" unicode="O" horiz-adv-x="794" 
d="M398 678q142 0 244 -101.5t102 -243.5q0 -143 -102.5 -244t-247.5 -101q-71 0 -140 31t-118 86q-86 96 -86 232q0 138 103.5 239.5t244.5 101.5zM397 608q-112 0 -192 -80t-80 -191q0 -123 85 -203q81 -76 185 -76q114 0 194 80t80 195q0 114 -79.5 194.5t-192.5 80.5z
" />
    <glyph glyph-name="P" unicode="P" horiz-adv-x="457" 
d="M162 292v-292h-75v667h121q113 0 168 -47q62 -53 62 -141q0 -84 -54.5 -135.5t-156.5 -51.5h-65zM162 360h60q68 0 105.5 31.5t37.5 88.5q0 56 -36 87t-112 31h-55v-238z" />
    <glyph glyph-name="Q" unicode="Q" horiz-adv-x="794" 
d="M748 -7h-95l-56 60q-91 -65 -202 -65q-143 0 -244 100.5t-101 242.5q0 143 102 245t245 102q144 0 245.5 -102t101.5 -247q0 -127 -96 -234zM481 268l115 -120q73 81 73 183q0 116 -79 196.5t-193 80.5q-115 0 -193.5 -80.5t-78.5 -196.5q0 -113 78.5 -193t190.5 -80
q85 0 151 48l-161 162h97z" />
    <glyph glyph-name="R" unicode="R" horiz-adv-x="502" 
d="M261 298l212 -298h-91l-201 292h-19v-292h-75v667h108q107 0 160 -36q74 -50 74 -151q0 -76 -46 -125.5t-122 -56.5zM162 358h47q147 0 147 122q0 66 -49 96q-36 22 -101 22h-44v-240z" />
    <glyph glyph-name="S" unicode="S" horiz-adv-x="517" 
d="M443 574l-59 -38q-25 40 -50.5 56t-64.5 16q-47 0 -78.5 -29.5t-31.5 -73.5t42 -72q23 -16 115 -56q80 -35 115.5 -78t35.5 -106q0 -86 -61.5 -145.5t-150.5 -59.5q-79 0 -132.5 45t-72.5 127l72 20q11 -45 27 -68q38 -54 109 -54q56 0 95 38t39 93q0 60 -55 95
q-12 8 -118 58q-72 32 -103.5 70.5t-31.5 93.5q0 74 53.5 123t133.5 49q112 0 172 -104z" />
    <glyph glyph-name="T" unicode="T" horiz-adv-x="425" 
d="M249 598v-598h-75v598h-161v69h398v-69h-162z" />
    <glyph glyph-name="U" unicode="U" horiz-adv-x="649" 
d="M162 667v-409q0 -92 22 -128q19 -32 58.5 -52t81.5 -20q43 0 82.5 20t58.5 52q22 36 22 128v409h75v-429q0 -101 -44 -158q-71 -92 -193 -92q-57 0 -109 24.5t-85 67.5q-44 57 -44 158v429h75z" />
    <glyph glyph-name="V" unicode="V" horiz-adv-x="554" 
d="M89 667l189 -508l189 508h81l-271 -706l-270 706h82z" />
    <glyph glyph-name="W" unicode="W" horiz-adv-x="955" 
d="M88 667l178 -500l209 534l197 -534l196 500h81l-279 -701l-197 533l-210 -533l-256 701h81z" />
    <glyph glyph-name="X" unicode="X" horiz-adv-x="502" 
d="M210 345l-180 322h85l138 -251l141 251h85l-184 -322l193 -345h-83l-153 274l-155 -274h-84z" />
    <glyph glyph-name="Y" unicode="Y" horiz-adv-x="528" 
d="M225 287l-218 380h86l170 -298l172 298h87l-222 -380v-287h-75v287z" />
    <glyph glyph-name="Z" unicode="Z" horiz-adv-x="534" 
d="M147 69h354v-69h-478l364 598h-317v69h440z" />
    <glyph glyph-name="bracketleft" unicode="[" horiz-adv-x="291" 
d="M153 662v-771h95v-67h-168v905h168v-67h-95z" />
    <glyph glyph-name="backslash" unicode="\" horiz-adv-x="485" 
d="M63 733l436 -886l-58 -27l-436 887z" />
    <glyph glyph-name="bracketright" unicode="]" horiz-adv-x="291" 
d="M138 -109v771h-95v67h168v-905h-168v67h95z" />
    <glyph glyph-name="asciicircum" unicode="^" 
d="M105 364h-81l176 305h99l176 -305h-81l-145 245z" />
    <glyph glyph-name="underscore" unicode="_" 
d="M0 -64h500v-69h-500v69z" />
    <glyph glyph-name="grave" unicode="`" 
d="M114 623l74 33l105 -144l-44 -25z" />
    <glyph glyph-name="a" unicode="a" horiz-adv-x="524" 
d="M385 415h71v-415h-71v58q-58 -70 -143 -70q-86 0 -143 62.5t-57 158.5q0 94 56 155t142 61t145 -69v59zM252 360q-58 0 -97.5 -43t-39.5 -107q0 -68 38.5 -112.5t97.5 -44.5q61 0 100 43.5t39 111.5q0 67 -38.5 109.5t-99.5 42.5z" />
    <glyph glyph-name="b" unicode="b" horiz-adv-x="524" 
d="M139 729v-373q59 68 145 68t142 -61t56 -155q0 -95 -57 -157.5t-143 -62.5t-143 69v-57h-71v729h71zM273 359q-62 0 -100.5 -42.5t-38.5 -109.5q0 -68 38.5 -111t99.5 -43q59 0 98 43.5t39 108.5q0 67 -38.5 110.5t-97.5 43.5z" />
    <glyph glyph-name="c" unicode="c" horiz-adv-x="435" 
d="M391 385v-94q-61 68 -131 68q-62 0 -104 -44.5t-42 -108.5q0 -65 41.5 -109t103.5 -44q71 0 135 72v-94q-69 -43 -133 -43q-93 0 -156.5 62.5t-63.5 154.5t63.5 155.5t157.5 63.5q69 0 129 -39z" />
    <glyph glyph-name="d" unicode="d" horiz-adv-x="524" 
d="M385 729h71v-729h-71v57q-57 -69 -144 -69q-86 0 -142.5 62.5t-56.5 157.5q0 94 56 155t142 61t145 -68v373zM252 359q-58 0 -97.5 -43t-39.5 -106q0 -68 38.5 -112.5t97.5 -44.5q61 0 100 43.5t39 111.5q0 67 -38.5 109t-99.5 42z" />
    <glyph glyph-name="e" unicode="e" horiz-adv-x="481" 
d="M440 193h-324q3 -64 39.5 -102t92.5 -38q41 0 69.5 19.5t58.5 67.5l60 -34q-67 -118 -191 -118q-90 0 -147 60.5t-57 156.5q0 97 56 158t145 61t143.5 -60t54.5 -159v-12zM121 253h244q-10 49 -43 78t-79 29q-45 0 -79.5 -30t-42.5 -77z" />
    <glyph glyph-name="f" unicode="f" horiz-adv-x="239" 
d="M139 349v-349h-71v349h-39v66h39v177q0 74 24 105q34 44 100 44q22 0 52 -9v-72q-28 10 -48 10q-34 0 -45.5 -19.5t-11.5 -75.5v-160h105v-66h-105z" />
    <glyph glyph-name="g" unicode="g" horiz-adv-x="525" 
d="M456 415v-406q0 -108 -40 -163q-56 -77 -165 -77q-90 0 -144.5 51t-57.5 139h70q4 -45 20 -70q35 -55 113 -55q133 0 133 163v61q-60 -69 -147 -69q-84 0 -140.5 62.5t-56.5 154.5q0 94 57.5 156.5t143.5 62.5q84 0 143 -69v59h71zM250 360q-59 0 -97.5 -43t-38.5 -110
t38 -110t97 -43q61 0 100 42.5t39 109.5q0 68 -38.5 111t-99.5 43z" />
    <glyph glyph-name="h" unicode="h" horiz-adv-x="469" 
d="M68 729h71v-363q48 58 119 58q82 0 119 -57q24 -37 24 -110v-257h-71v252q0 57 -20 82t-66 25q-64 0 -88 -49q-17 -35 -17 -103v-207h-71v729z" />
    <glyph glyph-name="i" unicode="i" horiz-adv-x="208" 
d="M139 415v-415h-71v415h71zM104 623q21 0 36 -15t15 -36t-15 -36t-36 -15t-36 15t-15 37q0 20 15 35t36 15z" />
    <glyph glyph-name="j" unicode="j" horiz-adv-x="208" 
d="M139 415v-649h-71v649h71zM104 623q21 0 36 -15t15 -36t-15 -36t-36 -15t-36 15t-15 37q0 20 15 35t36 15z" />
    <glyph glyph-name="k" unicode="k" horiz-adv-x="421" 
d="M139 729v-467l150 153h95l-177 -177l211 -238h-94l-167 189l-18 -18v-171h-71v729h71z" />
    <glyph glyph-name="l" unicode="l" horiz-adv-x="207" 
d="M139 729v-729h-71v729h71z" />
    <glyph glyph-name="m" unicode="m" horiz-adv-x="680" 
d="M68 415h71v-45q41 55 103 55q77 0 114 -67q38 67 121 67q77 0 112 -56q23 -37 23 -106v-263h-71v252q0 108 -75 108q-89 0 -89 -130v-230h-71v246q0 114 -77 114q-52 0 -75 -45q-15 -29 -15 -89v-226h-71v415z" />
    <glyph glyph-name="n" unicode="n" horiz-adv-x="469" 
d="M68 415h71v-50q49 60 120 60q83 0 119 -57q23 -36 23 -111v-257h-71v245q0 59 -14 81q-21 34 -74 34q-54 0 -78.5 -36.5t-24.5 -116.5v-207h-71v415z" />
    <glyph glyph-name="o" unicode="o" horiz-adv-x="521" 
d="M261 424q92 0 155.5 -63t63.5 -155t-63.5 -155t-157.5 -63q-92 0 -155 64t-63 158q0 88 64.5 151t155.5 63zM260 359q-62 0 -104 -43.5t-42 -107.5q0 -68 40.5 -111.5t104.5 -43.5q65 0 106.5 43t41.5 110t-41.5 110t-105.5 43z" />
    <glyph glyph-name="p" unicode="p" horiz-adv-x="524" 
d="M139 -234h-71v649h71l-1 -59q60 69 144 69q86 0 143 -62.5t57 -157.5q0 -94 -56 -155.5t-142 -61.5t-145 70v-292zM273 360q-61 0 -100 -43.5t-39 -111.5q0 -66 39 -109t100 -43q58 0 97 43t39 107q0 68 -38.5 112.5t-97.5 44.5z" />
    <glyph glyph-name="q" unicode="q" horiz-adv-x="524" 
d="M385 -234v292q-60 -70 -145 -70q-86 0 -142 61.5t-56 155.5q0 95 56.5 157.5t143.5 62.5q86 0 143 -69v59h71v-649h-71zM252 360q-59 0 -98 -43.5t-39 -108.5q0 -67 38.5 -111t97.5 -44q62 0 100.5 42.5t38.5 109.5q0 68 -38.5 111.5t-99.5 43.5z" />
    <glyph glyph-name="r" unicode="r" horiz-adv-x="295" 
d="M68 415h71v-45q28 33 46.5 44t47.5 11q31 0 63 -18l-33 -64q-23 14 -42 14q-46 0 -66 -38q-16 -30 -16 -100v-219h-71v415z" />
    <glyph glyph-name="s" unicode="s" horiz-adv-x="350" 
d="M297 349l-59 -31q-22 41 -58 41q-20 0 -35 -13.5t-15 -32.5q0 -18 13.5 -30t53.5 -29q57 -24 79 -40q46 -34 46 -91t-41 -96t-101 -39q-104 0 -145 106l63 26q31 -67 83 -67q29 0 48.5 19t19.5 47q0 23 -14 37t-53 31q-72 31 -96 55.5t-24 65.5q0 50 34.5 83t86.5 33
q76 0 114 -75z" />
    <glyph glyph-name="t" unicode="t" horiz-adv-x="214" 
d="M139 349v-349h-71v349h-43v66h43v150h71v-150h74v-66h-74z" />
    <glyph glyph-name="u" unicode="u" horiz-adv-x="465" 
d="M139 415v-242q0 -53 13 -77q23 -43 80 -43q59 0 81 43q13 25 13 77v242h71v-250q0 -84 -38 -125q-48 -52 -127 -52q-78 0 -126 52q-38 41 -38 125v250h71z" />
    <glyph glyph-name="v" unicode="v" horiz-adv-x="423" 
d="M88 415l124 -279l123 279h80l-203 -443l-204 443h80z" />
    <glyph glyph-name="w" unicode="w" horiz-adv-x="682" 
d="M88 415l123 -281l130 313l129 -313l124 281h80l-206 -444l-128 309l-128 -309l-204 444h80z" />
    <glyph glyph-name="x" unicode="x" horiz-adv-x="454" 
d="M185 221l-151 194h87l108 -141l109 141h88l-152 -194l172 -221h-86l-131 169l-132 -169h-89z" />
    <glyph glyph-name="y" unicode="y" horiz-adv-x="460" 
d="M199 39l-191 376h82l147 -297l134 297h81l-307 -649h-80z" />
    <glyph glyph-name="z" unicode="z" horiz-adv-x="460" 
d="M152 66h286v-66h-430l301 349h-245v66h387z" />
    <glyph glyph-name="braceleft" unicode="{" horiz-adv-x="291" 
d="M181 580v-187q0 -49 -13 -73.5t-48 -43.5q34 -19 47.5 -45t13.5 -73v-181q0 -58 14 -74t65 -16v-62q-9 -1 -19 -1h-8q-67 0 -96 34t-29 114v184q0 43 -13 64t-44 29v59q57 15 57 89v195q0 73 29.5 105.5t96.5 32.5q13 0 26 -1v-62h-9q-43 0 -56.5 -17t-13.5 -70z" />
    <glyph glyph-name="bar" unicode="|" 
d="M213 667h75v-834h-75v834z" />
    <glyph glyph-name="braceright" unicode="}" horiz-adv-x="291" 
d="M110 -26v187q0 49 13 73.5t48 42.5q-34 19 -47.5 45t-13.5 73v181q0 59 -14 75t-65 15v63q68 0 95 -12q57 -26 57 -135v-184q0 -43 13 -64t44 -30v-59q-57 -14 -57 -88v-196q0 -73 -29.5 -105t-96.5 -32h-26v63h9q43 0 56.5 17t13.5 70z" />
    <glyph glyph-name="asciitilde" unicode="~" horiz-adv-x="667" 
d="M136 582l-43 29q31 64 62 89.5t75 25.5q38 0 112 -34q70 -32 97 -32q50 0 90 68l45 -26q-56 -113 -144 -113q-34 0 -140 48q-40 18 -65 18q-50 0 -89 -73z" />
    <glyph glyph-name="Adieresis" unicode="&#xc4;" horiz-adv-x="620" 
d="M453 189h-285l-80 -189h-81l307 699l300 -699h-82zM424 258l-111 267l-114 -267h225zM220 849q21 0 36 -15t15 -36t-15 -36t-36 -15t-36 15t-15 37q0 20 15 35t36 15zM410 849q21 0 36 -15t15 -36t-15 -36t-36 -15t-36 15t-15 37q0 20 15 35t36 15z" />
    <glyph glyph-name="Aring" unicode="&#xc5;" horiz-adv-x="620" 
d="M453 189h-285l-80 -189h-81l307 699l300 -699h-82zM424 258l-111 267l-114 -267h225zM316 896q37 0 64 -26.5t27 -63.5t-26.5 -64t-63.5 -27q-38 0 -64.5 27t-26.5 65q0 36 26.5 62.5t63.5 26.5zM317 847q-17 0 -29.5 -12t-12.5 -29t12.5 -29.5t29.5 -12.5t29 12.5
t12 29.5t-12 29t-29 12z" />
    <glyph glyph-name="Ccedilla" unicode="&#xc7;" horiz-adv-x="646" 
d="M596 612v-92q-94 88 -202 88q-110 0 -189.5 -82t-79.5 -196q0 -112 79.5 -192t190.5 -80q107 0 201 87v-92q-95 -65 -201 -65q-141 0 -243 101t-102 242q0 143 102.5 245t246.5 102q102 0 197 -66zM430 -79l-110 -130l-51 26l89 136z" />
    <glyph glyph-name="Eacute" unicode="&#xc9;" horiz-adv-x="482" 
d="M432 598h-270v-199h263v-69h-263v-261h270v-69h-345v667h345v-69zM402 837l-143 -117l-43 32l119 130z" />
    <glyph glyph-name="Ntilde" unicode="&#xd1;" horiz-adv-x="767" 
d="M87 0v695l519 -545v517h75v-697l-519 544v-514h-75zM299 746l-43 34q36 71 89 71q23 0 63 -20.5t56 -20.5q24 0 45 43l43 -33q-34 -72 -91 -72q-24 0 -64 20.5t-57 20.5q-20 0 -41 -43z" />
    <glyph glyph-name="Odieresis" unicode="&#xd6;" horiz-adv-x="794" 
d="M398 678q142 0 244 -101.5t102 -243.5q0 -143 -102.5 -244t-247.5 -101q-71 0 -140 31t-118 86q-86 96 -86 232q0 138 103.5 239.5t244.5 101.5zM397 608q-112 0 -192 -80t-80 -191q0 -123 85 -203q81 -76 185 -76q114 0 194 80t80 195q0 114 -79.5 194.5t-192.5 80.5z
M305 849q21 0 36 -15t15 -36t-15 -36t-36 -15t-36 15t-15 37q0 20 15 35t36 15zM495 849q21 0 36 -15t15 -36t-15 -36t-36 -15t-36 15t-15 37q0 20 15 35t36 15z" />
    <glyph glyph-name="Udieresis" unicode="&#xdc;" horiz-adv-x="649" 
d="M162 667v-409q0 -92 22 -128q19 -32 58.5 -52t81.5 -20q43 0 82.5 20t58.5 52q22 36 22 128v409h75v-429q0 -101 -44 -158q-71 -92 -193 -92q-57 0 -109 24.5t-85 67.5q-44 57 -44 158v429h75zM236 849q21 0 36 -15t15 -36t-15 -36t-36 -15t-36 15t-15 37q0 20 15 35
t36 15zM426 849q21 0 36 -15t15 -36t-15 -36t-36 -15t-36 15t-15 37q0 20 15 35t36 15z" />
    <glyph glyph-name="aacute" unicode="&#xe1;" horiz-adv-x="524" 
d="M385 415h71v-415h-71v58q-58 -70 -143 -70q-86 0 -143 62.5t-57 158.5q0 94 56 155t142 61t145 -69v59zM252 360q-58 0 -97.5 -43t-39.5 -107q0 -68 38.5 -112.5t97.5 -44.5q61 0 100 43.5t39 111.5q0 67 -38.5 109.5t-99.5 42.5zM404 623l-135 -136l-44 25l105 144z" />
    <glyph glyph-name="agrave" unicode="&#xe0;" horiz-adv-x="524" 
d="M385 415h71v-415h-71v58q-58 -70 -143 -70q-86 0 -143 62.5t-57 158.5q0 94 56 155t142 61t145 -69v59zM252 360q-58 0 -97.5 -43t-39.5 -107q0 -68 38.5 -112.5t97.5 -44.5q61 0 100 43.5t39 111.5q0 67 -38.5 109.5t-99.5 42.5zM125 623l74 33l105 -144l-44 -25z" />
    <glyph glyph-name="acircumflex" unicode="&#xe2;" horiz-adv-x="524" 
d="M385 415h71v-415h-71v58q-58 -70 -143 -70q-86 0 -143 62.5t-57 158.5q0 94 56 155t142 61t145 -69v59zM252 360q-58 0 -97.5 -43t-39.5 -107q0 -68 38.5 -112.5t97.5 -44.5q61 0 100 43.5t39 111.5q0 67 -38.5 109.5t-99.5 42.5zM113 526l138 130l139 -130l-52 -39
l-87 83l-88 -83z" />
    <glyph glyph-name="adieresis" unicode="&#xe4;" horiz-adv-x="524" 
d="M385 415h71v-415h-71v58q-58 -70 -143 -70q-86 0 -143 62.5t-57 158.5q0 94 56 155t142 61t145 -69v59zM252 360q-58 0 -97.5 -43t-39.5 -107q0 -68 38.5 -112.5t97.5 -44.5q61 0 100 43.5t39 111.5q0 67 -38.5 109.5t-99.5 42.5zM183 610q20 0 35 -14.5t15 -35.5
q0 -20 -15 -35t-35 -15q-21 0 -35.5 15t-14.5 36q0 20 15 34.5t35 14.5zM356 610q21 0 35.5 -14.5t14.5 -35.5q0 -20 -15 -35t-35 -15t-35 15t-15 36q0 20 15 34.5t35 14.5z" />
    <glyph glyph-name="atilde" unicode="&#xe3;" horiz-adv-x="524" 
d="M385 415h71v-415h-71v58q-58 -70 -143 -70q-86 0 -143 62.5t-57 158.5q0 94 56 155t142 61t145 -69v59zM252 360q-58 0 -97.5 -43t-39.5 -107q0 -68 38.5 -112.5t97.5 -44.5q61 0 100 43.5t39 111.5q0 67 -38.5 109.5t-99.5 42.5zM179 506l-42 34q25 71 86 71
q27 0 61 -20.5t47 -20.5q26 0 47 43l42 -32q-29 -73 -88 -73q-20 0 -57 21t-54 21q-29 0 -42 -44z" />
    <glyph glyph-name="aring" unicode="&#xe5;" horiz-adv-x="524" 
d="M385 415h71v-415h-71v58q-58 -70 -143 -70q-86 0 -143 62.5t-57 158.5q0 94 56 155t142 61t145 -69v59zM252 360q-58 0 -97.5 -43t-39.5 -107q0 -68 38.5 -112.5t97.5 -44.5q61 0 100 43.5t39 111.5q0 67 -38.5 109.5t-99.5 42.5zM271 665q37 0 64 -26.5t27 -63.5
t-26.5 -64t-63.5 -27q-38 0 -64.5 27t-26.5 65q0 36 26.5 62.5t63.5 26.5zM272 616q-17 0 -29.5 -12t-12.5 -29t12.5 -29.5t29.5 -12.5t29 12.5t12 29.5t-12 29t-29 12z" />
    <glyph glyph-name="ccedilla" unicode="&#xe7;" horiz-adv-x="435" 
d="M391 385v-94q-61 68 -131 68q-62 0 -104 -44t-42 -109t41.5 -109t103.5 -44q71 0 135 72v-94q-69 -43 -133 -43q-93 0 -156.5 62.5t-63.5 154.5t63.5 155.5t157.5 63.5q69 0 129 -39zM296 -74l-101 -128l-49 25l84 130z" />
    <glyph glyph-name="eacute" unicode="&#xe9;" horiz-adv-x="481" 
d="M440 193h-324q3 -64 39.5 -102t92.5 -38q41 0 69.5 19.5t58.5 67.5l60 -34q-67 -118 -191 -118q-90 0 -147 60.5t-57 156.5q0 97 56 158t145 61t143.5 -60t54.5 -159v-12zM121 253h244q-10 49 -43 78t-79 29q-45 0 -79.5 -30t-42.5 -77zM393 623l-135 -136l-44 25
l105 144z" />
    <glyph glyph-name="egrave" unicode="&#xe8;" horiz-adv-x="481" 
d="M440 193h-324q3 -64 39.5 -102t92.5 -38q41 0 69.5 19.5t58.5 67.5l60 -34q-67 -118 -191 -118q-90 0 -147 60.5t-57 156.5q0 97 56 158t145 61t143.5 -60t54.5 -159v-12zM121 253h244q-10 49 -43 78t-79 29q-45 0 -79.5 -30t-42.5 -77zM111 623l74 33l105 -144l-44 -25z
" />
    <glyph glyph-name="ecircumflex" unicode="&#xea;" horiz-adv-x="481" 
d="M440 193h-324q3 -64 39.5 -102t92.5 -38q41 0 69.5 19.5t58.5 67.5l60 -34q-67 -118 -191 -118q-90 0 -147 60.5t-57 156.5q0 97 56 158t145 61t143.5 -60t54.5 -159v-12zM121 253h244q-10 49 -43 78t-79 29q-45 0 -79.5 -30t-42.5 -77zM109 526l138 130l139 -130
l-52 -39l-87 83l-88 -83z" />
    <glyph glyph-name="edieresis" unicode="&#xeb;" horiz-adv-x="481" 
d="M440 193h-324q3 -64 39.5 -102t92.5 -38q41 0 69.5 19.5t58.5 67.5l60 -34q-67 -118 -191 -118q-90 0 -147 60.5t-57 156.5q0 97 56 158t145 61t143.5 -60t54.5 -159v-12zM121 253h244q-10 49 -43 78t-79 29q-45 0 -79.5 -30t-42.5 -77zM167 610q20 0 35 -14.5t15 -35.5
q0 -20 -15 -35t-35 -15q-21 0 -35.5 15t-14.5 36q0 20 15 34.5t35 14.5zM340 610q21 0 35.5 -14.5t14.5 -35.5q0 -20 -15 -35t-35 -15t-35 15t-15 36q0 20 15 34.5t35 14.5z" />
    <glyph glyph-name="iacute" unicode="&#xed;" horiz-adv-x="208" 
d="M139 415v-415h-71v415h71zM237 623l-119 -136l-41 25l86 144z" />
    <glyph glyph-name="igrave" unicode="&#xec;" horiz-adv-x="208" 
d="M139 415v-415h-71v415h71zM-16 623l74 33l85 -144l-41 -25z" />
    <glyph glyph-name="icircumflex" unicode="&#xee;" horiz-adv-x="208" 
d="M139 415v-415h-71v415h71zM-15 526l118 130l119 -130l-48 -39l-71 83l-71 -83z" />
    <glyph glyph-name="idieresis" unicode="&#xef;" horiz-adv-x="208" 
d="M140 415v-415h-71v415h71zM43 608q20 0 34 -14t14 -34q0 -19 -14 -33.5t-34 -14.5t-34 14.5t-14 34.5q0 19 14.5 33t33.5 14zM172 608q20 0 34 -14t14 -34q0 -19 -14 -33.5t-34 -14.5t-34 14.5t-14 34.5q0 19 14.5 33t33.5 14z" />
    <glyph glyph-name="ntilde" unicode="&#xf1;" horiz-adv-x="469" 
d="M68 415h71v-50q49 60 120 60q83 0 119 -57q23 -36 23 -111v-257h-71v245q0 59 -14 81q-21 34 -74 34q-54 0 -78.5 -36.5t-24.5 -116.5v-207h-71v415zM145 506l-42 34q25 71 86 71q27 0 61 -20.5t47 -20.5q26 0 47 43l42 -32q-29 -73 -88 -73q-20 0 -57 21t-54 21
q-29 0 -42 -44z" />
    <glyph glyph-name="oacute" unicode="&#xf3;" horiz-adv-x="521" 
d="M261 424q92 0 155.5 -63t63.5 -155t-63.5 -155t-157.5 -63q-92 0 -155 64t-63 158q0 88 64.5 151t155.5 63zM260 359q-62 0 -104 -43.5t-42 -107.5q0 -68 40.5 -111.5t104.5 -43.5q65 0 106.5 43t41.5 110t-41.5 110t-105.5 43zM406 623l-135 -136l-44 25l105 144z" />
    <glyph glyph-name="ograve" unicode="&#xf2;" horiz-adv-x="521" 
d="M261 424q92 0 155.5 -63t63.5 -155t-63.5 -155t-157.5 -63q-92 0 -155 64t-63 158q0 88 64.5 151t155.5 63zM260 359q-62 0 -104 -43.5t-42 -107.5q0 -68 40.5 -111.5t104.5 -43.5q65 0 106.5 43t41.5 110t-41.5 110t-105.5 43zM124 623l74 33l105 -144l-44 -25z" />
    <glyph glyph-name="ocircumflex" unicode="&#xf4;" horiz-adv-x="521" 
d="M261 424q92 0 155.5 -63t63.5 -155t-63.5 -155t-157.5 -63q-92 0 -155 64t-63 158q0 88 64.5 151t155.5 63zM260 359q-62 0 -104 -43.5t-42 -107.5q0 -68 40.5 -111.5t104.5 -43.5q65 0 106.5 43t41.5 110t-41.5 110t-105.5 43zM122 526l138 130l139 -130l-52 -39l-87 83
l-88 -83z" />
    <glyph glyph-name="odieresis" unicode="&#xf6;" horiz-adv-x="521" 
d="M261 424q92 0 155.5 -63t63.5 -155t-63.5 -155t-157.5 -63q-92 0 -155 64t-63 158q0 88 64.5 151t155.5 63zM260 359q-62 0 -104 -43.5t-42 -107.5q0 -68 40.5 -111.5t104.5 -43.5q65 0 106.5 43t41.5 110t-41.5 110t-105.5 43zM177 610q20 0 35 -14.5t15 -35.5
q0 -20 -15 -35t-35 -15q-21 0 -35.5 15t-14.5 36q0 20 15 34.5t35 14.5zM350 610q21 0 35.5 -14.5t14.5 -35.5q0 -20 -15 -35t-35 -15t-35 15t-15 36q0 20 15 34.5t35 14.5z" />
    <glyph glyph-name="otilde" unicode="&#xf5;" horiz-adv-x="521" 
d="M261 424q92 0 155.5 -63t63.5 -155t-63.5 -155t-157.5 -63q-92 0 -155 64t-63 158q0 88 64.5 151t155.5 63zM260 359q-62 0 -104 -43.5t-42 -107.5q0 -68 40.5 -111.5t104.5 -43.5q65 0 106.5 43t41.5 110t-41.5 110t-105.5 43zM179 506l-42 34q25 71 86 71
q27 0 61 -20.5t47 -20.5q26 0 47 43l42 -32q-29 -73 -88 -73q-20 0 -57 21t-54 21q-29 0 -42 -44z" />
    <glyph glyph-name="uacute" unicode="&#xfa;" horiz-adv-x="465" 
d="M139 415v-242q0 -53 13 -77q23 -43 80 -43q59 0 81 43q13 25 13 77v242h71v-250q0 -84 -38 -125q-48 -52 -127 -52q-78 0 -126 52q-38 41 -38 125v250h71zM379 623l-135 -136l-44 25l105 144z" />
    <glyph glyph-name="ugrave" unicode="&#xf9;" horiz-adv-x="465" 
d="M139 415v-242q0 -53 13 -77q23 -43 80 -43q59 0 81 43q13 25 13 77v242h71v-250q0 -84 -38 -125q-48 -52 -127 -52q-78 0 -126 52q-38 41 -38 125v250h71zM96 623l74 33l105 -144l-44 -25z" />
    <glyph glyph-name="ucircumflex" unicode="&#xfb;" horiz-adv-x="465" 
d="M139 415v-242q0 -53 13 -77q23 -43 80 -43q59 0 81 43q13 25 13 77v242h71v-250q0 -84 -38 -125q-48 -52 -127 -52q-78 0 -126 52q-38 41 -38 125v250h71zM101 526l138 130l139 -130l-52 -39l-87 83l-88 -83z" />
    <glyph glyph-name="udieresis" unicode="&#xfc;" horiz-adv-x="465" 
d="M139 415v-242q0 -53 13 -77q23 -43 80 -43q59 0 81 43q13 25 13 77v242h71v-250q0 -84 -38 -125q-48 -52 -127 -52q-78 0 -126 52q-38 41 -38 125v250h71zM153 610q20 0 35 -14.5t15 -35.5q0 -20 -15 -35t-35 -15q-21 0 -35.5 15t-14.5 36q0 20 15 34.5t35 14.5zM326 610
q21 0 35.5 -14.5t14.5 -35.5q0 -20 -15 -35t-35 -15t-35 15t-15 36q0 20 15 34.5t35 14.5z" />
    <glyph glyph-name="dagger" unicode="&#x2020;" horiz-adv-x="567" 
d="M247 729h72v-164h148v-69h-148v-672h-72v672h-147v69h147v164z" />
    <glyph glyph-name="degree" unicode="&#xb0;" horiz-adv-x="567" 
d="M285 677q54 0 93 -39.5t39 -93.5q0 -55 -39 -94.5t-94 -39.5t-94.5 39.5t-39.5 94.5t39.5 94t95.5 39zM285 624q-34 0 -58 -23.5t-24 -56.5q0 -34 23.5 -57.5t57.5 -23.5q33 0 56.5 23.5t23.5 57.5q0 32 -23.5 56t-55.5 24z" />
    <glyph glyph-name="cent" unicode="&#xa2;" horiz-adv-x="567" 
d="M342 650v-93q57 -4 106 -38v-94q-50 59 -106 67v-304q57 9 109 71v-94q-60 -40 -109 -42v-99h-58v100q-80 11 -133 72t-53 143q0 83 53 144.5t133 72.5v94h58zM284 189v301q-49 -10 -81 -52t-32 -98t31.5 -98.5t81.5 -52.5z" />
    <glyph glyph-name="sterling" unicode="&#xa3;" horiz-adv-x="567" 
d="M261 293h126v-57h-106q6 -22 6 -39q0 -43 -29 -96q28 -9 58 -20q55 -20 75 -20q42 0 80 67l60 -36q-52 -103 -137 -103q-39 0 -109 25.5t-95 25.5q-45 0 -80 -53l-57 39q52 83 129 85q28 45 28 84q0 18 -6 41h-112v57h88l-29 57q-44 86 -44 140q0 78 57.5 132t140.5 54
q85 0 137 -53.5t56 -144.5l-73 -20q-4 50 -11 72q-24 74 -109 74q-53 0 -88 -34t-35 -85q0 -46 54 -144l20 -36q1 -2 5 -12z" />
    <glyph glyph-name="section" unicode="&#xa7;" horiz-adv-x="567" 
d="M103 2h72q4 -55 19 -77q27 -40 82 -40q47 0 73.5 26.5t26.5 73.5q0 55 -43 83q-10 7 -89 40q-67 26 -93 50q-50 46 -50 120q0 113 100 157q-84 50 -84 136q0 70 50.5 118t124.5 48q48 0 89 -23t61 -65q17 -37 21 -101h-71q-1 52 -16 77q-26 44 -83 44q-46 0 -75 -28.5
t-29 -75.5q0 -44 34 -70q19 -15 89.5 -40t100.5 -50q53 -45 53 -126q0 -98 -100 -157q31 -19 46 -34q37 -38 37 -105q0 -75 -48 -121t-127 -46q-103 0 -147 77q-21 37 -24 109zM283 389q-44 0 -76 -32t-32 -76q0 -46 31.5 -78t76.5 -32t76.5 32t31.5 77t-31.5 77t-76.5 32z
" />
    <glyph glyph-name="bullet" unicode="&#x2022;" horiz-adv-x="667" 
d="M337 477q55 0 95.5 -41t40.5 -97q0 -58 -40.5 -98.5t-97.5 -40.5t-98 41t-41 97q0 58 41 98.5t100 40.5z" />
    <glyph glyph-name="paragraph" unicode="&#xb6;" horiz-adv-x="567" 
d="M212 -99v427h-15q-69 0 -112.5 46.5t-43.5 120.5q0 101 73 146q43 26 120 26h287l-33 -58h-44v-708h-63v708h-106v-708h-63z" />
    <glyph glyph-name="germandbls" unicode="&#xdf;" horiz-adv-x="524" 
d="M68 0v349h-39v66h39v138q0 85 38 131q47 57 136 57q74 0 123 -47.5t49 -119.5q0 -89 -74 -129q65 -25 103.5 -82.5t38.5 -131.5q0 -127 -115 -201q-59 -38 -138 -42v70q65 4 109 36q71 52 71 140q0 96 -76 141q-37 22 -104 31v64q46 3 71 21q41 31 41 86q0 43 -28.5 71
t-72.5 28q-65 0 -88 -50q-13 -28 -13 -105v-521h-71z" />
    <glyph glyph-name="registered" unicode="&#xae;" horiz-adv-x="740" 
d="M390 307l122 -177h-70l-103 151v-151h-57v400h68q132 0 132 -114q0 -93 -92 -109zM339 359h18q67 0 67 58t-72 58h-13v-116zM375 678q139 0 239 -102t100 -242q0 -143 -100.5 -244t-243.5 -101q-144 0 -244.5 101t-100.5 246q0 142 102 242t248 100zM374 622
q-132 0 -219 -96q-74 -82 -74 -190q0 -122 84 -206.5t205 -84.5q119 0 203.5 85t84.5 204q0 117 -84.5 202.5t-199.5 85.5z" />
    <glyph glyph-name="copyright" unicode="&#xa9;" horiz-adv-x="740" 
d="M523 478v-85q-30 36 -43 48q-40 38 -97 38q-60 0 -104.5 -45.5t-44.5 -106.5q0 -59 44.5 -103.5t104.5 -44.5q54 0 97 37q9 7 43 46v-84q-70 -54 -139 -54q-85 0 -146.5 61t-61.5 144q0 84 61 145t146 61q74 0 140 -57zM375 678q139 0 239 -102t100 -242
q0 -143 -100.5 -244t-243.5 -101q-144 0 -244.5 101t-100.5 246q0 142 102 242t248 100zM374 622q-132 0 -219 -96q-74 -82 -74 -190q0 -122 84 -206.5t205 -84.5q119 0 203.5 85t84.5 204q0 117 -84.5 202.5t-199.5 85.5z" />
    <glyph glyph-name="trademark" unicode="&#x2122;" horiz-adv-x="721" 
d="M142 622v-335h-48v335h-90v45h230v-45h-92zM270 287l65 405l143 -316l147 316l61 -405h-47l-34 258l-127 -277l-125 277l-37 -258h-46z" />
    <glyph glyph-name="acute" unicode="&#xb4;" 
d="M386 623l-135 -136l-44 25l105 144z" />
    <glyph glyph-name="dieresis" unicode="&#xa8;" 
d="M163 610q20 0 35 -14.5t15 -35.5q0 -20 -15 -35t-35 -15q-21 0 -35.5 15t-14.5 36q0 20 15 34.5t35 14.5zM336 610q21 0 35.5 -14.5t14.5 -35.5q0 -20 -15 -35t-35 -15t-35 15t-15 36q0 20 15 34.5t35 14.5z" />
    <glyph glyph-name="notequal" unicode="&#x2260;" horiz-adv-x="567" 
d="M298 431l62 130l51 -21l-52 -109h160v-58h-187l-32 -66h219v-58h-247l-65 -138l-52 21l56 117h-163v58h190l32 66h-222v58h250z" />
    <glyph glyph-name="AE" unicode="&#xc6;" horiz-adv-x="898" 
d="M458 187h-284l-79 -187h-82l297 667h293l29 -69h-269l83 -200h263l30 -69h-263l108 -260h271l30 -69h-349zM429 256l-111 263l-112 -263h223z" />
    <glyph glyph-name="Oslash" unicode="&#xd8;" horiz-adv-x="794" 
d="M49 37l78 77q-77 106 -77 218q0 142 102.5 244t245.5 102q100 0 189 -57q14 -9 29 -20l77 77l43 -44l-75 -76q46 -61 64.5 -111t18.5 -114q0 -142 -102 -243.5t-245 -101.5q-104 0 -194 59l-32 23l-77 -77zM180 166l383 385q-73 57 -166 57q-113 0 -192.5 -80.5
t-79.5 -195.5q0 -83 55 -166zM609 507l-385 -384q70 -65 175 -65q111 0 190.5 80.5t79.5 193.5q0 92 -60 175z" />
    <glyph glyph-name="infinity" unicode="&#x221e;" horiz-adv-x="667" 
d="M335 290q-75 -104 -165 -104q-67 0 -109.5 43.5t-42.5 112.5q0 66 43 109t110 43q90 0 161 -103q71 103 165 103q67 0 109 -43.5t42 -111.5q0 -67 -42.5 -110t-107.5 -43q-93 0 -163 104zM371 340q57 -90 118 -90q37 0 61 25.5t24 64.5t-24.5 64.5t-61.5 25.5
q-60 0 -117 -90zM295 340q-56 90 -118 90q-37 0 -61 -25.5t-24 -64.5t24.5 -64.5t61.5 -25.5q60 0 117 90z" />
    <glyph glyph-name="plusminus" unicode="&#xb1;" horiz-adv-x="567" 
d="M48 310v61h205v201h61v-201h205v-61h-205v-195h-61v195h-205zM48 0v61h471v-61h-471z" />
    <glyph glyph-name="lessequal" unicode="&#x2264;" 
d="M466 612v-72l-353 -156l353 -157v-71l-433 194v65zM466 126v-70h-433v70h433z" />
    <glyph glyph-name="greaterequal" unicode="&#x2265;" 
d="M33 156v71l353 157l-353 156v72l433 -197v-65zM33 56v70h433v-70h-433z" />
    <glyph glyph-name="yen" unicode="&#xa5;" horiz-adv-x="567" 
d="M375 383l-50 -87h192v-57h-198v-239h-75v239h-194v57h188l-49 87h-139v57h106l-130 227h86l170 -298l172 298h87l-133 -227h109v-57h-142z" />
    <glyph glyph-name="partialdiff" unicode="&#x2202;" 
d="M84 604l10 66q157 -21 248 -106q128 -120 128 -318q0 -98 -41 -160q-64 -97 -178 -97q-91 0 -156 66.5t-65 158.5t60.5 156t148.5 64q85 0 145 -72l-6 16q-42 112 -135 169q-73 45 -159 57zM255 377q-63 0 -106 -48t-43 -118q0 -67 42.5 -115.5t101.5 -48.5
q61 0 102.5 49t41.5 121q0 69 -39.5 114.5t-99.5 45.5z" />
    <glyph glyph-name="summation" unicode="&#x2211;" horiz-adv-x="667" 
d="M599 750v-229h-68l-7 158h-412l252 -409l-252 -450h421l4 158h72v-228h-581v79l248 441l-248 402v78h571z" />
    <glyph glyph-name="product" unicode="&#x220f;" horiz-adv-x="700" 
d="M37 750h627v-70h-80v-860h80v-70h-237v70h82v860h-318v-860h82v-70h-236v70h79v860h-79v70z" />
    <glyph glyph-name="integral" unicode="&#x222b;" 
d="M94 -239l16 67q29 -11 46 -11q47 0 54 46q3 19 3 76v609q0 96 9 127q21 75 117 75q29 0 68 -10l-16 -67q-27 9 -46 9q-47 0 -54 -45q-3 -18 -3 -109v-576q0 -65 -1 -79q-4 -48 -20 -73q-32 -49 -114 -49q-34 0 -59 10z" />
    <glyph glyph-name="ordfeminine" unicode="&#xaa;" horiz-adv-x="358" 
d="M254 664h47v-250h-47v31q-35 -38 -87 -38q-55 0 -90.5 37.5t-35.5 94.5q0 56 35.5 93.5t89.5 37.5q52 0 88 -38v32zM172 628q-35 0 -59 -25t-24 -62q0 -40 23.5 -66t59.5 -26q38 0 61.5 25t23.5 65t-23.5 64.5t-61.5 24.5z" />
    <glyph glyph-name="ordmasculine" unicode="&#xba;" horiz-adv-x="358" 
d="M180 670q58 0 97.5 -38t39.5 -94t-40 -94t-99 -38q-57 0 -96.5 39t-39.5 95q0 54 40.5 92t97.5 38zM179 629q-38 0 -63.5 -25.5t-25.5 -63.5q0 -40 25 -66t63 -26q40 0 65.5 25.5t25.5 64.5q0 40 -25.5 65.5t-64.5 25.5z" />
    <glyph glyph-name="Omega" unicode="&#x3a9;" horiz-adv-x="667" 
d="M28 0v66h178q-178 104 -178 298q0 135 88 227.5t217 92.5t217 -92.5t88 -227.5q0 -194 -178 -298h178v-66h-261v60q70 40 107 82q78 90 78 213q0 118 -78 197q-64 65 -150 65q-98 0 -164 -75t-66 -187q0 -192 185 -295v-60h-261z" />
    <glyph glyph-name="ae" unicode="&#xe6;" horiz-adv-x="772" 
d="M730 193h-325q5 -63 41 -101.5t91 -38.5q77 0 128 87l60 -35q-70 -117 -188 -117q-107 0 -162 83q-49 -83 -156 -83q-80 0 -129 37t-49 97q0 63 53 105q43 34 118 34q65 0 120 -36q-1 136 -118 136q-50 0 -128 -25v66q83 23 133 23q115 0 153 -84q23 39 66.5 61.5
t93.5 22.5q58 0 105.5 -29.5t70.5 -79.5t22 -123zM411 254h243q-9 50 -41.5 78.5t-79.5 28.5q-98 0 -122 -107zM220 196q-48 0 -78.5 -20t-30.5 -51q0 -32 29 -52t77 -20q49 0 80 21t31 53q0 30 -30.5 49.5t-77.5 19.5z" />
    <glyph glyph-name="oslash" unicode="&#xf8;" horiz-adv-x="521" 
d="M26 15l59 59q-44 59 -44 133q0 91 64 154t156 63q74 0 132 -44l59 60l40 -40l-59 -59q47 -45 47 -136q0 -90 -63.5 -153.5t-154.5 -63.5q-71 0 -136 45l-60 -59zM136 123l207 210q-33 26 -83 26q-64 0 -105 -43.5t-41 -111.5q0 -47 22 -81zM383 294l-209 -214
q33 -27 86 -27q64 0 105.5 43.5t41.5 109.5q0 51 -24 88z" />
    <glyph glyph-name="questiondown" unicode="&#xbf;" horiz-adv-x="436" 
d="M147 223h-72q1 50 20 83q40 70 125 70q61 0 102 -41.5t41 -102.5q0 -96 -121 -135q-66 -21 -82 -34q-30 -24 -30 -68q0 -40 25.5 -66t64.5 -26q38 0 63 24.5t25 62.5q0 17 -6 43h73q5 -30 5 -47q0 -64 -46.5 -108t-114.5 -44q-70 0 -116 45.5t-46 115.5q0 87 62 129
q27 18 104 40q67 19 67 73q0 30 -21 51t-50 21q-44 0 -62 -37q-7 -15 -10 -49zM219 519q20 0 34.5 -15t14.5 -35t-15 -34.5t-35 -14.5t-34.5 14.5t-14.5 34.5q0 21 14.5 35.5t35.5 14.5z" />
    <glyph glyph-name="exclamdown" unicode="&#xa1;" horiz-adv-x="277" 
d="M139 520q20 0 34.5 -14.5t14.5 -35.5q0 -20 -14.5 -34t-34.5 -14t-34.5 14.5t-14.5 34.5t14.5 34.5t34.5 14.5zM175 375v-531h-72v531h72z" />
    <glyph glyph-name="logicalnot" unicode="&#xac;" 
d="M391 0v197h-358v70h433v-267h-75z" />
    <glyph glyph-name="radical" unicode="&#x221a;" horiz-adv-x="667" 
d="M667 829v-70h-196l-213 -759h-93l-81 298h-84v70h145l36 -127q3 -10 28 -139h6l4 20l29 129l10 43q3 15 41 149l108 386h260z" />
    <glyph glyph-name="florin" unicode="&#x192;" horiz-adv-x="567" 
d="M331 403h107l-10 -60h-108l-52 -288q-14 -78 -29 -114.5t-41 -59.5q-51 -45 -133 -45q-11 0 -46 3l14 67q13 -1 30 -1q63 0 95 40q21 27 37 113l52 285h-72l9 60h74l27 150q26 147 146 147q27 0 60 -11l-14 -67q-23 11 -46 11q-33 0 -48.5 -20.5t-26.5 -79.5z" />
    <glyph glyph-name="approxequal" unicode="&#x2248;" 
d="M54 347l-44 29q53 116 137 116q38 0 112 -34q70 -32 97 -32q49 0 90 68l45 -27q-56 -113 -145 -113q-34 0 -140 48q-40 18 -64 18q-49 0 -88 -73zM54 179l-44 29q53 116 138 116q36 0 111 -34q70 -32 97 -32q50 0 90 68l45 -27q-56 -113 -145 -113q-34 0 -140 48
q-40 18 -64 18q-49 0 -88 -73z" />
    <glyph glyph-name="approxequal" unicode="&#x22f2;" 
d="M54 347l-44 29q53 116 137 116q38 0 112 -34q70 -32 97 -32q49 0 90 68l45 -27q-56 -113 -145 -113q-34 0 -140 48q-40 18 -64 18q-49 0 -88 -73zM54 179l-44 29q53 116 138 116q36 0 111 -34q70 -32 97 -32q50 0 90 68l45 -27q-56 -113 -145 -113q-34 0 -140 48
q-40 18 -64 18q-49 0 -88 -73z" />
    <glyph glyph-name="guillemotleft" unicode="&#xab;" horiz-adv-x="431" 
d="M262 213l119 -147l-46 -37l-149 184l149 187l46 -36zM114 213l119 -147l-47 -37l-149 184l149 187l47 -36z" />
    <glyph glyph-name="guillemotright" unicode="&#xbb;" horiz-adv-x="431" 
d="M169 213l-119 151l47 36l149 -187l-149 -184l-47 37zM318 213l-119 151l46 36l149 -187l-149 -184l-46 37z" />
    <glyph glyph-name="ellipsis" unicode="&#x2026;" horiz-adv-x="746" 
d="M124 88q20 0 34.5 -14.5t14.5 -34.5t-14.5 -34.5t-34.5 -14.5t-34.5 14.5t-14.5 35.5q0 19 14.5 33.5t34.5 14.5zM373 88q20 0 34.5 -14.5t14.5 -34.5t-14.5 -34.5t-34.5 -14.5t-34.5 14.5t-14.5 35.5q0 19 14.5 33.5t34.5 14.5zM621 88q20 0 34.5 -14.5t14.5 -34.5
t-14.5 -34.5t-34.5 -14.5t-34.5 14.5t-14.5 35.5q0 19 14.5 33.5t34.5 14.5z" />
    <glyph glyph-name="nonbreakingspace" unicode="&#xa0;" horiz-adv-x="250" 
 />
    <glyph glyph-name="Agrave" unicode="&#xc0;" horiz-adv-x="620" 
d="M453 189h-285l-80 -189h-81l307 699l300 -699h-82zM424 258l-111 267l-114 -267h225zM172 837l67 45l119 -130l-43 -32z" />
    <glyph glyph-name="Atilde" unicode="&#xc3;" horiz-adv-x="620" 
d="M453 189h-285l-80 -189h-81l307 699l300 -699h-82zM424 258l-111 267l-114 -267h225zM219 746l-43 34q36 71 89 71q23 0 63 -20.5t56 -20.5q24 0 45 43l43 -33q-34 -72 -91 -72q-24 0 -64 20.5t-57 20.5q-20 0 -41 -43z" />
    <glyph glyph-name="Otilde" unicode="&#xd5;" horiz-adv-x="794" 
d="M398 678q142 0 244 -101.5t102 -243.5q0 -143 -102.5 -244t-247.5 -101q-71 0 -140 31t-118 86q-86 96 -86 232q0 138 103.5 239.5t244.5 101.5zM397 608q-112 0 -192 -80t-80 -191q0 -123 85 -203q81 -76 185 -76q114 0 194 80t80 195q0 114 -79.5 194.5t-192.5 80.5z
M312 746l-43 34q36 71 89 71q23 0 63 -20.5t56 -20.5q24 0 45 43l43 -33q-34 -72 -91 -72q-24 0 -64 20.5t-57 20.5q-20 0 -41 -43z" />
    <glyph glyph-name="OE" unicode="&#x152;" horiz-adv-x="1056" 
d="M1006 598h-266v-199h259v-69h-259v-261h266v-69h-341v128q-101 -140 -266 -140q-143 0 -246 101.5t-103 242.5q0 143 101.5 244.5t244.5 101.5q164 0 269 -142v131h341v-69zM395 608q-109 0 -189.5 -81t-80.5 -190q0 -115 78.5 -197t188.5 -82q113 0 193 80.5t80 193.5
t-79.5 194.5t-190.5 81.5z" />
    <glyph glyph-name="oe" unicode="&#x153;" horiz-adv-x="851" 
d="M809 194h-327q3 -62 40.5 -101.5t95.5 -39.5q78 0 125 88l60 -35q-67 -118 -190 -118q-56 0 -103 27t-69 72q-62 -99 -183 -99q-90 0 -153.5 63.5t-63.5 153.5q0 91 64.5 155t156.5 64q57 0 105 -26t74 -72q50 98 168 98q91 0 145.5 -59t54.5 -157v-14zM488 254h246
q-22 105 -123 105q-98 0 -123 -105zM259 360q-62 0 -103.5 -43.5t-41.5 -108.5q0 -68 40.5 -111.5t103.5 -43.5q65 0 106.5 42.5t41.5 109.5q0 68 -41 111.5t-106 43.5z" />
    <glyph glyph-name="endash" unicode="&#x2013;" horiz-adv-x="567" 
d="M117 245h333v-64h-333v64z" />
    <glyph glyph-name="emdash" unicode="&#x2014;" horiz-adv-x="544" 
d="M0 245h544v-64h-544v64z" />
    <glyph glyph-name="quotedblleft" unicode="&#x201c;" horiz-adv-x="408" 
d="M269 451l-66 24l101 225l48 -19zM122 451l-65 24l100 225l48 -19z" />
    <glyph glyph-name="quotedblright" unicode="&#x201d;" horiz-adv-x="408" 
d="M140 700l65 -24l-100 -225l-48 19zM286 700l66 -24l-101 -225l-48 19z" />
    <glyph glyph-name="quoteleft" unicode="&#x2018;" horiz-adv-x="261" 
d="M122 451l-65 24l100 225l48 -19z" />
    <glyph glyph-name="quoteright" unicode="&#x2019;" horiz-adv-x="252" 
d="M129 700l65 -24l-100 -225l-48 19z" />
    <glyph glyph-name="divide" unicode="&#xf7;" horiz-adv-x="567" 
d="M48 310v61h471v-61h-471zM284 256q20 0 33.5 -13.5t13.5 -33.5q0 -19 -13.5 -33t-33.5 -14t-33.5 14t-13.5 34q0 19 14 32.5t33 13.5zM284 518q20 0 33.5 -13.5t13.5 -33.5q0 -19 -13.5 -33t-33.5 -14t-33.5 14t-13.5 34q0 19 14 32.5t33 13.5z" />
    <glyph glyph-name="lozenge" unicode="&#x25ca;" horiz-adv-x="667" 
d="M334 693l259 -359l-259 -360l-260 360zM334 554l-161 -220l161 -220l160 220z" />
    <glyph glyph-name="ydieresis" unicode="&#xff;" horiz-adv-x="460" 
d="M199 39l-191 376h82l147 -297l134 297h81l-307 -649h-80zM153 610q20 0 35 -14.5t15 -35.5q0 -20 -15 -35t-35 -15q-21 0 -35.5 15t-14.5 36q0 20 15 34.5t35 14.5zM326 610q21 0 35.5 -14.5t14.5 -35.5q0 -20 -15 -35t-35 -15t-35 15t-15 36q0 20 15 34.5t35 14.5z" />
    <glyph glyph-name="Ydieresis" unicode="&#x178;" horiz-adv-x="528" 
d="M225 287l-218 380h86l170 -298l172 298h87l-222 -380v-287h-75v287zM173 849q21 0 36 -15t15 -36t-15 -36t-36 -15t-36 15t-15 37q0 20 15 35t36 15zM363 849q21 0 36 -15t15 -36t-15 -36t-36 -15t-36 15t-15 37q0 20 15 35t36 15z" />
    <glyph glyph-name="fraction" unicode="&#x2044;" horiz-adv-x="140" 
d="M245 680l39 -21l-388 -672l-39 23z" />
    <glyph glyph-name="currency" unicode="&#xa4;" horiz-adv-x="760" 
d="M581 259h-377q23 -87 97.5 -144t164.5 -57q134 0 218 110v-103q-97 -77 -219 -77q-121 0 -218 78t-120 193h-82l24 58h51q-1 11 -1 16q0 11 1 20h-75l24 58h59q28 117 123.5 192t215.5 75q145 0 248 -106l-32 -73q-83 109 -216 109q-91 0 -163.5 -54.5t-97.5 -142.5h439
l-25 -57l-425 -1q-1 -11 -1 -21q0 -5 1 -15h410z" />
    <glyph glyph-name="guilsinglleft" unicode="&#x2039;" horiz-adv-x="282" 
d="M114 213l119 -147l-47 -37l-149 184l149 187l47 -36z" />
    <glyph glyph-name="guilsinglright" unicode="&#x203a;" horiz-adv-x="282" 
d="M169 213l-119 151l47 36l149 -187l-150 -184l-46 37z" />
    <glyph glyph-name="fi" unicode="&#xf001;" horiz-adv-x="447" 
d="M139 349v-349h-71v349h-39v66h39v177q0 74 24 105q34 44 100 44q22 0 52 -9v-72q-28 10 -48 10q-34 0 -45.5 -19.5t-11.5 -75.5v-160h105v-66h-105zM379 415v-415h-71v415h71zM343 623q21 0 36 -15t15 -36t-15 -36t-36 -15t-36 15t-15 37q0 20 15 35t36 15z" />
    <glyph glyph-name="fl" unicode="&#xf002;" horiz-adv-x="447" 
d="M139 349v-349h-71v349h-39v66h39v177q0 74 24 105q34 44 100 44q22 0 52 -9v-72q-28 10 -48 10q-34 0 -45.5 -19.5t-11.5 -75.5v-160h105v-66h-105zM379 729v-729h-71v729h71z" />
    <glyph glyph-name="daggerdbl" unicode="&#x2021;" horiz-adv-x="567" 
d="M247 729h73v-164h147v-69h-147v-302h147v-69h-147v-301h-73v301h-147v69h147v302h-147v69h147v164z" />
    <glyph glyph-name="periodcentered" unicode="&#x2219;" horiz-adv-x="225" 
d="M112 263q21 0 35.5 -14.5t14.5 -34.5q0 -21 -14.5 -35.5t-34.5 -14.5q-21 0 -35.5 14.5t-14.5 35.5q0 20 14.5 34.5t34.5 14.5z" />
    <glyph glyph-name="quotesinglbase" unicode="&#x201a;" horiz-adv-x="252" 
d="M129 100l65 -24l-100 -225l-48 19z" />
    <glyph glyph-name="quotedblbase" unicode="&#x201e;" horiz-adv-x="408" 
d="M140 98l65 -24l-100 -226l-48 19zM286 98l66 -24l-101 -226l-48 19z" />
    <glyph glyph-name="perthousand" unicode="&#x2030;" horiz-adv-x="1078" 
d="M181 674q62 0 105.5 -42.5t43.5 -103.5t-43.5 -103t-106.5 -42q-61 0 -104 43t-43 105q0 58 44 100.5t104 42.5zM182 619q-37 0 -63.5 -26t-26.5 -63q0 -38 26.5 -64.5t63.5 -26.5t63 26.5t26 63.5t-26 63.5t-63 26.5zM532 680l39 -22l-389 -671l-38 23zM533 284
q62 0 105.5 -42.5t43.5 -103.5t-43.5 -103t-106.5 -42q-61 0 -104 43t-43 105q0 58 44 100.5t104 42.5zM533 229q-36 0 -62.5 -26t-26.5 -63q0 -38 26.5 -64.5t63.5 -26.5t63 26.5t26 63.5q0 38 -26 64t-64 26zM895 284q62 0 105.5 -42.5t43.5 -103.5t-43.5 -103t-106.5 -42
q-61 0 -104 43t-43 105q0 58 44 100.5t104 42.5zM895 229q-36 0 -62.5 -26t-26.5 -63q0 -38 26.5 -64.5t63.5 -26.5t63 26.5t26 63.5q0 38 -26 64t-64 26z" />
    <glyph glyph-name="Acircumflex" unicode="&#xc2;" horiz-adv-x="620" 
d="M453 189h-285l-80 -189h-81l307 699l300 -699h-82zM424 258l-111 267l-114 -267h225zM170 762l139 119l141 -119l-53 -41l-88 76l-87 -76z" />
    <glyph glyph-name="Ecircumflex" unicode="&#xca;" horiz-adv-x="482" 
d="M432 598h-270v-199h263v-69h-263v-261h270v-69h-345v667h345v-69zM123 762l139 119l141 -119l-53 -41l-88 76l-87 -76z" />
    <glyph glyph-name="Aacute" unicode="&#xc1;" horiz-adv-x="620" 
d="M453 189h-285l-80 -189h-81l307 699l300 -699h-82zM424 258l-111 267l-114 -267h225zM461 837l-143 -117l-43 32l119 130z" />
    <glyph glyph-name="Edieresis" unicode="&#xcb;" horiz-adv-x="482" 
d="M432 598h-270v-199h263v-69h-263v-261h270v-69h-345v667h345v-69zM171 849q21 0 36 -15t15 -36t-15 -36t-36 -15t-36 15t-15 37q0 20 15 35t36 15zM361 849q21 0 36 -15t15 -36t-15 -36t-36 -15t-36 15t-15 37q0 20 15 35t36 15z" />
    <glyph glyph-name="Egrave" unicode="&#xc8;" horiz-adv-x="482" 
d="M432 598h-270v-199h263v-69h-263v-261h270v-69h-345v667h345v-69zM120 837l67 45l119 -130l-43 -32z" />
    <glyph glyph-name="Iacute" unicode="&#xcd;" horiz-adv-x="248" 
d="M162 667v-667h-75v667h75zM256 837l-120 -117l-43 29l96 133z" />
    <glyph glyph-name="Icircumflex" unicode="&#xce;" horiz-adv-x="248" 
d="M162 667v-667h-75v667h75zM1 762l123 119l123 -119l-49 -41l-74 76l-75 -76z" />
    <glyph glyph-name="Idieresis" unicode="&#xcf;" horiz-adv-x="248" 
d="M162 667v-667h-75v667h75zM60 849q21 0 36 -15t15 -36t-15 -36t-36 -15t-36 15t-15 37q0 20 15 35t36 15zM195 849q21 0 36 -15t15 -36t-15 -36t-36 -15t-36 15t-15 37q0 20 15 35t36 15z" />
    <glyph glyph-name="Igrave" unicode="&#xcc;" horiz-adv-x="248" 
d="M161 667v-667h-75v667h75zM2 837l67 45l96 -133l-43 -29z" />
    <glyph glyph-name="Oacute" unicode="&#xd3;" horiz-adv-x="794" 
d="M398 678q142 0 244 -101.5t102 -243.5q0 -143 -102.5 -244t-247.5 -101q-71 0 -140 31t-118 86q-86 96 -86 232q0 138 103.5 239.5t244.5 101.5zM397 608q-112 0 -192 -80t-80 -191q0 -123 85 -203q81 -76 185 -76q114 0 194 80t80 195q0 114 -79.5 194.5t-192.5 80.5z
M551 837l-143 -117l-43 32l119 130z" />
    <glyph glyph-name="Ocircumflex" unicode="&#xd4;" horiz-adv-x="794" 
d="M398 678q142 0 244 -101.5t102 -243.5q0 -143 -102.5 -244t-247.5 -101q-71 0 -140 31t-118 86q-86 96 -86 232q0 138 103.5 239.5t244.5 101.5zM397 608q-112 0 -192 -80t-80 -191q0 -123 85 -203q81 -76 185 -76q114 0 194 80t80 195q0 114 -79.5 194.5t-192.5 80.5z
M257 762l139 119l141 -119l-53 -41l-88 76l-87 -76z" />
    <glyph glyph-name="apple" unicode="&#xf000;" horiz-adv-x="667" 
d="M481 691v-10q0 -60 -38 -105q-48 -58 -109 -58h-2q-2 68 40 117t109 56zM624 457q-81 -61 -81 -139q0 -107 99 -149q-79 -196 -169 -196q-19 0 -81 27q-7 3 -37 3q-26 0 -36.5 -3t-52.5 -20q-19 -8 -39 -8q-65 0 -129.5 111.5t-64.5 223.5q0 65 27.5 119.5t73.5 79.5
q37 20 86 20q31 0 77 -17q35 -13 47 -13q17 0 44 10q59 22 91 22q92 0 145 -71z" />
    <glyph glyph-name="Ograve" unicode="&#xd2;" horiz-adv-x="794" 
d="M398 678q142 0 244 -101.5t102 -243.5q0 -143 -102.5 -244t-247.5 -101q-71 0 -140 31t-118 86q-86 96 -86 232q0 138 103.5 239.5t244.5 101.5zM397 608q-112 0 -192 -80t-80 -191q0 -123 85 -203q81 -76 185 -76q114 0 194 80t80 195q0 114 -79.5 194.5t-192.5 80.5z
M252 837l67 45l119 -130l-43 -32z" />
    <glyph glyph-name="Uacute" unicode="&#xda;" horiz-adv-x="649" 
d="M162 667v-409q0 -92 22 -128q19 -32 58.5 -52t81.5 -20q43 0 82.5 20t58.5 52q22 36 22 128v409h75v-429q0 -101 -44 -158q-71 -92 -193 -92q-57 0 -109 24.5t-85 67.5q-44 57 -44 158v429h75zM472 837l-143 -117l-43 32l119 130z" />
    <glyph glyph-name="Ucircumflex" unicode="&#xdb;" horiz-adv-x="649" 
d="M162 667v-409q0 -92 22 -128q19 -32 58.5 -52t81.5 -20q43 0 82.5 20t58.5 52q22 36 22 128v409h75v-429q0 -101 -44 -158q-71 -92 -193 -92q-57 0 -109 24.5t-85 67.5q-44 57 -44 158v429h75zM191 762l139 119l141 -119l-53 -41l-88 76l-87 -76z" />
    <glyph glyph-name="Ugrave" unicode="&#xd9;" horiz-adv-x="649" 
d="M162 667v-409q0 -92 22 -128q19 -32 58.5 -52t81.5 -20q43 0 82.5 20t58.5 52q22 36 22 128v409h75v-429q0 -101 -44 -158q-71 -92 -193 -92q-57 0 -109 24.5t-85 67.5q-44 57 -44 158v429h75zM190 837l67 45l119 -130l-43 -32z" />
    <glyph glyph-name="dotlessi" unicode="&#x131;" horiz-adv-x="208" 
d="M139 415v-415h-71v415h71z" />
    <glyph glyph-name="circumflex" unicode="&#x2c6;" 
d="M112 526l138 130l139 -130l-52 -39l-87 83l-88 -83z" />
    <glyph glyph-name="tilde" unicode="&#x2dc;" 
d="M151 506l-42 34q25 71 86 71q27 0 61 -20.5t47 -20.5q26 0 47 43l42 -32q-29 -73 -88 -73q-20 0 -57 21t-54 21q-29 0 -42 -44z" />
    <glyph glyph-name="macron" unicode="&#x2c9;" 
d="M116 587h269v-60h-269v60z" />
    <glyph glyph-name="breve" unicode="&#x2d8;" 
d="M119 633h62q6 -70 68 -70q59 0 71 70h61q-7 -60 -42.5 -95t-89.5 -35q-42 0 -77.5 24.5t-47.5 63.5q-4 16 -5 42z" />
    <glyph glyph-name="dotaccent" unicode="&#x2d9;" 
d="M250 610q21 0 36 -15t15 -36t-15 -36t-36 -15t-36 15t-15 37q0 20 15 35t36 15z" />
    <glyph glyph-name="ring" unicode="&#x2da;" 
d="M249 665q37 0 64 -26.5t27 -63.5t-26.5 -64t-63.5 -27q-38 0 -64.5 27t-26.5 65q0 36 26.5 62.5t63.5 26.5zM250 616q-17 0 -29.5 -12t-12.5 -29t12.5 -29.5t29.5 -12.5t29 12.5t12 29.5t-12 29t-29 12z" />
    <glyph glyph-name="cedilla" unicode="&#xb8;" 
d="M332 -74l-101 -128l-49 25l84 130z" />
    <glyph glyph-name="hungarumlaut" unicode="&#x2dd;" 
d="M314 625l-133 -138l-36 23l105 146zM448 625l-133 -138l-37 23l106 146z" />
    <glyph glyph-name="ogonek" unicode="&#x2db;" 
d="M383 0h56q-72 -49 -72 -88q0 -15 11.5 -26t27.5 -11q23 0 51 14l-9 -55q-25 -14 -53 -14q-36 0 -61.5 23t-25.5 56q0 53 75 101z" />
    <glyph glyph-name="caron" unicode="&#x2c7;" 
d="M389 617l-138 -130l-139 130l51 39l88 -82l88 82z" />
    <glyph glyph-name="Lslash" unicode="&#x141;" horiz-adv-x="358" 
d="M162 394l113 80v-76l-113 -80v-249h183v-69h-258v285l-67 -46v75l67 47v306h75v-273z" />
    <glyph glyph-name="lslash" unicode="&#x142;" horiz-adv-x="207" 
d="M139 421l64 48v-76l-64 -48v-345h-71v312l-63 -47v76l63 47v341h71v-308z" />
    <glyph glyph-name="Scaron" unicode="&#x160;" horiz-adv-x="517" 
d="M443 574l-59 -38q-25 40 -50.5 56t-64.5 16q-47 0 -78.5 -29.5t-31.5 -73.5t42 -72q23 -16 115 -56q80 -35 115.5 -78t35.5 -106q0 -86 -61.5 -145.5t-150.5 -59.5q-79 0 -132.5 45t-72.5 127l72 20q11 -45 27 -68q38 -54 109 -54q56 0 95 38t39 93q0 60 -55 95
q-12 8 -118 58q-72 32 -103.5 70.5t-31.5 93.5q0 74 53.5 123t133.5 49q112 0 172 -104zM415 840l-139 -119l-141 119l53 41l88 -75l88 75z" />
    <glyph glyph-name="scaron" unicode="&#x161;" horiz-adv-x="350" 
d="M297 349l-59 -31q-22 41 -58 41q-20 0 -35 -13.5t-15 -32.5q0 -18 13.5 -30t53.5 -29q57 -24 79 -40q46 -34 46 -91t-41 -96t-101 -39q-104 0 -145 106l63 26q31 -67 83 -67q29 0 48.5 19t19.5 47q0 23 -14 37t-53 31q-72 31 -96 55.5t-24 65.5q0 50 34.5 83t86.5 33
q76 0 114 -75zM325 617l-137 -130l-139 130l51 39l88 -82l87 82z" />
    <glyph glyph-name="Zcaron" unicode="&#x17d;" horiz-adv-x="534" 
d="M147 69h354v-69h-478l364 598h-317v69h440zM430 840l-139 -119l-141 119l53 41l88 -75l87 75z" />
    <glyph glyph-name="zcaron" unicode="&#x17e;" horiz-adv-x="460" 
d="M152 66h286v-66h-430l301 349h-245v66h387zM394 617l-137 -130l-139 130l51 39l88 -82l87 82z" />
    <glyph glyph-name="brokenbar" unicode="&#xa6;" 
d="M213 667h75v-334h-75v334zM213 153h75v-320h-75v320z" />
    <glyph glyph-name="Eth" unicode="&#xd0;" horiz-adv-x="633" 
d="M88 0v326h-67v67h67v274h136q152 0 244 -77q115 -96 115 -257q0 -159 -117 -256q-93 -77 -243 -77h-135zM163 69h64q118 0 190 61q91 77 91 203q0 128 -90 204q-73 61 -191 61h-64v-205h159v-67h-159v-257z" />
    <glyph glyph-name="eth" unicode="&#xf0;" horiz-adv-x="521" 
d="M75 688l29 43q85 -22 157 -66l110 55l42 -40l-103 -53q80 -74 125 -181t45 -225q0 -103 -60.5 -168t-157.5 -65q-94 0 -157.5 62.5t-63.5 155.5q0 92 64 155.5t158 63.5q44 0 72.5 -13.5t59.5 -49.5q-13 61 -54 128.5t-88 106.5l-107 -56l-45 41l99 51q-51 33 -125 55z
M260 360q-62 0 -104 -43.5t-42 -107.5q0 -68 41 -112t104 -44q65 0 107 43t42 110t-41.5 110.5t-106.5 43.5z" />
    <glyph glyph-name="Yacute" unicode="&#xdd;" horiz-adv-x="528" 
d="M225 287l-218 380h86l170 -298l172 298h87l-222 -380v-287h-75v287zM412 837l-143 -117l-43 32l119 130z" />
    <glyph glyph-name="yacute" unicode="&#xfd;" horiz-adv-x="460" 
d="M199 39l-191 376h82l147 -297l134 297h81l-307 -649h-80zM379 623l-135 -136l-44 25l105 144z" />
    <glyph glyph-name="Thorn" unicode="&#xde;" horiz-adv-x="457" 
d="M162 199v-199h-75v667h75v-94h46q114 0 168 -46q62 -53 62 -141q0 -84 -54.5 -135.5t-156.5 -51.5h-65zM162 267h60q68 0 105.5 31t37.5 88q0 56 -36 87t-112 31h-55v-237z" />
    <glyph glyph-name="thorn" unicode="&#xfe;" horiz-adv-x="524" 
d="M139 -234h-71v963h71v-373q58 68 143 68q86 0 143 -62.5t57 -157.5q0 -93 -56.5 -154.5t-141.5 -61.5t-145 70v-292zM273 359q-61 0 -99.5 -43t-38.5 -111q0 -67 38.5 -109.5t99.5 -42.5q58 0 97 43t39 106q0 68 -38.5 112.5t-97.5 44.5z" />
    <glyph glyph-name="minus" unicode="&#x2212;" horiz-adv-x="567" 
d="M48 310v61h471v-61h-471z" />
    <glyph glyph-name="multiply" unicode="&#xd7;" horiz-adv-x="567" 
d="M87 495l42 42l155 -155l155 155l42 -42l-155 -155l155 -155l-42 -42l-155 155l-155 -155l-42 42l155 155z" />
    <glyph glyph-name="onesuperior" unicode="&#xb9;" horiz-adv-x="387" 
d="M179 620h-71l28 47h96v-400h-53v353z" />
    <glyph glyph-name="twosuperior" unicode="&#xb2;" horiz-adv-x="387" 
d="M150 314h169v-47h-278l156 171q71 78 71 115q0 31 -23 52t-57 21q-44 0 -66 -33q-10 -15 -14 -48h-53q5 48 22 73q38 55 111 55q56 0 94 -35t38 -86q0 -33 -17.5 -62t-73.5 -90z" />
    <glyph glyph-name="threesuperior" unicode="&#xb3;" horiz-adv-x="387" 
d="M172 454v45q34 0 51 9q31 16 31 55q0 27 -19 45t-49 18q-55 0 -67 -63h-52q7 42 20 63q30 47 99 47q52 0 86 -31t34 -78q0 -51 -48 -87q54 -35 54 -96q0 -52 -37.5 -86.5t-93.5 -34.5q-76 0 -111 57q-12 20 -16 58h51q5 -27 15 -40q22 -28 62 -28q33 0 55.5 22t22.5 54
q0 46 -39 63q-15 7 -49 8z" />
    <glyph glyph-name="onehalf" unicode="&#xbd;" horiz-adv-x="860" 
d="M165 620h-71l28 47h96v-400h-53v353zM604 680l39 -21l-388 -672l-39 23zM636 47h169v-47h-278l156 171q71 78 71 117q0 30 -23 51t-57 21q-44 0 -66 -33q-10 -15 -14 -48h-53q5 48 22 73q37 54 111 54q55 0 93.5 -34.5t38.5 -84.5q0 -33 -17.5 -62t-73.5 -91z" />
    <glyph glyph-name="onequarter" unicode="&#xbc;" horiz-adv-x="860" 
d="M165 620h-71l28 47h96v-400h-53v353zM604 680l39 -21l-388 -672l-39 23zM778 112h50v-47h-50v-65h-53v65h-215l268 364v-317zM725 112v164l-121 -164h121z" />
    <glyph glyph-name="threequarters" unicode="&#xbe;" horiz-adv-x="860" 
d="M159 454v45q34 0 51 9q31 16 31 55q0 27 -19 45t-49 18q-55 0 -67 -63h-52q7 42 20 63q30 47 99 47q52 0 86 -31t34 -78q0 -51 -48 -87q54 -35 54 -96q0 -52 -37.5 -86.5t-93.5 -34.5q-76 0 -111 57q-12 20 -16 58h51q5 -27 15 -40q22 -28 62 -28q33 0 55.5 22t22.5 54
q0 46 -39 63q-15 7 -49 8zM605 680l38 -21l-388 -672l-38 23zM778 112h50v-47h-50v-65h-53v65h-215l268 364v-317zM725 112v164l-121 -164h121z" />
    <glyph glyph-name="franc" unicode="&#x20a3;" horiz-adv-x="567" 
d="M405 598h-228v-199h221v-69h-221v-330h-75v667h303v-69zM369 294h60v-35q19 25 28 33q15 12 39 12q21 0 50 -15l-31 -52q-14 10 -28 10q-33 0 -49 -29q-9 -19 -9 -68v-150h-60v294z" />
    <glyph glyph-name="Gbreve" unicode="&#x11e;" horiz-adv-x="758" 
d="M430 335h278v-17q0 -106 -35 -169q-41 -73 -117 -117t-164 -44q-141 0 -241.5 101t-100.5 243q0 143 102 244.5t246 101.5q114 0 204 -68q37 -28 77 -77l-55 -50q-95 125 -225 125q-114 0 -194 -81t-80 -196q0 -111 79.5 -192t188.5 -81q62 0 119.5 31.5t88.5 82.5
q23 37 27 94h-198v69zM257 861h64q16 -67 74 -67q59 0 75 67h64q-7 -61 -43.5 -95.5t-95.5 -34.5q-71 0 -110 49q-24 30 -28 81z" />
    <glyph glyph-name="gbreve" unicode="&#x11f;" horiz-adv-x="525" 
d="M456 415v-406q0 -108 -40 -163q-56 -77 -165 -77q-90 0 -144.5 51t-57.5 139h70q4 -45 20 -70q35 -55 113 -55q133 0 133 163v61q-60 -69 -147 -69q-84 0 -140.5 62.5t-56.5 154.5q0 94 57.5 156.5t143.5 62.5q84 0 143 -69v59h71zM250 360q-59 0 -97.5 -43t-38.5 -110
t38 -110t97 -43q61 0 100 42.5t39 109.5q0 68 -38.5 111t-99.5 43zM131 633h62q6 -70 68 -70q59 0 70 70h62q-7 -60 -42.5 -95t-89.5 -35q-42 0 -77.5 24.5t-47.5 63.5q-4 16 -5 42z" />
    <glyph glyph-name="Scedilla" unicode="&#x15e;" horiz-adv-x="517" 
d="M443 574l-59 -38q-25 40 -50.5 56t-64.5 16q-47 0 -78.5 -29.5t-31.5 -73.5t42 -72q23 -16 115 -56q80 -35 115.5 -78t35.5 -106q0 -86 -61.5 -145.5t-150.5 -59.5q-79 0 -132.5 45t-72.5 127l72 20q11 -45 27 -68q38 -54 109 -54q56 0 95 38t39 93q0 60 -55 95
q-12 8 -118 58q-72 32 -103.5 70.5t-31.5 93.5q0 74 53.5 123t133.5 49q112 0 172 -104zM319 -79l-110 -130l-51 26l90 136z" />
    <glyph glyph-name="scedilla" unicode="&#x15f;" horiz-adv-x="350" 
d="M297 349l-59 -31q-22 41 -58 41q-20 0 -35 -13.5t-15 -32.5q0 -18 13.5 -30t53.5 -29q57 -24 79 -40q46 -34 46 -91t-41 -96t-101 -39q-104 0 -145 106l63 26q31 -67 83 -67q29 0 48.5 19t19.5 47q0 23 -14 37t-53 31q-72 31 -96 55.5t-24 65.5q0 50 34.5 83t86.5 33
q76 0 114 -75zM227 -74l-100 -128l-50 25l84 130z" />
    <glyph glyph-name="Cacute" unicode="&#x106;" horiz-adv-x="646" 
d="M596 612v-92q-94 88 -202 88q-110 0 -189.5 -82t-79.5 -196q0 -112 79.5 -192t190.5 -80q108 0 201 87v-92q-95 -65 -201 -65q-141 0 -243 101.5t-102 241.5q0 143 102.5 245t246.5 102q103 0 197 -66zM537 846l-146 -122l-36 28l119 130z" />
    <glyph glyph-name="cacute" unicode="&#x107;" horiz-adv-x="435" 
d="M391 385v-94q-61 68 -131 68q-62 0 -104 -44.5t-42 -108.5q0 -65 41.5 -109t103.5 -44q71 0 135 72v-94q-69 -43 -133 -43q-93 0 -156.5 62.5t-63.5 154.5t63.5 155.5t157.5 63.5q69 0 129 -39zM395 625l-132 -138l-37 23l105 146z" />
    <glyph glyph-name="Ccaron" unicode="&#x10c;" horiz-adv-x="646" 
d="M596 612v-92q-94 88 -202 88q-110 0 -189.5 -82t-79.5 -196q0 -112 79.5 -192t190.5 -80q108 0 201 87v-92q-95 -65 -201 -65q-141 0 -243 101.5t-102 241.5q0 143 102.5 245t246.5 102q103 0 197 -66zM541 840l-139 -119l-141 119l53 41l88 -75l87 75z" />
    <glyph glyph-name="ccaron" unicode="&#x10d;" horiz-adv-x="435" 
d="M391 385v-94q-61 68 -131 68q-62 0 -104 -44.5t-42 -108.5q0 -65 41.5 -109t103.5 -44q71 0 135 72v-94q-69 -43 -133 -43q-93 0 -156.5 62.5t-63.5 154.5t63.5 155.5t157.5 63.5q69 0 129 -39zM403 617l-138 -130l-139 130l51 39l88 -82l88 82z" />
    <glyph glyph-name="sfthyphen" unicode="&#xad;" horiz-adv-x="181" 
d="M0 245h181v-64h-181v64z" />
    <glyph glyph-name="overscore.001" unicode="&#xaf;" 
d="M0 864h500v-68h-500v68z" />
    <glyph glyph-name="mu1" unicode="&#xb5;" horiz-adv-x="465" 
d="M139 -234h-71v649h71v-253q0 -109 94 -109q57 0 80 43q13 24 13 77v242h71v-250q0 -83 -38 -125q-47 -52 -124 -52q-57 0 -99 31z" />
    <glyph glyph-name="mu1" unicode="&#x3bc;" horiz-adv-x="465" 
d="M139 -234h-71v649h71v-253q0 -109 94 -109q57 0 80 43q13 24 13 77v242h71v-250q0 -83 -38 -125q-47 -52 -124 -52q-57 0 -99 31z" />
    <glyph glyph-name="middot.001" unicode="&#xb7;" horiz-adv-x="225" 
d="M112 263q21 0 35.5 -14.5t14.5 -34.5q0 -21 -14.5 -35.5t-34.5 -14.5q-21 0 -35.5 14.5t-14.5 35.5q0 20 14.5 34.5t34.5 14.5z" />
    <glyph glyph-name="Amacron" unicode="&#x100;" horiz-adv-x="620" 
d="M453 189h-285l-80 -189h-81l307 699l300 -699h-82zM424 258l-111 267l-114 -267h225zM170 824h293v-62h-293v62z" />
    <glyph glyph-name="amacron" unicode="&#x101;" horiz-adv-x="524" 
d="M385 415h71v-415h-71v58q-58 -70 -143 -70q-86 0 -143 62.5t-57 158.5q0 94 56 155t142 61t145 -69v59zM252 360q-58 0 -97.5 -43t-39.5 -107q0 -68 38.5 -112.5t97.5 -44.5q61 0 100 43.5t39 111.5q0 67 -38.5 109.5t-99.5 42.5zM134 587h269v-60h-269v60z" />
    <glyph glyph-name="Abreve" unicode="&#x102;" horiz-adv-x="620" 
d="M453 189h-285l-80 -189h-81l307 699l300 -699h-82zM424 258l-111 267l-114 -267h225zM178 861h64q16 -67 74 -67q59 0 75 67h64q-7 -61 -43.5 -95.5t-95.5 -34.5q-71 0 -110 49q-24 30 -28 81z" />
    <glyph glyph-name="abreve" unicode="&#x103;" horiz-adv-x="524" 
d="M385 415h71v-415h-71v58q-58 -70 -143 -70q-86 0 -143 62.5t-57 158.5q0 94 56 155t142 61t145 -69v59zM252 360q-58 0 -97.5 -43t-39.5 -107q0 -68 38.5 -112.5t97.5 -44.5q61 0 100 43.5t39 111.5q0 67 -38.5 109.5t-99.5 42.5zM141 633h62q6 -70 68 -70q59 0 71 70h61
q-7 -60 -42.5 -95t-89.5 -35q-42 0 -77.5 24.5t-47.5 63.5q-4 16 -5 42z" />
    <glyph glyph-name="Aogonek" unicode="&#x104;" horiz-adv-x="620" 
d="M614 0h-14q-5 -4 -19 -14q-56 -39 -56 -75q0 -17 11.5 -28t28.5 -11q25 0 54 16l-7 -61q-24 -16 -58 -16q-41 0 -68.5 25t-27.5 62q0 43 44 80l30 22l-79 189h-285l-80 -189h-81l307 699zM424 258l-111 267l-114 -267h225z" />
    <glyph glyph-name="aogonek" unicode="&#x105;" horiz-adv-x="524" 
d="M456 0h-15q-72 -49 -72 -88q0 -15 11.5 -26t27.5 -11q23 0 51 14l-9 -55q-25 -14 -53 -14q-36 0 -61.5 23t-25.5 56q0 53 75 101v58q-58 -70 -143 -70q-86 0 -143 62.5t-57 158.5q0 94 56 155t142 61t145 -69v59h71v-415zM252 360q-58 0 -97.5 -43t-39.5 -107
q0 -68 38.5 -112.5t97.5 -44.5q61 0 100 43.5t39 111.5q0 67 -38.5 109.5t-99.5 42.5z" />
    <glyph glyph-name="Ccircumflex" unicode="&#x108;" horiz-adv-x="646" 
d="M596 612v-92q-94 88 -202 88q-110 0 -189.5 -82t-79.5 -196q0 -112 79.5 -192t190.5 -80q108 0 201 87v-92q-95 -65 -201 -65q-141 0 -243 101.5t-102 241.5q0 143 102.5 245t246.5 102q103 0 197 -66zM261 762l140 119l140 -119l-53 -41l-87 76l-88 -76z" />
    <glyph glyph-name="Cdotaccent" unicode="&#x10a;" horiz-adv-x="646" 
d="M596 612v-92q-94 88 -202 88q-110 0 -189.5 -82t-79.5 -196q0 -112 79.5 -192t190.5 -80q108 0 201 87v-92q-95 -65 -201 -65q-141 0 -243 101.5t-102 241.5q0 143 102.5 245t246.5 102q103 0 197 -66zM401 850q22 0 38 -15.5t16 -37.5t-15.5 -38t-37.5 -16t-38 16
t-16 38t16 37.5t37 15.5z" />
    <glyph glyph-name="cdotaccent" unicode="&#x10b;" horiz-adv-x="435" 
d="M391 385v-94q-61 68 -131 68q-62 0 -104 -44.5t-42 -108.5q0 -65 41.5 -109t103.5 -44q71 0 135 72v-94q-69 -43 -133 -43q-93 0 -156.5 62.5t-63.5 154.5t63.5 155.5t157.5 63.5q69 0 129 -39zM261 610q21 0 36 -15t15 -36t-15 -36t-36 -15t-36 15t-15 37q0 20 15 35
t36 15z" />
    <glyph glyph-name="Dcaron" unicode="&#x10e;" horiz-adv-x="633" 
d="M87 0v667h137q153 0 245 -77q115 -97 115 -256q0 -160 -117 -257q-93 -77 -244 -77h-136zM162 69h65q119 0 191 61q91 77 91 203q0 128 -90 204q-73 61 -192 61h-65v-529zM427 840l-139 -119l-141 119l53 41l88 -75l87 75z" />
    <glyph glyph-name="dcaron" unicode="&#x10f;" horiz-adv-x="618" 
d="M385 729h71v-729h-71v57q-57 -69 -144 -69q-86 0 -142.5 62.5t-56.5 157.5q0 94 56 155t142 61t145 -68v373zM252 359q-58 0 -97.5 -43t-39.5 -106q0 -68 38.5 -112.5t97.5 -44.5q61 0 100 43.5t39 111.5q0 67 -38.5 109t-99.5 42zM549 733l69 -21l-65 -154l-51 16z" />
    <glyph glyph-name="Dcroat" unicode="&#x110;" horiz-adv-x="633" 
d="M88 0v326h-67v67h67v274h136q152 0 244 -77q115 -96 115 -257q0 -159 -117 -256q-93 -77 -243 -77h-135zM163 69h64q118 0 190 61q91 77 91 203q0 128 -90 204q-73 61 -191 61h-64v-205h159v-67h-159v-257z" />
    <glyph glyph-name="dcroat" unicode="&#x111;" horiz-adv-x="524" 
d="M385 729h71v-93h60v-63h-60v-573h-71v57q-57 -69 -145 -69q-86 0 -142.5 62.5t-56.5 157.5q0 94 56 155t142 61q87 0 146 -68v217h-121v63h121v93zM251 359q-58 0 -97.5 -43t-39.5 -106q0 -68 38.5 -112.5t97.5 -44.5q62 0 101 43.5t39 111.5q0 67 -39 109t-100 42z" />
    <glyph glyph-name="Emacron" unicode="&#x112;" horiz-adv-x="482" 
d="M432 598h-270v-199h263v-69h-263v-261h270v-69h-345v667h345v-69zM116 824h294v-62h-294v62z" />
    <glyph glyph-name="emacron" unicode="&#x113;" horiz-adv-x="481" 
d="M440 193h-324q3 -64 39.5 -102t92.5 -38q41 0 69.5 19.5t58.5 67.5l60 -34q-67 -118 -191 -118q-90 0 -147 60.5t-57 156.5q0 97 56 158t145 61t143.5 -60t54.5 -159v-12zM121 253h244q-10 49 -43 78t-79 29q-45 0 -79.5 -30t-42.5 -77zM113 587h268v-60h-268v60z" />
    <glyph glyph-name="Ebreve" unicode="&#x114;" horiz-adv-x="482" 
d="M432 598h-270v-199h263v-69h-263v-261h270v-69h-345v667h345v-69zM125 861h63q17 -67 74 -67q60 0 76 67h64q-7 -61 -44 -95.5t-95 -34.5q-71 0 -110 49q-24 30 -28 81z" />
    <glyph glyph-name="ebreve" unicode="&#x115;" horiz-adv-x="481" 
d="M440 193h-324q3 -64 39.5 -102t92.5 -38q41 0 69.5 19.5t58.5 67.5l60 -34q-67 -118 -191 -118q-90 0 -147 60.5t-57 156.5q0 97 56 158t145 61t143.5 -60t54.5 -159v-12zM121 253h244q-10 49 -43 78t-79 29q-45 0 -79.5 -30t-42.5 -77zM118 633h61q6 -70 68 -70
q60 0 71 70h62q-7 -60 -42.5 -95t-89.5 -35q-65 0 -104 49q-25 31 -26 81z" />
    <glyph glyph-name="Edotaccent" unicode="&#x116;" horiz-adv-x="482" 
d="M432 598h-270v-199h263v-69h-263v-261h270v-69h-345v667h345v-69zM266 850q22 0 38 -15.5t16 -37.5t-15.5 -38t-37.5 -16t-38 16t-16 38t16 37.5t37 15.5z" />
    <glyph glyph-name="edotaccent" unicode="&#x117;" horiz-adv-x="481" 
d="M440 193h-324q3 -64 39.5 -102t92.5 -38q41 0 69.5 19.5t58.5 67.5l60 -34q-67 -118 -191 -118q-90 0 -147 60.5t-57 156.5q0 97 56 158t145 61t143.5 -60t54.5 -159v-12zM121 253h244q-10 49 -43 78t-79 29q-45 0 -79.5 -30t-42.5 -77zM244 610q21 0 36 -15t15 -36
t-15 -36t-36 -15t-36 15t-15 37q0 20 15 35t36 15z" />
    <glyph glyph-name="Eogonek" unicode="&#x118;" horiz-adv-x="482" 
d="M432 0h-24q-5 -4 -19 -14q-56 -40 -56 -75q0 -16 11.5 -27.5t28.5 -11.5q25 0 54 16l-7 -61q-24 -16 -59 -16q-40 0 -67.5 25t-27.5 62q0 43 44 80l30 22h-253v667h345v-69h-270v-199h263v-69h-263v-261h270v-69z" />
    <glyph glyph-name="eogonek" unicode="&#x119;" horiz-adv-x="481" 
d="M376 140l60 -34q-28 -51 -76 -85q-82 -58 -82 -108q0 -16 11.5 -27t27.5 -11q23 0 51 14l-9 -55q-25 -14 -53 -14q-37 0 -62 23t-25 57q0 42 45 89q-13 -1 -21 -1q-88 0 -145 61t-57 156q0 97 56 158t145 61t143.5 -60t54.5 -159v-12h-324q3 -64 39.5 -102t92.5 -38
q41 0 69.5 19.5t58.5 67.5zM121 253h244q-10 49 -43 78t-79 29q-45 0 -79.5 -30t-42.5 -77z" />
    <glyph glyph-name="Ecaron" unicode="&#x11a;" horiz-adv-x="482" 
d="M432 598h-270v-199h263v-69h-263v-261h270v-69h-345v667h345v-69zM406 840l-139 -119l-141 119l53 41l88 -75l87 75z" />
    <glyph glyph-name="ecaron" unicode="&#x11b;" horiz-adv-x="481" 
d="M440 193h-324q3 -64 39.5 -102t92.5 -38q41 0 69.5 19.5t58.5 67.5l60 -34q-67 -118 -191 -118q-90 0 -147 60.5t-57 156.5q0 97 56 158t145 61t143.5 -60t54.5 -159v-12zM121 253h244q-10 49 -43 78t-79 29q-45 0 -79.5 -30t-42.5 -77zM386 617l-138 -130l-139 130
l51 39l88 -82l88 82z" />
    <glyph glyph-name="Gcircumflex" unicode="&#x11c;" horiz-adv-x="758" 
d="M430 335h278v-17q0 -106 -35 -169q-41 -73 -117 -117t-164 -44q-141 0 -241.5 101t-100.5 243q0 143 102 244.5t246 101.5q114 0 204 -68q37 -28 77 -77l-55 -50q-95 125 -225 125q-114 0 -194 -81t-80 -196q0 -111 79.5 -192t188.5 -81q62 0 119.5 31.5t88.5 82.5
q23 37 27 94h-198v69zM256 762l139 119l140 -119l-52 -41l-88 76l-88 -76z" />
    <glyph glyph-name="gcircumflex" unicode="&#x11d;" horiz-adv-x="525" 
d="M456 415v-406q0 -108 -40 -163q-56 -77 -165 -77q-90 0 -144.5 51t-57.5 139h70q4 -45 20 -70q35 -55 113 -55q133 0 133 163v61q-60 -69 -147 -69q-84 0 -140.5 62.5t-56.5 154.5q0 94 57.5 156.5t143.5 62.5q84 0 143 -69v59h71zM250 360q-59 0 -97.5 -43t-38.5 -110
t38 -110t97 -43q61 0 100 42.5t39 109.5q0 68 -38.5 111t-99.5 43zM107 526l138 130l139 -130l-52 -39l-87 83l-88 -83z" />
    <glyph glyph-name="Gdotaccent" unicode="&#x120;" horiz-adv-x="758" 
d="M430 335h278v-17q0 -106 -35 -169q-41 -73 -117 -117t-164 -44q-141 0 -241.5 101t-100.5 243q0 143 102 244.5t246 101.5q114 0 204 -68q37 -28 77 -77l-55 -50q-95 125 -225 125q-114 0 -194 -81t-80 -196q0 -111 79.5 -192t188.5 -81q62 0 119.5 31.5t88.5 82.5
q23 37 27 94h-198v69zM405 850q22 0 38 -15.5t16 -37.5t-15.5 -38t-37.5 -16t-38 16t-16 38t16 37.5t37 15.5z" />
    <glyph glyph-name="gdotaccent" unicode="&#x121;" horiz-adv-x="525" 
d="M456 415v-406q0 -108 -40 -163q-56 -77 -165 -77q-90 0 -144.5 51t-57.5 139h70q4 -45 20 -70q35 -55 113 -55q133 0 133 163v61q-60 -69 -147 -69q-84 0 -140.5 62.5t-56.5 154.5q0 94 57.5 156.5t143.5 62.5q84 0 143 -69v59h71zM250 360q-59 0 -97.5 -43t-38.5 -110
t38 -110t97 -43q61 0 100 42.5t39 109.5q0 68 -38.5 111t-99.5 43zM265 610q21 0 36 -15t15 -36t-15 -36t-36 -15t-36 15t-15 37q0 20 15 35t36 15z" />
    <glyph glyph-name="Gcommaaccent" unicode="&#x122;" horiz-adv-x="758" 
d="M430 335h278v-17q0 -106 -35 -169q-41 -73 -117 -117t-164 -44q-141 0 -241.5 101t-100.5 243q0 143 102 244.5t246 101.5q114 0 204 -68q37 -28 77 -77l-55 -50q-95 125 -225 125q-114 0 -194 -81t-80 -196q0 -111 79.5 -192t188.5 -81q62 0 119.5 31.5t88.5 82.5
q23 37 27 94h-198v69zM356 -53l76 -24l-79 -152l-51 16z" />
    <glyph glyph-name="gcommaaccent" unicode="&#x123;" horiz-adv-x="525" 
d="M456 415v-406q0 -108 -40 -163q-56 -77 -165 -77q-90 0 -144.5 51t-57.5 139h70q4 -45 20 -70q35 -55 113 -55q133 0 133 163v61q-60 -69 -147 -69q-84 0 -140.5 62.5t-56.5 154.5q0 94 57.5 156.5t143.5 62.5q84 0 143 -69v59h71zM250 360q-59 0 -97.5 -43t-38.5 -110
t38 -110t97 -43q61 0 100 42.5t39 109.5q0 68 -38.5 111t-99.5 43zM286 489l-69 21l65 153l51 -16z" />
    <glyph glyph-name="Hcircumflex" unicode="&#x124;" horiz-adv-x="663" 
d="M162 395h340v272h75v-667h-75v326h-340v-326h-75v667h75v-272zM199 762l139 119l141 -119l-53 -41l-88 76l-88 -76z" />
    <glyph glyph-name="Hbar" unicode="&#x126;" horiz-adv-x="663" 
d="M502 667h75v-101h66v-67h-66v-499h-75v326h-340v-326h-75v499h-67v67h67v101h75v-101h340v101zM502 499h-340v-104h340v104z" />
    <glyph glyph-name="hbar" unicode="&#x127;" horiz-adv-x="469" 
d="M259 636v-63h-120v-207q48 58 119 58q80 0 119 -57q24 -35 24 -110v-257h-71v252q0 57 -20 82t-66 25q-64 0 -88 -49q-17 -35 -17 -103v-207h-71v573h-60v63h60v93h71v-93h120z" />
    <glyph glyph-name="Imacron" unicode="&#x12a;" horiz-adv-x="248" 
d="M162 667v-667h-75v667h75zM21 824h213v-62h-213v62z" />
    <glyph glyph-name="imacron" unicode="&#x12b;" horiz-adv-x="208" 
d="M140 415v-415h-71v415h71zM0 587h215v-60h-215v60z" />
    <glyph glyph-name="ibreve" unicode="&#x12d;" horiz-adv-x="208" 
d="M139 415v-415h-71v415h71zM-6 630h60q2 -66 55 -66q52 0 58 66h60q-4 -48 -26 -77q-37 -48 -92 -48q-36 0 -67.5 22t-42.5 57q-5 15 -5 46z" />
    <glyph glyph-name="Iogonek" unicode="&#x12e;" horiz-adv-x="248" 
d="M161 0h-5q-6 -5 -19 -14q-57 -39 -57 -75q0 -16 11.5 -27.5t28.5 -11.5q27 0 55 17l-7 -62q-24 -16 -59 -16q-41 0 -68.5 25.5t-27.5 62.5q0 42 44 79l30 22h-1v667h75v-667z" />
    <glyph glyph-name="iogonek" unicode="&#x12f;" horiz-adv-x="208" 
d="M139 0h-6q-73 -48 -73 -88q0 -15 11.5 -26t27.5 -11q23 0 51 14l-9 -55q-25 -14 -53 -14q-36 0 -61.5 23t-25.5 56q0 54 75 101h-8v415h71v-415zM104 623q21 0 36 -15t15 -36t-15 -36t-36 -15t-36 15t-15 37q0 20 15 35t36 15z" />
    <glyph glyph-name="Idotaccent" unicode="&#x130;" horiz-adv-x="248" 
d="M162 667v-667h-75v667h75zM127 850q22 0 38 -15.5t16 -37.5t-15.5 -38t-37.5 -16t-38 16t-16 38t16 37.5t37 15.5z" />
    <glyph glyph-name="IJ" unicode="&#x132;" horiz-adv-x="548" 
d="M162 667v-667h-75v667h75zM462 667v-539q0 -111 -47 -156q-42 -41 -100 -41t-120 49l41 58q42 -37 77 -37q74 0 74 127v539h75z" />
    <glyph glyph-name="ij" unicode="&#x133;" horiz-adv-x="409" 
d="M139 415v-415h-71v415h71zM104 623q21 0 36 -15t15 -36t-15 -36t-36 -15t-36 15t-15 37q0 20 15 35t36 15zM341 415v-649h-71v649h71zM305 623q21 0 36 -15t15 -36t-15 -36t-36 -15t-36 15t-15 37q0 20 15 35t36 15z" />
    <glyph glyph-name="Kcommaaccent" unicode="&#x136;" horiz-adv-x="569" 
d="M162 381l284 286h100l-313 -311l323 -356h-102l-273 306l-19 -19v-287h-75v667h75v-286zM249 -53l76 -24l-79 -152l-51 16z" />
    <glyph glyph-name="kcommaaccent" unicode="&#x137;" horiz-adv-x="421" 
d="M139 729v-467l150 153h95l-177 -177l211 -238h-94l-167 189l-18 -18v-171h-71v729h71zM178 -53l69 -21l-65 -154l-51 16z" />
    <glyph glyph-name="kgreenlandic" unicode="&#x138;" horiz-adv-x="421" 
d="M139 415v-153l150 153h95l-177 -177l211 -238h-94l-167 189l-18 -18v-171h-71v415h71z" />
    <glyph glyph-name="Lacute" unicode="&#x139;" horiz-adv-x="358" 
d="M162 667v-598h183v-69h-258v667h75zM293 846l-146 -122l-36 28l119 130z" />
    <glyph glyph-name="lacute" unicode="&#x13a;" horiz-adv-x="207" 
d="M139 729v-729h-71v729h71zM256 875l-146 -122l-36 28l118 130z" />
    <glyph glyph-name="Lcommaaccent" unicode="&#x13b;" horiz-adv-x="358" 
d="M162 667v-598h183v-69h-258v667h75zM178 -53l76 -24l-79 -152l-51 16z" />
    <glyph glyph-name="lcommaaccent" unicode="&#x13c;" horiz-adv-x="207" 
d="M139 729v-729h-71v729h71zM69 -53l69 -21l-65 -154l-51 16z" />
    <glyph glyph-name="Lcaron" unicode="&#x13d;" horiz-adv-x="358" 
d="M162 667v-598h183v-69h-258v667h75zM268 670l76 -24l-78 -152l-51 17z" />
    <glyph glyph-name="lcaron" unicode="&#x13e;" horiz-adv-x="302" 
d="M139 729v-729h-71v729h71zM233 733l69 -21l-65 -154l-51 16z" />
    <glyph glyph-name="Ldot" unicode="&#x13f;" horiz-adv-x="358" 
d="M162 667v-598h183v-69h-258v667h75zM299 404q26 0 45 -19t19 -45t-19 -45t-45 -19t-45 19t-19 46q0 26 19 44.5t45 18.5z" />
    <glyph glyph-name="ldot" unicode="&#x140;" horiz-adv-x="335" 
d="M139 729v-729h-71v729h71zM271 428q26 0 45 -19t19 -45t-19 -45t-45 -19t-45 19t-19 46q0 26 19 44.5t45 18.5z" />
    <glyph glyph-name="Ncommaaccent" unicode="&#x145;" horiz-adv-x="767" 
d="M87 0v695l519 -545v517h75v-697l-519 544v-514h-75zM345 -53l76 -24l-79 -152l-51 16z" />
    <glyph glyph-name="ncommaaccent" unicode="&#x146;" horiz-adv-x="469" 
d="M68 415h71v-50q49 60 120 60q83 0 119 -57q23 -36 23 -111v-257h-71v245q0 59 -14 81q-21 34 -74 34q-54 0 -78.5 -36.5t-24.5 -116.5v-207h-71v415zM198 -53l69 -21l-65 -154l-51 16z" />
    <glyph glyph-name="Ncaron" unicode="&#x147;" horiz-adv-x="767" 
d="M87 0v695l519 -545v517h75v-697l-519 544v-514h-75zM541 840l-139 -119l-141 119l53 41l88 -75l87 75z" />
    <glyph glyph-name="ncaron" unicode="&#x148;" horiz-adv-x="469" 
d="M68 415h71v-50q49 60 120 60q83 0 119 -57q23 -36 23 -111v-257h-71v245q0 59 -14 81q-21 34 -74 34q-54 0 -78.5 -36.5t-24.5 -116.5v-207h-71v415zM376 617l-138 -130l-139 130l51 39l88 -82l88 82z" />
    <glyph glyph-name="napostrophe" unicode="&#x149;" horiz-adv-x="597" 
d="M140 700l65 -24l-100 -225l-48 19zM197 415h71v-50q49 60 119 60q83 0 119 -57q23 -36 23 -111v-257h-71v245q0 59 -14 81q-21 34 -73 34q-54 0 -78.5 -36.5t-24.5 -116.5v-207h-71v415z" />
    <glyph glyph-name="Eng" unicode="&#x14a;" horiz-adv-x="663" 
d="M87 667h75v-86q43 53 86 75t104 22q60 0 110.5 -24.5t77.5 -66.5q37 -58 37 -178v-239q0 -118 -38 -168q-53 -71 -156 -71q-37 0 -83 14v72q45 -16 80 -16q68 0 97 32q25 28 25 122v268q0 93 -25 130q-39 55 -133 55q-110 0 -152 -79q-30 -57 -30 -167v-362h-75v667z" />
    <glyph glyph-name="eng" unicode="&#x14b;" horiz-adv-x="469" 
d="M68 415h71v-50q49 60 120 60q83 0 119 -57q23 -36 23 -111v-177q0 -74 -24 -105q-34 -44 -99 -44q-22 0 -53 8v72q28 -9 48 -9q34 0 45.5 19t11.5 75v149q0 59 -14 81q-21 34 -74 34q-54 0 -78.5 -36.5t-24.5 -116.5v-207h-71v415z" />
    <glyph glyph-name="Omacron" unicode="&#x14c;" horiz-adv-x="794" 
d="M398 678q142 0 244 -101.5t102 -243.5q0 -143 -102.5 -244t-247.5 -101q-71 0 -140 31t-118 86q-86 96 -86 232q0 138 103.5 239.5t244.5 101.5zM397 608q-112 0 -192 -80t-80 -191q0 -123 85 -203q81 -76 185 -76q114 0 194 80t80 195q0 114 -79.5 194.5t-192.5 80.5z
M254 824h293v-62h-293v62z" />
    <glyph glyph-name="omacron" unicode="&#x14d;" horiz-adv-x="521" 
d="M261 424q92 0 155.5 -63t63.5 -155t-63.5 -155t-157.5 -63q-92 0 -155 64t-63 158q0 88 64.5 151t155.5 63zM260 359q-62 0 -104 -43.5t-42 -107.5q0 -68 40.5 -111.5t104.5 -43.5q65 0 106.5 43t41.5 110t-41.5 110t-105.5 43zM129 587h269v-60h-269v60z" />
    <glyph glyph-name="Ohungarumlaut" unicode="&#x150;" horiz-adv-x="794" 
d="M398 678q142 0 244 -101.5t102 -243.5q0 -143 -102.5 -244t-247.5 -101q-71 0 -140 31t-118 86q-86 96 -86 232q0 138 103.5 239.5t244.5 101.5zM397 608q-112 0 -192 -80t-80 -191q0 -123 85 -203q81 -76 185 -76q114 0 194 80t80 195q0 114 -79.5 194.5t-192.5 80.5z
M479 846l-146 -122l-36 28l118 130zM646 846l-147 -122l-35 28l118 130z" />
    <glyph glyph-name="ohungarumlaut" unicode="&#x151;" horiz-adv-x="521" 
d="M261 424q92 0 155.5 -63t63.5 -155t-63.5 -155t-157.5 -63q-92 0 -155 64t-63 158q0 88 64.5 151t155.5 63zM260 359q-62 0 -104 -43.5t-42 -107.5q0 -68 40.5 -111.5t104.5 -43.5q65 0 106.5 43t41.5 110t-41.5 110t-105.5 43zM348 625l-133 -138l-36 23l105 146z
M481 625l-132 -138l-37 23l105 146z" />
    <glyph glyph-name="Rcommaaccent" unicode="&#x156;" horiz-adv-x="502" 
d="M261 298l212 -298h-91l-201 292h-19v-292h-75v667h108q107 0 160 -36q74 -50 74 -151q0 -76 -46 -125.5t-122 -56.5zM162 358h47q147 0 147 122q0 66 -49 96q-36 22 -101 22h-44v-240zM216 -53l76 -24l-79 -152l-51 16z" />
    <glyph glyph-name="rcommaaccent" unicode="&#x157;" horiz-adv-x="295" 
d="M68 415h71v-45q28 33 46.5 44t47.5 11q31 0 63 -18l-33 -64q-23 14 -42 14q-46 0 -66 -38q-16 -30 -16 -100v-219h-71v415zM72 -53l69 -21l-65 -154l-51 16z" />
    <glyph glyph-name="Rcaron" unicode="&#x158;" horiz-adv-x="502" 
d="M261 298l212 -298h-91l-201 292h-19v-292h-75v667h108q107 0 160 -36q74 -50 74 -151q0 -76 -46 -125.5t-122 -56.5zM162 358h47q147 0 147 122q0 66 -49 96q-36 22 -101 22h-44v-240zM381 840l-139 -119l-140 119l52 41l88 -75l88 75z" />
    <glyph glyph-name="rcaron" unicode="&#x159;" horiz-adv-x="295" 
d="M68 415h71v-45q28 33 46.5 44t47.5 11q31 0 63 -18l-33 -64q-23 14 -42 14q-46 0 -66 -38q-16 -30 -16 -100v-219h-71v415zM301 617l-138 -130l-139 130l51 39l88 -82l88 82z" />
    <glyph glyph-name="Sacute" unicode="&#x15a;" horiz-adv-x="517" 
d="M443 574l-59 -38q-25 40 -50.5 56t-64.5 16q-47 0 -78.5 -29.5t-31.5 -73.5t42 -72q23 -16 115 -56q80 -35 115.5 -78t35.5 -106q0 -86 -61.5 -145.5t-150.5 -59.5q-79 0 -132.5 45t-72.5 127l72 20q11 -45 27 -68q38 -54 109 -54q56 0 95 38t39 93q0 60 -55 95
q-12 8 -118 58q-72 32 -103.5 70.5t-31.5 93.5q0 74 53.5 123t133.5 49q112 0 172 -104zM420 837l-143 -117l-43 32l119 130z" />
    <glyph glyph-name="sacute" unicode="&#x15b;" horiz-adv-x="350" 
d="M297 349l-59 -31q-22 41 -58 41q-20 0 -35 -13.5t-15 -32.5q0 -18 13.5 -30t53.5 -29q57 -24 79 -40q46 -34 46 -91t-41 -96t-101 -39q-104 0 -145 106l63 26q31 -67 83 -67q29 0 48.5 19t19.5 47q0 23 -14 37t-53 31q-72 31 -96 55.5t-24 65.5q0 50 34.5 83t86.5 33
q76 0 114 -75zM332 623l-135 -136l-45 25l106 144z" />
    <glyph glyph-name="Scircumflex" unicode="&#x15c;" horiz-adv-x="517" 
d="M443 574l-59 -38q-25 40 -50.5 56t-64.5 16q-47 0 -78.5 -29.5t-31.5 -73.5t42 -72q23 -16 115 -56q80 -35 115.5 -78t35.5 -106q0 -86 -61.5 -145.5t-150.5 -59.5q-79 0 -132.5 45t-72.5 127l72 20q11 -45 27 -68q38 -54 109 -54q56 0 95 38t39 93q0 60 -55 95
q-12 8 -118 58q-72 32 -103.5 70.5t-31.5 93.5q0 74 53.5 123t133.5 49q112 0 172 -104zM135 762l140 119l140 -119l-53 -41l-87 76l-88 -76z" />
    <glyph glyph-name="scircumflex" unicode="&#x15d;" horiz-adv-x="350" 
d="M297 349l-59 -31q-22 41 -58 41q-20 0 -35 -13.5t-15 -32.5q0 -18 13.5 -30t53.5 -29q57 -24 79 -40q46 -34 46 -91t-41 -96t-101 -39q-104 0 -145 106l63 26q31 -67 83 -67q29 0 48.5 19t19.5 47q0 23 -14 37t-53 31q-72 31 -96 55.5t-24 65.5q0 50 34.5 83t86.5 33
q76 0 114 -75zM49 526l137 130l139 -130l-51 -39l-88 83l-87 -83z" />
    <glyph glyph-name="Tcaron" unicode="&#x164;" horiz-adv-x="425" 
d="M249 598v-598h-75v598h-161v69h398v-69h-162zM355 840l-139 -119l-141 119l53 41l88 -75l88 75z" />
    <glyph glyph-name="tcaron" unicode="&#x165;" horiz-adv-x="214" 
d="M139 349v-349h-71v349h-43v66h43v150h71v-150h74v-66h-74zM230 726l-122 -119l-124 119l49 41l75 -76l74 76z" />
    <glyph glyph-name="Tbar" unicode="&#x166;" horiz-adv-x="425" 
d="M382 475v-67h-133v-408h-75v408h-133v67h133v123h-161v69h398v-69h-162v-123h133z" />
    <glyph glyph-name="tbar" unicode="&#x167;" horiz-adv-x="214" 
d="M213 289v-63h-74v-226h-71v226h-43v63h43v60h-43v66h43v150h71v-150h74v-66h-74v-60h74z" />
    <glyph glyph-name="utilde" unicode="&#x169;" horiz-adv-x="465" 
d="M139 415v-242q0 -53 13 -77q23 -43 80 -43q59 0 81 43q13 25 13 77v242h71v-250q0 -84 -38 -125q-48 -52 -127 -52q-78 0 -126 52q-38 41 -38 125v250h71zM143 506l-42 34q27 71 86 71q27 0 61 -20.5t48 -20.5q26 0 46 43l42 -32q-28 -73 -88 -73q-20 0 -57 21t-54 21
q-29 0 -42 -44z" />
    <glyph glyph-name="Umacron" unicode="&#x16a;" horiz-adv-x="649" 
d="M162 667v-409q0 -92 22 -128q19 -32 58.5 -52t81.5 -20q43 0 82.5 20t58.5 52q22 36 22 128v409h75v-429q0 -101 -44 -158q-71 -92 -193 -92q-57 0 -109 24.5t-85 67.5q-44 57 -44 158v429h75zM181 824h294v-62h-294v62z" />
    <glyph glyph-name="umacron" unicode="&#x16b;" horiz-adv-x="465" 
d="M139 415v-242q0 -53 13 -77q23 -43 80 -43q59 0 81 43q13 25 13 77v242h71v-250q0 -84 -38 -125q-48 -52 -127 -52q-78 0 -126 52q-38 41 -38 125v250h71zM105 587h269v-60h-269v60z" />
    <glyph glyph-name="ubreve" unicode="&#x16d;" horiz-adv-x="465" 
d="M139 415v-242q0 -53 13 -77q23 -43 80 -43q59 0 81 43q13 25 13 77v242h71v-250q0 -84 -38 -125q-48 -52 -127 -52q-78 0 -126 52q-38 41 -38 125v250h71zM112 633h61q6 -70 68 -70q59 0 71 70h62q-7 -60 -42.5 -95t-89.5 -35q-65 0 -104 49q-25 31 -26 81z" />
    <glyph glyph-name="Uring" unicode="&#x16e;" horiz-adv-x="649" 
d="M162 667v-409q0 -92 22 -128q19 -32 58.5 -52t81.5 -20q43 0 82.5 20t58.5 52q22 36 22 128v409h75v-429q0 -101 -44 -158q-71 -92 -193 -92q-57 0 -109 24.5t-85 67.5q-44 57 -44 158v429h75zM334 896q37 0 64 -26.5t27 -63.5t-26.5 -64t-63.5 -27q-38 0 -64.5 27
t-26.5 65q0 36 26.5 62.5t63.5 26.5zM335 847q-17 0 -29.5 -12t-12.5 -29t12.5 -29.5t29.5 -12.5t29 12.5t12 29.5t-12 29t-29 12z" />
    <glyph glyph-name="uring" unicode="&#x16f;" horiz-adv-x="465" 
d="M139 415v-242q0 -53 13 -77q23 -43 80 -43q59 0 81 43q13 25 13 77v242h71v-250q0 -84 -38 -125q-48 -52 -127 -52q-78 0 -126 52q-38 41 -38 125v250h71zM246 665q38 0 64.5 -26.5t26.5 -63.5t-26.5 -64t-64.5 -27t-64.5 27t-26.5 65q0 36 27 62.5t64 26.5zM246 616
q-17 0 -29.5 -12t-12.5 -29t12.5 -29.5t29.5 -12.5t29.5 12.5t12.5 29.5t-12.5 29t-29.5 12z" />
    <glyph glyph-name="Uhungarumlaut" unicode="&#x170;" horiz-adv-x="649" 
d="M162 667v-409q0 -92 22 -128q19 -32 58.5 -52t81.5 -20q43 0 82.5 20t58.5 52q22 36 22 128v409h75v-429q0 -101 -44 -158q-71 -92 -193 -92q-57 0 -109 24.5t-85 67.5q-44 57 -44 158v429h75zM403 846l-146 -122l-36 28l119 130zM570 846l-146 -122l-36 28l118 130z" />
    <glyph glyph-name="uhungarumlaut" unicode="&#x171;" horiz-adv-x="465" 
d="M139 415v-242q0 -53 13 -77q23 -43 80 -43q59 0 81 43q13 25 13 77v242h71v-250q0 -84 -38 -125q-48 -52 -127 -52q-78 0 -126 52q-38 41 -38 125v250h71zM314 625l-133 -138l-36 23l105 146zM447 625l-133 -138l-36 23l105 146z" />
    <glyph glyph-name="Uogonek" unicode="&#x172;" horiz-adv-x="649" 
d="M562 667v-429q0 -78 -24.5 -127t-80.5 -86q-33 -22 -47 -33q-49 -39 -49 -80q0 -40 40 -40q25 0 54 16l-7 -61q-24 -16 -58 -16q-40 0 -67.5 25t-27.5 63q0 50 44 89h-15q-122 0 -193 92q-44 57 -44 158v429h75v-409q0 -92 22 -128q19 -32 58.5 -52t81.5 -20
q43 0 82.5 20t58.5 52q22 36 22 128v409h75z" />
    <glyph glyph-name="uogonek" unicode="&#x173;" horiz-adv-x="465" 
d="M397 415v-250q0 -57 -15.5 -91t-52.5 -60q-70 -49 -70 -101q0 -16 11.5 -27t27.5 -11q23 0 51 14l-9 -55q-25 -14 -52 -14q-37 0 -62.5 23t-25.5 58q0 42 42 87h-11q-78 0 -125 52q-38 42 -38 125v250h71v-242q0 -53 13 -77q23 -43 80 -43q59 0 81 43q13 25 13 77v242h71
z" />
    <glyph glyph-name="Wcircumflex" unicode="&#x174;" horiz-adv-x="955" 
d="M88 667l178 -500l209 534l197 -534l196 500h81l-279 -701l-197 533l-210 -533l-256 701h81zM335 762l139 119l141 -119l-53 -41l-88 76l-88 -76z" />
    <glyph glyph-name="Ycircumflex" unicode="&#x176;" horiz-adv-x="528" 
d="M225 287l-218 380h86l170 -298l172 298h87l-222 -380v-287h-75v287zM128 762l139 119l140 -119l-52 -41l-88 76l-88 -76z" />
    <glyph glyph-name="ycircumflex" unicode="&#x177;" horiz-adv-x="460" 
d="M199 39l-191 376h82l147 -297l134 297h81l-307 -649h-80zM95 526l138 130l139 -130l-52 -39l-87 83l-88 -83z" />
    <glyph glyph-name="Zacute" unicode="&#x179;" horiz-adv-x="534" 
d="M147 69h354v-69h-478l364 598h-317v69h440zM441 846l-146 -122l-36 28l118 130z" />
    <glyph glyph-name="zacute" unicode="&#x17a;" horiz-adv-x="460" 
d="M152 66h286v-66h-430l301 349h-245v66h387zM398 625l-133 -138l-36 23l105 146z" />
    <glyph glyph-name="Zdotaccent" unicode="&#x17b;" horiz-adv-x="534" 
d="M147 69h354v-69h-478l364 598h-317v69h440zM296 850q22 0 38 -15.5t16 -37.5t-15.5 -38t-37.5 -16t-38 16t-16 38t16 37.5t37 15.5z" />
    <glyph glyph-name="zdotaccent" unicode="&#x17c;" horiz-adv-x="460" 
d="M152 66h286v-66h-430l301 349h-245v66h387zM263 610q21 0 36 -15t15 -36t-15 -36t-36 -15t-36 15t-15 37q0 20 15 35t36 15z" />
    <glyph glyph-name="Acaron" unicode="&#x1cd;" horiz-adv-x="620" 
d="M453 189h-285l-80 -189h-81l307 699l300 -699h-82zM424 258l-111 267l-114 -267h225zM452 840l-140 -119l-140 119l53 41l87 -75l88 75z" />
    <glyph glyph-name="acaron" unicode="&#x1ce;" horiz-adv-x="524" 
d="M385 415h71v-415h-71v58q-58 -70 -143 -70q-86 0 -143 62.5t-57 158.5q0 94 56 155t142 61t145 -69v59zM252 360q-58 0 -97.5 -43t-39.5 -107q0 -68 38.5 -112.5t97.5 -44.5q61 0 100 43.5t39 111.5q0 67 -38.5 109.5t-99.5 42.5zM400 617l-138 -130l-139 130l52 39
l87 -82l88 82z" />
    <glyph glyph-name="Ucaron" unicode="&#x1d3;" horiz-adv-x="649" 
d="M162 667v-409q0 -92 22 -128q19 -32 58.5 -52t81.5 -20q43 0 82.5 20t58.5 52q22 36 22 128v409h75v-429q0 -101 -44 -158q-71 -92 -193 -92q-57 0 -109 24.5t-85 67.5q-44 57 -44 158v429h75zM471 840l-139 -119l-141 119l53 41l88 -75l88 75z" />
    <glyph glyph-name="ucaron" unicode="&#x1d4;" horiz-adv-x="465" 
d="M139 415v-242q0 -53 13 -77q23 -43 80 -43q59 0 81 43q13 25 13 77v242h71v-250q0 -84 -38 -125q-48 -52 -127 -52q-78 0 -126 52q-38 41 -38 125v250h71zM378 617l-138 -130l-139 130l51 39l88 -82l88 82z" />
    <glyph glyph-name="Gcaron" unicode="&#x1e6;" horiz-adv-x="758" 
d="M430 335h278v-17q0 -106 -35 -169q-41 -73 -117 -117t-164 -44q-141 0 -241.5 101t-100.5 243q0 143 102 244.5t246 101.5q114 0 204 -68q37 -28 77 -77l-55 -50q-95 125 -225 125q-114 0 -194 -81t-80 -196q0 -111 79.5 -192t188.5 -81q62 0 119.5 31.5t88.5 82.5
q23 37 27 94h-198v69zM539 840l-139 -119l-141 119l53 41l88 -75l87 75z" />
    <glyph glyph-name="gcaron" unicode="&#x1e7;" horiz-adv-x="525" 
d="M456 415v-406q0 -108 -40 -163q-56 -77 -165 -77q-90 0 -144.5 51t-57.5 139h70q4 -45 20 -70q35 -55 113 -55q133 0 133 163v61q-60 -69 -147 -69q-84 0 -140.5 62.5t-56.5 154.5q0 94 57.5 156.5t143.5 62.5q84 0 143 -69v59h71zM250 360q-59 0 -97.5 -43t-38.5 -110
t38 -110t97 -43q61 0 100 42.5t39 109.5q0 68 -38.5 111t-99.5 43zM397 617l-138 -130l-139 130l52 39l87 -82l88 82z" />
    <glyph glyph-name="Gacute" unicode="&#x1f4;" horiz-adv-x="758" 
d="M430 335h278v-17q0 -106 -35 -169q-41 -73 -117 -117t-164 -44q-141 0 -241.5 101t-100.5 243q0 143 102 244.5t246 101.5q114 0 204 -68q37 -28 77 -77l-55 -50q-95 125 -225 125q-114 0 -194 -81t-80 -196q0 -111 79.5 -192t188.5 -81q62 0 119.5 31.5t88.5 82.5
q23 37 27 94h-198v69zM547 837l-143 -117l-43 32l119 130z" />
    <glyph glyph-name="Scommaaccent" unicode="&#x218;" horiz-adv-x="517" 
d="M443 574l-59 -38q-25 40 -50.5 56t-64.5 16q-47 0 -78.5 -29.5t-31.5 -73.5t42 -72q23 -16 115 -56q80 -35 115.5 -78t35.5 -106q0 -86 -61.5 -145.5t-150.5 -59.5q-79 0 -132.5 45t-72.5 127l72 20q11 -45 27 -68q38 -54 109 -54q56 0 95 38t39 93q0 60 -55 95
q-12 8 -118 58q-72 32 -103.5 70.5t-31.5 93.5q0 74 53.5 123t133.5 49q112 0 172 -104zM233 -53l75 -24l-78 -152l-51 16z" />
    <glyph glyph-name="scommaaccent" unicode="&#x219;" horiz-adv-x="350" 
d="M297 349l-59 -31q-22 41 -58 41q-20 0 -35 -13.5t-15 -32.5q0 -18 13.5 -30t53.5 -29q57 -24 79 -40q46 -34 46 -91t-41 -96t-101 -39q-104 0 -145 106l63 26q31 -67 83 -67q29 0 48.5 19t19.5 47q0 23 -14 37t-53 31q-72 31 -96 55.5t-24 65.5q0 50 34.5 83t86.5 33
q76 0 114 -75zM153 -53l69 -21l-65 -154l-51 16z" />
    <glyph glyph-name="Tcommaaccent" unicode="&#x162;" horiz-adv-x="425" 
d="M249 598v-598h-75v598h-161v69h398v-69h-162zM176 -53l76 -24l-79 -152l-51 16z" />
    <glyph glyph-name="tcommaaccent" unicode="&#x163;" horiz-adv-x="214" 
d="M140 349v-349h-71v349h-44v66h44v150h71v-150h73v-66h-73zM71 -53l69 -21l-65 -154l-51 16z" />
    <glyph glyph-name="Adotaccent" unicode="&#x226;" horiz-adv-x="620" 
d="M453 189h-285l-80 -189h-81l307 699l300 -699h-82zM424 258l-111 267l-114 -267h225zM310 850q22 0 38 -15.5t16 -37.5t-15.5 -38t-37.5 -16t-38 16t-16 38t16 37.5t37 15.5z" />
    <glyph glyph-name="adotaccent" unicode="&#x227;" horiz-adv-x="524" 
d="M385 415h71v-415h-71v58q-58 -70 -143 -70q-86 0 -143 62.5t-57 158.5q0 94 56 155t142 61t145 -69v59zM252 360q-58 0 -97.5 -43t-39.5 -107q0 -68 38.5 -112.5t97.5 -44.5q61 0 100 43.5t39 111.5q0 67 -38.5 109.5t-99.5 42.5zM252 610q21 0 36 -15t15 -36t-15 -36
t-36 -15t-36 15t-15 37q0 20 15 35t36 15z" />
    <glyph glyph-name="commabelow" unicode="&#x326;" 
d="M222 -53l69 -21l-65 -154l-51 16z" />
    <glyph glyph-name="Dcommaaccent" unicode="&#x1e10;" horiz-adv-x="633" 
d="M87 0v667h137q153 0 245 -77q115 -97 115 -256q0 -160 -117 -257q-93 -77 -244 -77h-136zM162 69h65q119 0 191 61q91 77 91 203q0 128 -90 204q-73 61 -192 61h-65v-529zM252 -53l76 -24l-79 -152l-51 16z" />
    <glyph glyph-name="dcommaaccent" unicode="&#x1e11;" horiz-adv-x="524" 
d="M385 729h71v-729h-71v57q-57 -69 -144 -69q-86 0 -142.5 62.5t-56.5 157.5q0 94 56 155t142 61t145 -68v373zM252 359q-58 0 -97.5 -43t-39.5 -106q0 -68 38.5 -112.5t97.5 -44.5q61 0 100 43.5t39 111.5q0 67 -38.5 109t-99.5 42zM221 -53l69 -21l-65 -154l-51 16z" />
    <glyph glyph-name="Fdotaccent" unicode="&#x1e1e;" horiz-adv-x="433" 
d="M390 598h-228v-199h221v-69h-221v-330h-75v667h303v-69zM241 850q22 0 38 -15.5t16 -37.5t-15.5 -38t-37.5 -16t-38 16t-16 38t16 37.5t37 15.5z" />
    <glyph glyph-name="Wdieresis" unicode="&#x1e84;" horiz-adv-x="955" 
d="M88 667l178 -500l209 534l197 -534l196 500h81l-279 -701l-197 533l-210 -533l-256 701h81zM380 849q21 0 36 -15t15 -36t-15 -36t-36 -15t-36 15t-15 37q0 20 15 35t36 15zM570 849q21 0 36 -15t15 -36t-15 -36t-36 -15t-36 15t-15 37q0 20 15 35t36 15z" />
    <glyph glyph-name="enquad" unicode="&#x2000;" 
 />
    <glyph glyph-name="enspace" unicode="&#x2002;" 
 />
    <glyph glyph-name="threeperemspace" unicode="&#x2004;" horiz-adv-x="333" 
 />
    <glyph glyph-name="fourperemspace" unicode="&#x2005;" horiz-adv-x="250" 
 />
    <glyph glyph-name="figurespace" unicode="&#x2007;" horiz-adv-x="556" 
 />
    <glyph glyph-name="hyphenminus" unicode="&#x2010;" horiz-adv-x="181" 
d="M0 245h181v-64h-181v64z" />
    <glyph glyph-name="underscoredbl" unicode="&#x2017;" 
d="M0 -58h500v-47h-500v47zM0 -174h500v-48h-500v48z" />
    <glyph glyph-name="trianglebullet" unicode="&#x2023;" 
d="M71 119v433l405 -217z" />
    <glyph glyph-name="onedotlead" unicode="&#x2024;" horiz-adv-x="250" 
d="M125 92q19 0 32.5 -13.5t13.5 -32.5t-13.5 -32.5t-32.5 -13.5t-32.5 14t-13.5 33q0 18 13.5 31.5t32.5 13.5z" />
    <glyph glyph-name="twodotlead" unicode="&#x2025;" 
d="M125 92q19 0 32.5 -13.5t13.5 -32.5t-13.5 -32.5t-32.5 -13.5t-32.5 14t-13.5 33q0 18 13.5 31.5t32.5 13.5zM375 92q19 0 32.5 -13.5t13.5 -32.5t-13.5 -32.5t-32.5 -13.5t-32.5 14t-13.5 33q0 18 13.5 31.5t32.5 13.5z" />
    <glyph glyph-name="minute" unicode="&#x2032;" horiz-adv-x="187" 
d="M120 399h-54l-13 268h81z" />
    <glyph glyph-name="second" unicode="&#x2033;" horiz-adv-x="329" 
d="M120 399h-54l-13 268h81zM263 399h-54l-13 268h80z" />
    <glyph glyph-name="exclamdbl" unicode="&#x203c;" horiz-adv-x="424" 
d="M143 667v-178l-19 -302h-43l-18 301v179h80zM145 117v-117h-83v117h83zM360 667v-178l-19 -302h-43l-18 301v179h80zM362 117v-117h-83v117h83z" />
    <glyph glyph-name="overscore2" unicode="&#x203e;" 
d="M0 864h500v-68h-500v68z" />
    <glyph glyph-name="zerosuperior" unicode="&#x2070;" horiz-adv-x="387" 
d="M194 673q64 0 107.5 -59t43.5 -146q0 -88 -43.5 -147.5t-107.5 -59.5q-65 0 -108.5 59.5t-43.5 148.5q0 86 44 145t108 59zM194 626q-41 0 -70 -46t-29 -112q0 -69 28 -114.5t71 -45.5q41 0 70 46.5t29 112.5q0 67 -28.5 113t-70.5 46z" />
    <glyph glyph-name="foursuperior" unicode="&#x2074;" horiz-adv-x="387" 
d="M291 378h50v-47h-50v-64h-53v64h-215l268 364v-317zM238 378v164l-121 -164h121z" />
    <glyph glyph-name="fivesuperior" unicode="&#x2075;" horiz-adv-x="387" 
d="M317 620h-133l-25 -77q9 2 19 2q61 0 101.5 -40t40.5 -100q0 -62 -44 -103t-111 -41q-85 0 -131 74l42 29q36 -56 92 -56q41 0 70 28t29 68t-28.5 67.5t-69.5 27.5q-35 0 -85 -31l63 199h170v-47z" />
    <glyph glyph-name="sixsuperior" unicode="&#x2076;" horiz-adv-x="387" 
d="M225 678l40 -28l-92 -122q13 4 30 4q56 0 96 -39t40 -94q0 -57 -43 -97.5t-102 -40.5q-61 0 -104 40t-43 96q0 47 35 93zM193 487q-39 0 -66.5 -26t-27.5 -63t27.5 -63.5t66.5 -26.5q38 0 65.5 26t27.5 63t-27.5 63.5t-65.5 26.5z" />
    <glyph glyph-name="sevensuperior" unicode="&#x2077;" horiz-adv-x="387" 
d="M280 620h-223v47h314l-282 -410l-42 26z" />
    <glyph glyph-name="eightsuperior" unicode="&#x2078;" horiz-adv-x="387" 
d="M123 475q-47 37 -47 87q0 47 34.5 79t84.5 32t84.5 -32t34.5 -79t-48 -87q56 -36 56 -95q0 -51 -36.5 -85t-90.5 -34q-55 0 -92.5 34t-37.5 84q0 61 58 96zM195 626q-28 0 -48 -19t-20 -45q0 -28 19.5 -47t48.5 -19q28 0 48 19t20 46t-20 46t-48 19zM193 452
q-31 0 -53.5 -21t-22.5 -50q0 -31 22 -52t54 -21t54 21t22 51t-22 51t-54 21z" />
    <glyph glyph-name="ninesuperior" unicode="&#x2079;" horiz-adv-x="387" 
d="M162 255l-40 29l91 121q-15 -3 -28 -3q-57 0 -97 39t-40 94q0 57 42.5 97.5t102.5 40.5t103 -40t43 -96q0 -48 -34 -93zM193 626q-38 0 -65.5 -26t-27.5 -62q0 -38 27.5 -64.5t66.5 -26.5q38 0 65.5 26.5t27.5 63.5t-27.5 63t-66.5 26z" />
    <glyph glyph-name="plussuperior" unicode="&#x207a;" horiz-adv-x="329" 
d="M15 477h123v119h52v-119h124v-50h-124v-120h-52v120h-123v50z" />
    <glyph glyph-name="minussuperior" unicode="&#x207b;" horiz-adv-x="329" 
d="M15 477h299v-50h-299v50z" />
    <glyph glyph-name="parenleftsuperior" unicode="&#x207d;" horiz-adv-x="202" 
d="M110 709l51 -22q-48 -118 -48 -251q0 -134 48 -252l-51 -22q-55 112 -55 274q0 160 55 273z" />
    <glyph glyph-name="parenrightsuperior" unicode="&#x207e;" horiz-adv-x="202" 
d="M92 162l-51 22q49 116 49 252q0 133 -49 251l51 22q19 -38 29 -73q27 -96 27 -200q0 -115 -32 -218q-3 -10 -24 -56z" />
    <glyph glyph-name="nsuperior" unicode="&#x207f;" horiz-adv-x="311" 
d="M45 521h58v-19q28 25 67 25q54 0 79 -36q16 -23 16 -68v-156h-58v149q0 34 -10.5 47t-36.5 13q-57 0 -57 -82v-127h-58v254z" />
    <glyph glyph-name="zeroinferior" unicode="&#x2080;" horiz-adv-x="387" 
d="M194 406q64 0 107.5 -59t43.5 -146q0 -88 -43.5 -147.5t-107.5 -59.5q-65 0 -108.5 59.5t-43.5 148.5q0 86 44 145t108 59zM194 359q-41 0 -70 -46t-29 -112q0 -69 28 -114.5t71 -45.5q41 0 70 46.5t29 112.5q0 67 -28.5 113t-70.5 46z" />
    <glyph glyph-name="oneinferior" unicode="&#x2081;" horiz-adv-x="387" 
d="M179 353h-71l28 47h96v-400h-53v353z" />
    <glyph glyph-name="twoinferior" unicode="&#x2082;" horiz-adv-x="387" 
d="M150 47h169v-47h-278l156 171q71 78 71 117q0 30 -23 51t-57 21q-44 0 -66 -33q-10 -15 -14 -48h-53q5 48 22 73q37 54 111 54q55 0 93.5 -34.5t38.5 -84.5q0 -33 -17.5 -62t-73.5 -91z" />
    <glyph glyph-name="threeinferior" unicode="&#x2083;" horiz-adv-x="387" 
d="M172 187v45q34 0 51 9q31 16 31 55q0 28 -19 45.5t-49 17.5q-55 0 -67 -63h-52q7 42 20 63q30 47 99 47q52 0 86 -31t34 -78q0 -51 -48 -87q54 -34 54 -95q0 -52 -37.5 -86.5t-93.5 -34.5q-76 0 -111 57q-12 20 -16 58h51q5 -27 15 -40q22 -28 62 -28q33 0 55.5 22
t22.5 54q0 45 -39 62q-19 8 -49 8z" />
    <glyph glyph-name="fourinferior" unicode="&#x2084;" horiz-adv-x="387" 
d="M291 112h50v-47h-50v-65h-53v65h-215l268 364v-317zM238 112v164l-121 -164h121z" />
    <glyph glyph-name="fiveinferior" unicode="&#x2085;" horiz-adv-x="387" 
d="M317 353h-133l-25 -77q9 2 19 2q61 0 101.5 -40t40.5 -100q0 -62 -44 -103t-111 -41q-85 0 -131 74l42 29q36 -56 92 -56q42 0 70.5 28t28.5 69q0 40 -28.5 67.5t-69.5 27.5q-35 0 -85 -32l63 199h170v-47z" />
    <glyph glyph-name="sixinferior" unicode="&#x2086;" horiz-adv-x="387" 
d="M225 411l40 -29l-92 -121q15 4 30 4q56 0 96 -39t40 -94q0 -57 -43 -97.5t-102 -40.5q-61 0 -104 40t-43 96q0 46 35 92zM193 220q-39 0 -66.5 -26t-27.5 -63t27.5 -63.5t66.5 -26.5q38 0 65.5 26t27.5 63t-27.5 63.5t-65.5 26.5z" />
    <glyph glyph-name="seveninferior" unicode="&#x2087;" horiz-adv-x="387" 
d="M280 353h-223v47h314l-282 -411l-42 27z" />
    <glyph glyph-name="eightinferior" unicode="&#x2088;" horiz-adv-x="387" 
d="M123 208q-47 37 -47 87q0 47 34.5 79t84.5 32q51 0 85 -32t34 -79t-48 -87q56 -36 56 -95q0 -51 -36.5 -85t-90.5 -34q-55 0 -92.5 34t-37.5 84q0 60 58 96zM195 359q-28 0 -48 -19t-20 -45q0 -28 19.5 -47t48.5 -19q28 0 48 19t20 46t-20 46t-48 19zM193 185
q-31 0 -53.5 -21t-22.5 -50q0 -31 22 -52t54 -21t54 21t22 51t-22 51t-54 21z" />
    <glyph glyph-name="nineinferior" unicode="&#x2089;" horiz-adv-x="387" 
d="M162 -11l-40 29l91 121q-15 -3 -28 -3q-57 0 -97 39t-40 94q0 56 42.5 96.5t102.5 40.5t103 -40t43 -96q0 -48 -34 -93zM193 359q-38 0 -65.5 -26t-27.5 -62q0 -37 27.5 -63.5t66.5 -26.5q38 0 65.5 26t27.5 63t-27.5 63t-66.5 26z" />
    <glyph glyph-name="lira" unicode="&#x20a4;" horiz-adv-x="567" 
d="M92 173v57h114q-8 28 -31 73h-83v57h54q-39 76 -39 129q0 79 57 133t141 54q85 0 137 -53.5t56 -144.5l-73 -19q-4 49 -11 71q-24 74 -109 74q-53 0 -88 -34t-35 -85q0 -48 38 -113l7 -12h160v-57h-131q18 -34 27 -73h104v-57h-103q-7 -37 -26 -71q23 -9 58 -21
q54 -19 75 -19q41 0 80 66l60 -36q-53 -103 -137 -103q-40 0 -110 25.5t-94 25.5q-45 0 -80 -53l-57 39q52 83 129 85q21 34 26 62h-116z" />
    <glyph glyph-name="peseta" unicode="&#x20a7;" horiz-adv-x="567" 
d="M132 292v-292h-75v667h121q113 0 168 -47q62 -53 62 -141q0 -84 -54.5 -135.5t-156.5 -51.5h-65zM132 360h60q68 0 105.5 31.5t37.5 88.5q0 56 -36 87t-112 31h-55v-238zM492 237v-237h-67v237h-37v60h37v100h67v-100h58v-60h-58z" />
    <glyph glyph-name="Euro" unicode="&#x20ac;" horiz-adv-x="760" 
d="M581 259h-377q23 -87 97.5 -144t164.5 -57q134 0 218 110v-103q-97 -77 -219 -77q-121 0 -218 78t-120 193h-82l24 58h51q-1 11 -1 16q0 11 1 20h-75l24 58h59q28 117 123.5 192t215.5 75q145 0 248 -106l-32 -73q-83 109 -216 109q-91 0 -163.5 -54.5t-97.5 -142.5h439
l-25 -57l-425 -1q-1 -11 -1 -21q0 -5 1 -15h410z" />
    <glyph glyph-name="aslashs" unicode="&#x2101;" horiz-adv-x="911" 
d="M297 378h-173l-49 -111h-58l196 423l190 -423h-58zM276 425l-64 146l-66 -146h130zM698 680l38 -21l-388 -672l-38 23zM863 341l-42 -27q-27 44 -69 44q-28 0 -46.5 -16.5t-18.5 -40.5q0 -25 24 -40q12 -8 72 -33q95 -40 95 -111q0 -52 -39 -88t-96 -36q-107 0 -132 107
l52 14q16 -73 82 -73q33 0 56.5 21.5t23.5 52.5q0 33 -33 53q-7 5 -72 34q-86 36 -86 100q0 44 34 74t85 30q72 0 110 -65z" />
    <glyph glyph-name="liter" unicode="&#x2113;" 
d="M249 269l-21 -103q-12 -62 -12 -105q0 -25 18 -25q26 0 51 55q8 18 19 18q13 0 13 -15q0 -24 -27 -60q-36 -48 -75 -48q-31 0 -49 24t-18 64q0 29 10 127l-7 -7q-34 -31 -42 -31q-14 0 -14 16q0 9 20 27q25 22 50 52q36 185 82 301q48 120 115 120q29 0 46 -22t17 -59
q0 -84 -61 -187q-33 -55 -115 -142zM260 334q125 139 125 259q0 45 -24 45t-40 -44q-31 -85 -61 -260z" />
    <glyph glyph-name="Ohm" unicode="&#x2126;" horiz-adv-x="667" 
d="M28 0v66h178q-178 104 -178 298q0 135 88 227.5t217 92.5t217 -92.5t88 -227.5q0 -194 -178 -298h178v-66h-261v60q70 40 107 82q78 90 78 213q0 118 -78 197q-64 65 -150 65q-98 0 -164 -75t-66 -187q0 -192 185 -295v-60h-261z" />
    <glyph glyph-name="onethird" unicode="&#x2153;" horiz-adv-x="860" 
d="M165 620h-71l28 47h96v-400h-53v353zM604 680l39 -21l-388 -672l-39 23zM658 187v45q34 0 51 9q31 16 31 55q0 28 -19 45.5t-49 17.5q-55 0 -67 -63h-52q7 42 20 63q30 47 99 47q52 0 86 -31t34 -78q0 -51 -48 -87q54 -34 54 -95q0 -52 -37.5 -86.5t-93.5 -34.5
q-76 0 -111 57q-12 20 -16 58h51q5 -27 15 -40q22 -28 62 -28q33 0 55.5 22t22.5 54q0 45 -39 62q-19 8 -49 8z" />
    <glyph glyph-name="twothirds" unicode="&#x2154;" horiz-adv-x="860" 
d="M137 314h169v-47h-278l156 171q71 78 71 115q0 31 -23 52t-57 21q-44 0 -66 -33q-10 -15 -14 -48h-53q5 48 22 73q38 55 111 55q56 0 94 -35t38 -86q0 -33 -17.5 -62t-73.5 -90zM605 680l38 -21l-388 -672l-38 23zM659 187v45q34 0 51 9q31 16 31 55q0 28 -19 45.5
t-49 17.5q-55 0 -67 -63h-52q7 42 20 63q30 47 99 47q52 0 86 -31t34 -78q0 -51 -48 -87q54 -34 54 -95q0 -52 -37.5 -86.5t-93.5 -34.5q-76 0 -111 57q-12 20 -16 58h51q5 -27 15 -40q22 -28 62 -28q33 0 55.5 22t22.5 54q0 45 -39 62q-19 8 -49 8z" />
    <glyph glyph-name="onefifth" unicode="&#x2155;" horiz-adv-x="860" 
d="M165 620h-71l28 47h96v-400h-53v353zM604 680l39 -21l-388 -672l-39 23zM803 353h-133l-25 -77q9 2 19 2q61 0 101.5 -40t40.5 -100q0 -62 -44 -103t-111 -41q-84 0 -131 74l42 29q36 -56 92 -56q42 0 70.5 28t28.5 69q0 40 -28.5 67.5t-69.5 27.5q-35 0 -85 -32l63 199
h170v-47z" />
    <glyph glyph-name="twofifths" unicode="&#x2156;" horiz-adv-x="860" 
d="M137 314h169v-47h-278l156 171q71 78 71 115q0 31 -23 52t-57 21q-44 0 -66 -33q-10 -15 -14 -48h-53q5 48 22 73q38 55 111 55q56 0 94 -35t38 -86q0 -33 -17.5 -62t-73.5 -90zM605 680l38 -21l-388 -672l-38 23zM803 353h-133l-25 -77q9 2 19 2q61 0 101.5 -40
t40.5 -100q0 -62 -44 -103t-111 -41q-84 0 -131 74l42 29q36 -56 92 -56q42 0 70.5 28t28.5 69q0 40 -28.5 67.5t-69.5 27.5q-35 0 -85 -32l63 199h170v-47z" />
    <glyph glyph-name="threefifths" unicode="&#x2157;" horiz-adv-x="860" 
d="M159 454v45q34 0 51 9q31 16 31 55q0 27 -19 45t-49 18q-55 0 -67 -63h-52q7 42 20 63q30 47 99 47q52 0 86 -31t34 -78q0 -51 -48 -87q54 -35 54 -96q0 -52 -37.5 -86.5t-93.5 -34.5q-76 0 -111 57q-12 20 -16 58h51q5 -27 15 -40q22 -28 62 -28q33 0 55.5 22t22.5 54
q0 46 -39 63q-15 7 -49 8zM605 680l38 -21l-388 -672l-38 23zM803 353h-133l-25 -77q9 2 19 2q61 0 101.5 -40t40.5 -100q0 -62 -44 -103t-111 -41q-84 0 -131 74l42 29q36 -56 92 -56q42 0 70.5 28t28.5 69q0 40 -28.5 67.5t-69.5 27.5q-35 0 -85 -32l63 199h170v-47z" />
    <glyph glyph-name="fourfifths" unicode="&#x2158;" horiz-adv-x="860" 
d="M278 378h50v-47h-50v-64h-53v64h-215l268 364v-317zM225 378v164l-121 -164h121zM605 680l38 -21l-388 -672l-38 23zM803 353h-133l-25 -77q9 2 19 2q61 0 101.5 -40t40.5 -100q0 -62 -44 -103t-111 -41q-84 0 -131 74l42 29q36 -56 92 -56q42 0 70.5 28t28.5 69
q0 40 -28.5 67.5t-69.5 27.5q-35 0 -85 -32l63 199h170v-47z" />
    <glyph glyph-name="onesixth" unicode="&#x2159;" horiz-adv-x="860" 
d="M165 620h-71l28 47h96v-400h-53v353zM604 680l39 -21l-388 -672l-39 23zM711 411l40 -29l-92 -121q15 4 30 4q57 0 97 -39t40 -94q0 -57 -43 -97.5t-103 -40.5t-103.5 40t-43.5 96q0 46 35 92zM679 220q-39 0 -66.5 -26t-27.5 -63t27.5 -63.5t66.5 -26.5q38 0 66 26
t28 63t-27.5 63.5t-66.5 26.5z" />
    <glyph glyph-name="fivesixths" unicode="&#x215a;" horiz-adv-x="860" 
d="M303 620h-133l-25 -77q9 2 19 2q61 0 101.5 -40t40.5 -100q0 -62 -44 -103t-111 -41q-85 0 -131 74l42 29q36 -56 92 -56q41 0 70 28t29 68t-28.5 67.5t-69.5 27.5q-35 0 -85 -31l63 199h170v-47zM605 680l38 -21l-388 -672l-38 23zM711 411l40 -29l-91 -121q13 4 30 4
q56 0 96 -39t40 -94q0 -57 -43 -97.5t-102 -40.5q-61 0 -104 40t-43 96q0 45 35 92zM680 220q-39 0 -66.5 -26t-27.5 -63t27.5 -63.5t66.5 -26.5q38 0 65.5 26t27.5 63t-27.5 63.5t-65.5 26.5z" />
    <glyph glyph-name="oneeighth" unicode="&#x215b;" horiz-adv-x="860" 
d="M165 620h-71l28 47h96v-400h-53v353zM604 680l39 -21l-388 -672l-39 23zM609 208q-47 37 -47 87q0 47 34.5 79t84.5 32q51 0 85 -32t34 -79t-48 -87q56 -36 56 -95q0 -51 -36.5 -85t-90.5 -34q-55 0 -92.5 34t-37.5 84q0 60 58 96zM681 359q-28 0 -48 -19t-20 -45
q0 -28 19.5 -47t48.5 -19q28 0 48 19t20 46t-20 46t-48 19zM679 185q-31 0 -53.5 -21t-22.5 -50q0 -31 22 -52t54 -21t54 21t22 51t-22 51t-54 21z" />
    <glyph glyph-name="threeeighths" unicode="&#x215c;" horiz-adv-x="860" 
d="M159 454v45q34 0 51 9q31 16 31 55q0 27 -19 45t-49 18q-55 0 -67 -63h-52q7 42 20 63q30 47 99 47q52 0 86 -31t34 -78q0 -51 -48 -87q54 -35 54 -96q0 -52 -37.5 -86.5t-93.5 -34.5q-76 0 -111 57q-12 20 -16 58h51q5 -27 15 -40q22 -28 62 -28q33 0 55.5 22t22.5 54
q0 46 -39 63q-15 7 -49 8zM605 680l38 -21l-388 -672l-38 23zM609 208q-47 37 -47 87q0 47 34.5 79t85.5 32q50 0 84.5 -32t34.5 -79q0 -48 -49 -87q57 -36 57 -95q0 -51 -36.5 -85t-91.5 -34t-92.5 34t-37.5 84q0 61 58 96zM681 359q-28 0 -48 -19t-20 -45q0 -28 20 -47
t49 -19q28 0 48 19t20 46t-20 46t-49 19zM679 185q-31 0 -53.5 -21t-22.5 -50q0 -31 22.5 -52t54.5 -21t54 21t22 51t-22.5 51t-54.5 21z" />
    <glyph glyph-name="fiveeighths" unicode="&#x215d;" horiz-adv-x="861" 
d="M303 620h-133l-25 -77q9 2 19 2q61 0 101.5 -40t40.5 -100q0 -62 -44 -103t-111 -41q-85 0 -131 74l42 29q36 -56 92 -56q41 0 70 28t29 68t-28.5 67.5t-69.5 27.5q-35 0 -85 -31l63 199h170v-47zM605 680l38 -21l-388 -672l-38 23zM609 208q-47 37 -47 87q0 47 34.5 79
t85.5 32q50 0 84.5 -32t34.5 -79q0 -48 -49 -87q57 -36 57 -95q0 -51 -36.5 -85t-91.5 -34t-92.5 34t-37.5 84q0 61 58 96zM681 359q-28 0 -48 -19t-20 -45q0 -28 20 -47t49 -19q28 0 48 19t20 46t-20 46t-49 19zM679 185q-31 0 -53.5 -21t-22.5 -50q0 -31 22.5 -52
t54.5 -21t54 21t22 51t-22.5 51t-54.5 21z" />
    <glyph glyph-name="seveneighths" unicode="&#x215e;" horiz-adv-x="860" 
d="M266 620h-223v47h314l-282 -410l-42 26zM604 680l39 -21l-388 -672l-39 23zM609 208q-47 37 -47 87q0 47 34.5 79t84.5 32q51 0 85 -32t34 -79t-48 -87q56 -36 56 -95q0 -51 -36.5 -85t-90.5 -34q-55 0 -92.5 34t-37.5 84q0 61 58 96zM681 359q-28 0 -48 -19t-20 -45
q0 -28 19.5 -47t48.5 -19q28 0 48 19t20 46t-20 46t-48 19zM679 185q-31 0 -53.5 -21t-22.5 -50q0 -31 22 -52t54 -21t54 21t22 51t-22 51t-54 21z" />
    <glyph glyph-name="arrowleft" unicode="&#x2190;" horiz-adv-x="667" 
d="M653 363v-51h-500q15 -19 33.5 -56t18.5 -48q0 -14 -14 -14q-10 0 -24 17q-46 56 -131 104q-23 13 -23 21t16 18q82 49 148 119q6 7 13 7q15 0 15 -15q0 -30 -52 -102h500z" />
    <glyph glyph-name="arrowup" unicode="&#x2191;" horiz-adv-x="669" 
d="M361 13h-53v500q-19 -15 -55.5 -33.5t-47.5 -18.5q-14 0 -14 15q0 9 17 23q55 47 103 132q13 23 22 23q10 0 19 -16q2 -3 8 -13q2 -5 9 -16q43 -69 99 -117q9 -8 9 -16q0 -15 -15 -15q-29 0 -101 52v-500z" />
    <glyph glyph-name="arrowright" unicode="&#x2192;" horiz-adv-x="667" 
d="M13 310v51h500q-16 22 -34 58t-18 47q0 14 15 14q9 0 23 -17q48 -57 131 -104q23 -13 23 -21t-16 -18q-57 -34 -80 -52q-30 -24 -67 -66q-7 -8 -14 -8q-15 0 -15 15q0 27 52 101h-500z" />
    <glyph glyph-name="arrowdown" unicode="&#x2193;" horiz-adv-x="667" 
d="M306 653h53v-500q19 16 56 34t48 18q14 0 14 -15q0 -9 -17 -23q-57 -47 -104 -131l-2 -3q-11 -20 -19 -20q-9 0 -19 16q-1 1 -18 29q-40 66 -99 117q-9 8 -9 15q0 15 15 15q27 0 101 -52v500z" />
    <glyph glyph-name="arrowboth" unicode="&#x2194;" horiz-adv-x="667" 
d="M513 310h-361q53 -71 53 -101q0 -15 -15 -15q-8 0 -24 19q-45 52 -143 111q-10 6 -10 15q0 8 23 21q85 48 132 104q14 17 22 17q15 0 15 -14q0 -12 -18 -48.5t-35 -57.5h361q-16 21 -34 58t-18 48q0 14 15 14q9 0 23 -17q49 -57 131 -104q23 -13 23 -21q0 -9 -16 -19
q-84 -51 -148 -119q-6 -7 -13 -7q-15 0 -15 15q0 27 52 101z" />
    <glyph glyph-name="arrowupdn" unicode="&#x2195;" horiz-adv-x="667" 
d="M360 513v-361q72 54 101 54q15 0 15 -15q0 -8 -19 -24q-46 -40 -89 -109q-4 -7 -10.5 -16.5t-6.5 -11.5l-4 -7q-6 -10 -16 -10q-8 0 -21 23q-50 86 -104 132q-17 14 -17 23q0 15 14 15q11 0 48 -19t56 -35v361q-18 -14 -55.5 -33t-48.5 -19q-14 0 -14 15q0 7 31 35
q44 40 90 120q13 23 21 23q10 0 20 -16q2 -3 7 -13l10 -16q42 -68 99 -117q9 -8 9 -16q0 -15 -15 -15q-27 0 -101 52z" />
    <glyph glyph-name="arrowupdnbse" unicode="&#x21a8;" horiz-adv-x="667" 
d="M361 513v-361q70 54 99 54q15 0 15 -15q0 -8 -9 -16q-56 -48 -97 -117q-6 -10 -9 -16l-8 -12l-4 -7q-6 -10 -16 -10q-8 0 -21 23q-50 86 -104 132q-17 14 -17 23q0 15 14 15q11 0 48 -19t56 -35v361q-18 -14 -55.5 -33t-48.5 -19q-14 0 -14 15q0 6 32 35q41 37 89 120
q13 23 21 23q10 0 20 -16q0 -2 8 -13q3 -5 9 -16q26 -44 47 -67l54 -54q5 -5 5 -12q0 -15 -15 -15q-27 0 -99 52zM201 -64h264v-47h-264v47z" />
    <glyph glyph-name="emptyset" unicode="&#x2205;" horiz-adv-x="618" 
d="M439 667l48 -25l-48 -88q113 -78 113 -204q0 -102 -72 -172.5t-176 -70.5q-46 0 -79 16l-63 -123l-48 25l61 122q-108 80 -108 202q0 101 71 172t173 71q39 0 81 -14zM416 502l-165 -330q32 -8 58 -8q77 0 132 54.5t55 130.5q0 47 -21.5 89t-58.5 64zM200 198l166 329
q-28 8 -54 8q-78 0 -133.5 -54.5t-55.5 -130.5q0 -90 77 -152z" />
    <glyph glyph-name="Delta" unicode="&#x394;" horiz-adv-x="667" 
d="M27 0l265 667h80l268 -667h-613zM135 70h396l-198 506z" />
    <glyph glyph-name="Delta" unicode="&#x2206;" horiz-adv-x="667" 
d="M27 0l265 667h80l268 -667h-613zM135 70h396l-198 506z" />
    <glyph glyph-name="intersection" unicode="&#x2229;" horiz-adv-x="584" 
d="M538 0h-75v313q0 83 -2 107q-5 68 -27 103t-60.5 55.5t-81.5 20.5q-46 0 -86.5 -24t-60.5 -62q-24 -47 -24 -200v-313h-75v310q0 108 3 133q7 78 41 124q72 100 202 100q69 0 125.5 -31t88.5 -86q24 -42 30 -117q2 -24 2 -123v-310z" />
    <glyph glyph-name="union" unicode="&#x222a;" horiz-adv-x="584" 
d="M46 667h75v-312q0 -83 2 -107q5 -68 27 -103q48 -77 142 -77q46 0 86.5 24t60.5 62q24 47 24 201v312h75v-310q0 -108 -3 -133q-7 -78 -41 -124q-73 -100 -202 -100q-68 0 -125 31t-89 86q-24 42 -30 117q-2 25 -2 123v310z" />
    <glyph glyph-name="contintegral" unicode="&#x222e;" 
d="M92 -239l16 67q28 -11 45 -11q47 0 55 46q3 18 3 76v136q-68 14 -111 65.5t-43 118.5q0 68 43 119t112 65v120q0 83 9 112q23 75 116 75q30 0 69 -10l-17 -67q-26 9 -45 9q-47 0 -54 -45q-3 -18 -3 -75v-119q50 -12 79 -34q76 -58 76 -150q0 -69 -44 -121t-112 -63v-123
q0 -81 -3.5 -106.5t-16.5 -45.5q-33 -49 -115 -49q-34 0 -59 10zM286 392v-265q101 30 101 132q0 103 -101 133zM211 127v265q-99 -30 -99 -133q0 -100 99 -132z" />
    <glyph glyph-name="equivalence" unicode="&#x2261;" horiz-adv-x="567" 
d="M48 436v58h471v-58h-471zM48 311v58h471v-58h-471zM48 186v58h471v-58h-471z" />
    <glyph glyph-name="house" unicode="&#x2302;" horiz-adv-x="753" 
d="M84 0v400l292 329l293 -329v-400h-585zM137 51h479v328l-240 270l-239 -270v-328z" />
    <glyph glyph-name="turnednot" unicode="&#x2319;" 
d="M108 267v-197h358v-70h-433v267h75z" />
    <glyph glyph-name="integraltp" unicode="&#x2320;" 
d="M287 -250h-75v803q0 91 9 122q21 75 116 75q29 0 69 -10l-17 -67q-26 9 -45 9q-46 0 -54 -45q-3 -18 -3 -75v-812z" />
    <glyph glyph-name="integralbt" unicode="&#x2321;" 
d="M213 750h75v-803q0 -90 -9 -122q-21 -75 -116 -75q-30 0 -69 11l17 66q26 -9 45 -9q47 0 54 45q3 18 3 75v812z" />
    <glyph glyph-name="SF100000" unicode="&#x2500;" horiz-adv-x="1000" 
d="M0 217v66h1000v-66h-1000z" />
    <glyph glyph-name="SF110000" unicode="&#x2502;" horiz-adv-x="1000" 
d="M467 -250v1000h66v-1000h-66z" />
    <glyph glyph-name="SF010000" unicode="&#x250c;" horiz-adv-x="1000" 
d="M1000 283v-66h-467v-467h-66v533h533z" />
    <glyph glyph-name="SF030000" unicode="&#x2510;" horiz-adv-x="1000" 
d="M467 217h-467v66h533v-533h-66v467z" />
    <glyph glyph-name="SF020000" unicode="&#x2514;" horiz-adv-x="1000" 
d="M533 283h467v-66h-533v533h66v-467z" />
    <glyph glyph-name="SF040000" unicode="&#x2518;" horiz-adv-x="1000" 
d="M0 217v66h467v467h66v-533h-533z" />
    <glyph glyph-name="SF080000" unicode="&#x251c;" horiz-adv-x="1000" 
d="M533 283h467v-66h-467v-467h-66v1000h66v-467z" />
    <glyph glyph-name="SF090000" unicode="&#x2524;" horiz-adv-x="1000" 
d="M467 217h-467v66h467v467h66v-1000h-66v467z" />
    <glyph glyph-name="SF060000" unicode="&#x252c;" horiz-adv-x="1000" 
d="M533 217v-467h-66v467h-467v66h1000v-66h-467z" />
    <glyph glyph-name="SF070000" unicode="&#x2534;" horiz-adv-x="1000" 
d="M467 283v467h66v-467h467v-66h-1000v66h467z" />
    <glyph glyph-name="SF050000" unicode="&#x253c;" horiz-adv-x="1000" 
d="M467 217h-467v66h467v467h66v-467h467v-66h-467v-467h-66v467z" />
    <glyph glyph-name="SF430000" unicode="&#x2550;" horiz-adv-x="1000" 
d="M0 151v66h1000v-66h-1000zM0 283v66h1000v-66h-1000z" />
    <glyph glyph-name="SF240000" unicode="&#x2551;" horiz-adv-x="1000" 
d="M401 -250v1000h66v-1000h-66zM533 -250v1000h66v-1000h-66z" />
    <glyph glyph-name="SF510000" unicode="&#x2552;" horiz-adv-x="1000" 
d="M467 -250v599h533v-66h-467v-66h467v-66h-467v-401h-66z" />
    <glyph glyph-name="SF520000" unicode="&#x2553;" horiz-adv-x="1000" 
d="M533 217h-66v-467h-66v533h599v-66h-401v-467h-66v467z" />
    <glyph glyph-name="SF390000" unicode="&#x2554;" horiz-adv-x="1000" 
d="M467 283v-533h-66v599h599v-66h-533zM599 151v-401h-66v467h467v-66h-401z" />
    <glyph glyph-name="SF220000" unicode="&#x2555;" horiz-adv-x="1000" 
d="M467 151h-467v66h467v66h-467v66h533v-599h-66v401z" />
    <glyph glyph-name="SF210000" unicode="&#x2556;" horiz-adv-x="1000" 
d="M467 217v-467h-66v467h-401v66h599v-533h-66v467h-66z" />
    <glyph glyph-name="SF250000" unicode="&#x2557;" horiz-adv-x="1000" 
d="M533 283h-533v66h599v-599h-66v533zM401 151h-401v66h467v-467h-66v401z" />
    <glyph glyph-name="SF500000" unicode="&#x2558;" horiz-adv-x="1000" 
d="M467 750h66v-401h467v-66h-467v-66h467v-66h-533v599z" />
    <glyph glyph-name="SF490000" unicode="&#x2559;" horiz-adv-x="1000" 
d="M533 283v467h66v-467h401v-66h-599v533h66v-467h66z" />
    <glyph glyph-name="SF380000" unicode="&#x255a;" horiz-adv-x="1000" 
d="M467 217h533v-66h-599v599h66v-533zM599 349h401v-66h-467v467h66v-401z" />
    <glyph glyph-name="SF280000" unicode="&#x255b;" horiz-adv-x="1000" 
d="M467 349v401h66v-599h-533v66h467v66h-467v66h467z" />
    <glyph glyph-name="SF270000" unicode="&#x255c;" horiz-adv-x="1000" 
d="M467 283h66v467h66v-533h-599v66h401v467h66v-467z" />
    <glyph glyph-name="SF260000" unicode="&#x255d;" horiz-adv-x="1000" 
d="M533 217v533h66v-599h-599v66h533zM401 349v401h66v-467h-467v66h401z" />
    <glyph glyph-name="SF360000" unicode="&#x255e;" horiz-adv-x="1000" 
d="M467 750h66v-401h467v-66h-467v-66h467v-66h-467v-401h-66v1000z" />
    <glyph glyph-name="SF370000" unicode="&#x255f;" horiz-adv-x="1000" 
d="M599 217v-467h-66v1000h66v-467h401v-66h-401zM467 -250h-66v1000h66v-1000z" />
    <glyph glyph-name="SF420000" unicode="&#x2560;" horiz-adv-x="1000" 
d="M401 -250v1000h66v-1000h-66zM599 349h401v-66h-467v467h66v-401zM599 151v-401h-66v467h467v-66h-401z" />
    <glyph glyph-name="SF190000" unicode="&#x2561;" horiz-adv-x="1000" 
d="M467 349v401h66v-1000h-66v401h-467v66h467v66h-467v66h467z" />
    <glyph glyph-name="SF200000" unicode="&#x2562;" horiz-adv-x="1000" 
d="M401 217h-401v66h401v467h66v-1000h-66v467zM533 -250v1000h66v-1000h-66z" />
    <glyph glyph-name="SF230000" unicode="&#x2563;" horiz-adv-x="1000" 
d="M599 -250h-66v1000h66v-1000zM401 349v401h66v-467h-467v66h401zM401 151h-401v66h467v-467h-66v401z" />
    <glyph glyph-name="SF470000" unicode="&#x2564;" horiz-adv-x="1000" 
d="M0 349h1000v-66h-1000v66zM467 151h-467v66h1000v-66h-467v-401h-66v401z" />
    <glyph glyph-name="SF480000" unicode="&#x2565;" horiz-adv-x="1000" 
d="M401 217h-401v66h1000v-66h-401v-467h-66v467h-66v-467h-66v467z" />
    <glyph glyph-name="SF410000" unicode="&#x2566;" horiz-adv-x="1000" 
d="M0 349h1000v-66h-1000v66zM599 151v-401h-66v467h467v-66h-401zM401 151h-401v66h467v-467h-66v401z" />
    <glyph glyph-name="SF450000" unicode="&#x2567;" horiz-adv-x="1000" 
d="M0 151v66h1000v-66h-1000zM467 349v401h66v-401h467v-66h-1000v66h467z" />
    <glyph glyph-name="SF460000" unicode="&#x2568;" horiz-adv-x="1000" 
d="M0 217v66h401v467h66v-467h66v467h66v-467h401v-66h-1000z" />
    <glyph glyph-name="SF400000" unicode="&#x2569;" horiz-adv-x="1000" 
d="M0 151v66h1000v-66h-1000zM599 349h401v-66h-467v467h66v-401zM401 349v401h66v-467h-467v66h401z" />
    <glyph glyph-name="SF540000" unicode="&#x256a;" horiz-adv-x="1000" 
d="M467 217v66h-467v66h467v401h66v-401h467v-66h-467v-66h467v-66h-467v-401h-66v401h-467v66h467z" />
    <glyph glyph-name="SF530000" unicode="&#x256b;" horiz-adv-x="1000" 
d="M401 217h-401v66h401v467h66v-467h66v467h66v-467h401v-66h-401v-467h-66v467h-66v-467h-66v467z" />
    <glyph glyph-name="SF440000" unicode="&#x256c;" horiz-adv-x="1000" 
d="M599 349h401v-66h-467v467h66v-401zM401 349v401h66v-467h-467v66h401zM599 151v-401h-66v467h467v-66h-401zM401 151h-401v66h467v-467h-66v401z" />
    <glyph glyph-name="upblock" unicode="&#x2580;" horiz-adv-x="1000" 
d="M0 250v500h1000v-500h-1000z" />
    <glyph glyph-name="dnblock" unicode="&#x2584;" horiz-adv-x="1000" 
d="M0 -250v500h1000v-500h-1000z" />
    <glyph glyph-name="block" unicode="&#x2588;" horiz-adv-x="1000" 
d="M0 -250v1000h1000v-1000h-1000z" />
    <glyph glyph-name="lfblock" unicode="&#x258c;" horiz-adv-x="1000" 
d="M0 -250v1000h500v-1000h-500z" />
    <glyph glyph-name="rtblock" unicode="&#x2590;" horiz-adv-x="1000" 
d="M500 -250v1000h500v-1000h-500z" />
    <glyph glyph-name="ltshade" unicode="&#x2591;" horiz-adv-x="1000" 
d="M0 750h100v-100h-100v100zM200 750h100v-100h-100v100zM800 750h100v-100h-100v100zM400 750h100v-100h-100v100zM600 750h100v-100h-100v100zM0 550h100v-100h-100v100zM0 350h100v-100h-100v100zM0 150h100v-100h-100v100zM0 -50h100v-100h-100v100zM200 550h100v-100
h-100v100zM200 350h100v-100h-100v100zM200 150h100v-100h-100v100zM200 -50h100v-100h-100v100zM400 550h100v-100h-100v100zM400 350h100v-100h-100v100zM400 150h100v-100h-100v100zM400 -50h100v-100h-100v100zM600 550h100v-100h-100v100zM600 350h100v-100h-100v100z
M600 150h100v-100h-100v100zM600 -50h100v-100h-100v100zM800 550h100v-100h-100v100zM800 350h100v-100h-100v100zM800 150h100v-100h-100v100zM800 -50h100v-100h-100v100z" />
    <glyph glyph-name="shade" unicode="&#x2592;" horiz-adv-x="1000" 
d="M900 -150h100v-100h-100v100h-100v-100h-100v100h-100v-100h-100v100h-100v-100h-100v100h-100v-100h-100v100h-100v100h100v-100h100v100h100v-100h100v100h100v-100h100v100h100v-100h100v100h100v100h-100v-100h-100v100h-100v-100h-100v100h-100v-100h-100v100h-100
v-100h-100v100h-100v100h100v-100h100v100h100v-100h100v100h100v-100h100v100h100v-100h100v100h100v100h-100v-100h-100v100h-100v-100h-100v100h-100v-100h-100v100h-100v-100h-100v100h-100v100h100v-100h100v100h100v-100h100v100h100v-100h100v100h100v-100h100v100
h100v100h-100v-100h-100v100h-100v-100h-100v100h-100v-100h-100v100h-100v-100h-100v100h-100v100h100v-100h100v100h100v-100h100v100h100v-100h100v100h100v-100h100v100h100v100h-100v-100h-100v100h-100v-100h-100v100h-100v-100h-100v100h-100v-100h-100v100h-100v100
h100v-100h100v100h100v-100h100v100h100v-100h100v100h100v-100h100v100h100v-100h100v-100h-100v-100h100v-100h-100v-100h100v-100h-100v-100h100v-100h-100v-100z" />
    <glyph glyph-name="dkshade" unicode="&#x2593;" horiz-adv-x="1000" 
d="M1000 -250h-1000v100h100v100h-100v100h100v100h-100v100h100v100h-100v100h100v100h-100v100h100v100h100v-100h100v100h100v-100h100v100h100v-100h100v100h100v-100h100v100h100v-1000zM900 550h-100v-100h100v100zM700 550h-100v-100h100v100zM500 550h-100v-100h100
v100zM300 550h-100v-100h100v100zM900 350h-100v-100h100v100zM700 350h-100v-100h100v100zM500 350h-100v-100h100v100zM300 350h-100v-100h100v100zM900 150h-100v-100h100v100zM700 150h-100v-100h100v100zM500 150h-100v-100h100v100zM300 150h-100v-100h100v100z
M900 -50h-100v-100h100v100zM700 -50h-100v-100h100v100zM500 -50h-100v-100h100v100zM300 -50h-100v-100h100v100z" />
    <glyph glyph-name="filledbox" unicode="&#x25a0;" horiz-adv-x="667" 
d="M667 0h-667v667h667v-667z" />
    <glyph glyph-name="outlinedbox" unicode="&#x25a1;" horiz-adv-x="667" 
d="M667 0h-667v667h667v-667zM620 47v573h-573v-573h573z" />
    <glyph glyph-name="triagup" unicode="&#x25b2;" 
d="M466 147h-433l217 405z" />
    <glyph glyph-name="triagrt" unicode="&#x25b6;" 
d="M71 119v433l405 -217z" />
    <glyph glyph-name="triagdn" unicode="&#x25bc;" 
d="M33 520h433l-216 -405z" />
    <glyph glyph-name="triaglt" unicode="&#x25c0;" 
d="M428 552v-433l-405 216z" />
    <glyph glyph-name="diamondrhombsolid" unicode="&#x25c6;" horiz-adv-x="667" 
d="M333 693q22 -47 111.5 -173t142.5 -186q-160 -190 -254 -360q-71 135 -253 360q180 226 253 359z" />
    <glyph glyph-name="diamondrhomb" unicode="&#x25c7;" horiz-adv-x="667" 
d="M334 693l259 -359l-259 -360l-260 360zM334 554l-161 -220l161 -220l160 220z" />
    <glyph glyph-name="circle" unicode="&#x25cb;" horiz-adv-x="667" 
d="M333 589q108 0 184 -74.5t76 -180.5t-76.5 -181.5t-183.5 -75.5q-109 0 -184.5 75.5t-75.5 184.5q0 103 76.5 177.5t183.5 74.5zM333 542q-87 0 -150 -60.5t-63 -145.5q0 -89 62 -150.5t151 -61.5q88 0 150.5 61.5t62.5 148.5q0 86 -62.5 147t-150.5 61z" />
    <glyph glyph-name="invbullet" unicode="&#x25d8;" horiz-adv-x="667" 
d="M0 0v667h667v-667h-667zM336 474q-59 0 -99.5 -41t-40.5 -100q0 -58 40.5 -99t97.5 -41q56 0 96.5 41.5t40.5 99.5q0 57 -40 98.5t-95 41.5z" />
    <glyph glyph-name="invcircle" unicode="&#x25d9;" horiz-adv-x="667" 
d="M334 543q88 0 150.5 -61.5t62.5 -147.5q0 -87 -62.5 -149t-150.5 -62q-90 0 -152 62t-62 151q0 85 63 146t151 61zM667 0h-667v667h667v-667zM334 590q-107 0 -184 -74t-77 -178q0 -109 76 -185t185 -76q107 0 183.5 75.5t76.5 181.5t-76.5 181t-183.5 75z" />
    <glyph glyph-name="smileface" unicode="&#x263a;" horiz-adv-x="667" 
d="M241 466q17 0 30 -13t13 -31t-13 -31t-31 -13t-31 13t-13 31t13 31t32 13zM435 465q17 0 30 -13t13 -31t-13 -31t-31 -13t-31 13t-13 31t13 31t32 13zM540 372q-7 -106 -50 -161q-56 -70 -156 -70q-108 0 -164 83q-34 50 -42 148q13 -55 42 -88q61 -70 164 -70
q104 0 165 70q28 32 41 88zM339 650q127 0 219 -93.5t92 -222.5q0 -131 -93 -224t-224 -93t-223.5 93t-92.5 226q0 131 94 222.5t228 91.5zM339 608q-126 0 -208 -91q-71 -79 -71 -181q0 -116 80 -196.5t195 -80.5q113 0 193.5 80.5t80.5 194.5q0 112 -80 193t-190 81z" />
    <glyph glyph-name="invsmileface" unicode="&#x263b;" horiz-adv-x="667" 
d="M339 650q127 0 219 -93.5t92 -222.5q0 -131 -93 -224t-224 -93t-223.5 93t-92.5 226q0 131 94 222.5t228 91.5zM241 466q-19 0 -32 -13t-13 -31t13 -31t31 -13t31 13t13 31t-13 31t-30 13zM435 466q-19 0 -32 -13t-13 -31q0 -19 13 -32t31 -13t31 13t13 32q0 18 -13 31
t-30 13zM540 372q-13 -56 -41 -88q-61 -71 -165 -71q-103 0 -164 71q-29 34 -42 88q8 -105 51 -160q55 -70 155 -70q110 0 165 82q34 52 41 148z" />
    <glyph glyph-name="sun" unicode="&#x263c;" horiz-adv-x="667" 
d="M159 472l-75 75l36 35l74 -75q51 40 114 48v105h50v-105q66 -8 114 -48l74 75l35 -35l-74 -75q38 -46 47 -113h105v-51h-105q-7 -62 -47 -114l74 -74l-35 -35l-74 74q-50 -38 -114 -47v-105h-50v105q-60 8 -114 47l-74 -74l-36 35l75 74q-41 51 -47 114h-105v51h105
q8 63 47 113zM336 493q-68 0 -115 -46t-47 -112q0 -67 46.5 -114t112.5 -47q65 0 112 47t47 113q0 64 -46.5 111.5t-109.5 47.5z" />
    <glyph glyph-name="female" unicode="&#x2640;" horiz-adv-x="667" 
d="M308 209v105q-69 11 -112 62t-43 120q0 76 52.5 129.5t126.5 53.5q75 0 128 -53.5t53 -129.5q0 -70 -44 -121t-114 -61v-105h164v-43h-164v-166h-47v166h-161v43h161zM335 632q-56 0 -95.5 -39.5t-39.5 -96.5q0 -56 39 -96t94 -40t94 40t39 96q0 55 -39 95.5t-92 40.5z
" />
    <glyph glyph-name="male" unicode="&#x2642;" horiz-adv-x="667" 
d="M569 499l-151 -152q35 -49 35 -109q0 -76 -53 -129.5t-127 -53.5t-127 53.5t-53 129.5t53 129.5t128 53.5q60 0 111 -39l151 150q-49 11 -106 41q-21 11 -21 23t14 12q4 0 19 -3q42 -9 83 -9q56 0 93 10q19 5 23 5q10 0 10 -10q0 -4 -5 -23q-10 -38 -10 -88q0 -38 9 -83
q3 -15 3 -19q0 -14 -12 -14q-10 0 -24 21q-27 41 -43 104zM275 374q-57 0 -96 -39.5t-39 -96.5q0 -56 39 -96t94 -40t94 40t39 96q0 55 -39 95.5t-92 40.5z" />
    <glyph glyph-name="spade" unicode="&#x2660;" horiz-adv-x="667" 
d="M107 0v18q71 14 103.5 29t62.5 49q53 60 57 159q-7 -15 -14 -27q-20 -34 -56 -54.5t-76 -20.5q-49 0 -85 37t-36 88q0 83 103 169q141 117 164 239q27 -81 51.5 -117.5t99 -104t98.5 -104.5t24 -83q0 -52 -35 -87.5t-87 -35.5q-69 0 -115 62q-12 17 -25 39
q7 -108 59 -163q29 -31 61 -45t106 -29v-18h-460z" />
    <glyph glyph-name="club" unicode="&#x2663;" horiz-adv-x="667" 
d="M561 0h-455v18q221 31 221 256q-21 -35 -34 -52q-59 -75 -146 -75q-59 0 -101.5 45t-42.5 107t38.5 104.5t93.5 42.5q32 0 71 -21l15 -8q-35 53 -35 100q0 59 43.5 101t104.5 42t104 -42t43 -101q0 -48 -35 -100q58 29 86 29q55 0 93.5 -42.5t38.5 -104.5
q0 -64 -42.5 -108t-103.5 -44q-37 0 -75.5 19t-64.5 50q-12 14 -38 58q3 -122 59 -182q30 -33 61 -46.5t101 -27.5v-18z" />
    <glyph glyph-name="heart" unicode="&#x2665;" horiz-adv-x="667" 
d="M332 -11q-16 66 -52 128t-134 193q-53 72 -71.5 112t-18.5 83q0 56 37.5 95t92.5 39q74 0 119 -68q14 -21 27 -62q38 131 147 131q55 0 93.5 -38.5t38.5 -92.5q0 -50 -24 -100.5t-86 -128.5q-144 -181 -169 -291z" />
    <glyph glyph-name="diamond" unicode="&#x2666;" horiz-adv-x="667" 
d="M333 693q22 -47 111.5 -173t142.5 -186q-160 -190 -254 -360q-71 135 -253 360q180 226 253 359z" />
    <glyph glyph-name="musicalnote" unicode="&#x266a;" horiz-adv-x="667" 
d="M306 156v511h47v-61l15 -18l52 -63q91 -110 91 -225q0 -93 -57 -162h-28q38 77 38 149q0 65 -32.5 116t-78.5 57v-304q0 -72 -43 -118.5t-110 -46.5q-69 0 -69 61q0 46 36.5 81t84.5 35q28 0 54 -12z" />
    <glyph glyph-name="musicalnotedbl" unicode="&#x266b;" horiz-adv-x="667" 
d="M616 694v-502q0 -47 -17 -81q-19 -38 -55.5 -61t-78.5 -23q-68 0 -68 61q0 45 36 80t83 35q30 0 54 -11v270l-329 -90v-236q0 -60 -29 -100q-46 -63 -123 -63q-69 0 -69 60q0 45 36.5 79.5t84.5 34.5q30 0 54 -11v451zM241 448l329 90v70l-329 -90v-70z" />
    <glyph glyph-name="nmacron" unicode="&#xe00c;" horiz-adv-x="469" 
d="M68 415h71v-50q49 60 120 60q83 0 119 -57q23 -36 23 -111v-257h-71v245q0 59 -14 81q-21 34 -74 34q-54 0 -78.5 -36.5t-24.5 -116.5v-207h-71v415zM100 587h269v-60h-269v60z" />
    <glyph glyph-name="ahungarumlaut" unicode="&#xeb01;" horiz-adv-x="524" 
d="M385 415h71v-415h-71v58q-58 -70 -143 -70q-86 0 -143 62.5t-57 158.5q0 94 56 155t142 61t145 -69v59zM252 360q-58 0 -97.5 -43t-39.5 -107q0 -68 38.5 -112.5t97.5 -44.5q61 0 100 43.5t39 111.5q0 67 -38.5 109.5t-99.5 42.5zM346 625l-132 -138l-37 23l105 146z
M480 625l-133 -138l-37 23l106 146z" />
    <glyph glyph-name="Dbreve" unicode="&#xeb06;" horiz-adv-x="633" 
d="M87 0v667h137q153 0 245 -77q115 -97 115 -256q0 -160 -117 -257q-93 -77 -244 -77h-136zM162 69h65q119 0 191 61q91 77 91 203q0 128 -90 204q-73 61 -192 61h-65v-529zM154 861h63q17 -67 74 -67q60 0 76 67h64q-7 -61 -44 -95.5t-95 -34.5q-71 0 -110 49
q-24 30 -28 81z" />
    <glyph glyph-name="gcommamirror" unicode="&#xeb0c;" horiz-adv-x="525" 
d="M456 415v-406q0 -108 -40 -163q-56 -77 -165 -77q-90 0 -144.5 51t-57.5 139h70q4 -45 20 -70q35 -55 113 -55q133 0 133 163v61q-60 -69 -147 -69q-84 0 -140.5 62.5t-56.5 154.5q0 94 57.5 156.5t143.5 62.5q84 0 143 -69v59h71zM250 360q-59 0 -97.5 -43t-38.5 -110
t38 -110t97 -43q61 0 100 42.5t39 109.5q0 68 -38.5 111t-99.5 43zM286 489l-69 21l65 153l51 -16z" />
    <glyph glyph-name="ocommaaccent" unicode="&#xeb15;" horiz-adv-x="521" 
d="M261 424q92 0 155.5 -63t63.5 -155t-63.5 -155t-157.5 -63q-92 0 -155 64t-63 158q0 88 64.5 151t155.5 63zM260 359q-62 0 -104 -43.5t-42 -107.5q0 -68 40.5 -111.5t104.5 -43.5q65 0 106.5 43t41.5 110t-41.5 110t-105.5 43zM226 -53l69 -21l-65 -154l-51 16z" />
    <glyph glyph-name="Sbreve" unicode="&#xeb1e;" horiz-adv-x="517" 
d="M443 574l-59 -38q-25 40 -50.5 56t-64.5 16q-47 0 -78.5 -29.5t-31.5 -73.5t42 -72q23 -16 115 -56q80 -35 115.5 -78t35.5 -106q0 -86 -61.5 -145.5t-150.5 -59.5q-79 0 -132.5 45t-72.5 127l72 20q11 -45 27 -68q38 -54 109 -54q56 0 95 38t39 93q0 60 -55 95
q-12 8 -118 58q-72 32 -103.5 70.5t-31.5 93.5q0 74 53.5 123t133.5 49q112 0 172 -104zM137 861h64q16 -67 74 -67q59 0 75 67h64q-8 -62 -44.5 -96t-94.5 -34q-71 0 -110 49q-24 30 -28 81z" />
    <glyph glyph-name="Tcaron_1" unicode="&#xeb22;" horiz-adv-x="567" 
d="M249 598v-598h-75v598h-161v69h398v-69h-162zM491 670l76 -24l-79 -152l-51 17z" />
    <glyph glyph-name="tcaron_1" unicode="&#xeb23;" horiz-adv-x="214" 
d="M139 349v-349h-71v349h-43v66h43v150h71v-150h74v-66h-74zM230 726l-122 -119l-124 119l49 41l75 -76l74 76z" />
    <glyph glyph-name="ucommaaccent" unicode="&#xeb26;" horiz-adv-x="465" 
d="M139 415v-242q0 -53 13 -77q23 -43 80 -43q59 0 81 43q13 25 13 77v242h71v-250q0 -84 -38 -125q-48 -52 -127 -52q-78 0 -126 52q-38 41 -38 125v250h71zM199 -53l69 -21l-65 -154l-51 16z" />
    <glyph glyph-name="yhungarumlaut" unicode="&#xeb2b;" horiz-adv-x="460" 
d="M199 39l-191 376h82l147 -297l134 297h81l-307 -649h-80zM311 625l-133 -138l-36 23l105 146zM445 625l-133 -138l-37 23l106 146z" />
    <glyph glyph-name="dcaron_1" unicode="&#xeb30;" horiz-adv-x="524" 
d="M385 729h71v-729h-71v57q-57 -69 -144 -69q-86 0 -142.5 62.5t-56.5 157.5q0 94 56 155t142 61t145 -68v373zM252 359q-58 0 -97.5 -43t-39.5 -106q0 -68 38.5 -112.5t97.5 -44.5q61 0 100 43.5t39 111.5q0 67 -38.5 109t-99.5 42zM545 887l-123 -119l-124 119l50 41
l74 -76l75 76z" />
    <glyph glyph-name="Lcaron_1" unicode="&#xeb31;" horiz-adv-x="358" 
d="M162 667v-598h183v-69h-258v667h75zM268 670l76 -24l-78 -152l-51 17z" />
    <glyph glyph-name="Commaaccent" unicode="&#xeb86;" 
d="M356 670l76 -24l-79 -152l-51 17z" />
    <glyph glyph-name="commaaccent" unicode="&#xeb87;" 
d="M342 733l69 -21l-65 -154l-51 16z" />
    <glyph glyph-name="commamirror" unicode="&#xeb9d;" 
d="M261 489l-69 21l65 153l51 -16z" />
    <glyph glyph-name="Slashstroke" unicode="&#xeb9e;" 
d="M347 480v-77l-256 -166v77z" />
    <glyph glyph-name="slashstroke" unicode="&#xeb9f;" 
d="M356 457v-77l-200 -134v78z" />
    <glyph glyph-name="Dieresisnarrow" unicode="&#xebce;" 
d="M182 849q21 0 36 -15t15 -36t-15 -36t-36 -15t-36 15t-15 37q0 20 15 35t36 15zM317 849q21 0 36 -15t15 -36t-15 -36t-36 -15t-36 15t-15 37q0 20 15 35t36 15z" />
    <glyph glyph-name="dieresisnarrow" unicode="&#xebcf;" 
d="M185 608q20 0 34 -14t14 -34q0 -19 -14 -33.5t-34 -14.5t-34 14.5t-14 34.5q0 19 14.5 33t33.5 14zM314 608q20 0 34 -14t14 -34q0 -19 -14 -33.5t-34 -14.5t-34 14.5t-14 34.5q0 19 14.5 33t33.5 14z" />
    <glyph glyph-name="Pts" unicode="&#xec00;" horiz-adv-x="837" 
d="M162 292v-292h-75v667h121q113 0 168 -47q62 -53 62 -141q0 -84 -54.5 -135.5t-156.5 -51.5h-65zM162 360h60q68 0 105.5 31.5t37.5 88.5q0 56 -36 87t-112 31h-55v-238zM515 241v-241h-60v241h-37v53h37v103h60v-103h58v-53h-58zM809 248l-52 -26q-15 28 -40 28
q-31 0 -31 -27q0 -21 48 -39q41 -16 58 -28q33 -24 33 -65q0 -42 -31.5 -70.5t-77.5 -28.5q-80 0 -110 77l51 23q24 -46 59 -46q44 0 44 41q0 26 -49 45t-67.5 37.5t-18.5 49.5q0 36 27 60.5t67 24.5q61 0 90 -56z" />
    <glyph glyph-name="peseta2" unicode="&#xec01;" horiz-adv-x="567" 
d="M183 0h-75v449h-56v57h56v161h121q81 0 128 -20.5t75 -67.5q19 -33 25 -73h62v-57h-62q-26 -157 -209 -157h-65v-292zM382 449h-199v-89h60q114 0 139 89zM183 506h200q-20 92 -145 92h-55v-92z" />
    <glyph glyph-name="onenarrow" unicode="&#xec02;" horiz-adv-x="567" 
d="M264 598h-110l39 69h146v-667h-75v598z" />
    <glyph glyph-name="oneone" unicode="&#xec03;" horiz-adv-x="860" 
d="M165 620h-71l28 47h96v-400h-53v353zM604 680l39 -21l-388 -672l-39 23zM664 353h-71l28 47h96v-400h-53v353z" />
    <glyph glyph-name="space10mm" unicode="&#xec05;" horiz-adv-x="67" 
 />
    <glyph glyph-name="space5mm" unicode="&#xec06;" horiz-adv-x="33" 
 />
    <glyph glyph-name="space2mm" unicode="&#xec07;" horiz-adv-x="13" 
 />
    <glyph glyph-name="space1mm" unicode="&#xec08;" horiz-adv-x="7" 
 />
    <glyph glyph-name="spacehalfmm" unicode="&#xec09;" horiz-adv-x="3" 
 />
    <glyph glyph-name="eightperemspace" unicode="&#xec04;" horiz-adv-x="125" 
 />
    <glyph glyph-name="ft" unicode="&#xec0a;" horiz-adv-x="453" 
d="M139 349v-349h-71v349h-39v66h39v177q0 74 24 105q34 44 99 44q23 0 53 -9v-72q-28 10 -48 10q-34 0 -45.5 -19.5t-11.5 -75.5v-160h91v-66h-91zM379 349v-349h-71v349h-44v66h44v150h71v-150h73v-66h-73z" />
    <glyph glyph-name="fff" unicode="&#xec0b;" horiz-adv-x="718" 
d="M139 349v-349h-71v349h-39v66h39v177q0 74 24 105q34 44 99 44q23 0 53 -9v-72q-28 10 -48 10q-34 0 -45.5 -19.5t-11.5 -75.5v-160h91v-66h-91zM379 349v-349h-71v349h-40v66h40v177q0 74 24 105q34 44 99 44q22 0 52 -9v-72q-26 10 -47 10q-34 0 -45.5 -19.5
t-11.5 -75.5v-160h91v-66h-91zM618 349v-349h-71v349h-39v66h39v177q0 74 24 105q34 44 99 44q22 0 52 -9v-72q-26 10 -47 10q-34 0 -45.5 -19.5t-11.5 -75.5v-160h104v-66h-104z" />
    <glyph glyph-name="fft" unicode="&#xec0c;" horiz-adv-x="693" 
d="M139 349v-349h-71v349h-39v66h39v177q0 74 24 105q34 44 99 44q23 0 53 -9v-72q-28 10 -48 10q-34 0 -45.5 -19.5t-11.5 -75.5v-160h91v-66h-91zM379 349v-349h-71v349h-40v66h40v177q0 74 24 105q34 44 99 44q22 0 52 -9v-72q-26 10 -47 10q-34 0 -45.5 -19.5
t-11.5 -75.5v-160h91v-66h-91zM618 349v-349h-71v349h-39v66h39v150h71v-150h74v-66h-74z" />
    <glyph glyph-name="currency_2" unicode="&#xec13;" horiz-adv-x="667" 
d="M55 123l95 94q-52 73 -52 143q0 69 50 141l-95 95l41 42l96 -95q46 31 75 41.5t69 10.5q68 0 143 -51l95 94l41 -42l-94 -94q50 -75 50 -142t-50 -141l95 -96l-40 -41l-96 95q-72 -51 -143 -51q-66 0 -144 50l-95 -94zM336 529q-71 0 -120.5 -49t-49.5 -120
q0 -69 49.5 -118.5t118.5 -49.5t118.5 49.5t49.5 118.5t-49 119t-117 50z" />
    <glyph glyph-name="Dotaccent" unicode="&#xefed;" 
d="M250 850q22 0 38 -15.5t16 -37.5t-15.5 -38t-37.5 -16t-38 16t-16 38t16 37.5t37 15.5z" />
    <glyph glyph-name="Breve" unicode="&#xefee;" 
d="M112 861h64q16 -67 74 -67q59 0 75 67h64q-7 -61 -43.5 -95.5t-95.5 -34.5q-71 0 -110 49q-24 30 -28 81z" />
    <glyph glyph-name="Ogonek" unicode="&#xeff1;" 
d="M374 0h68q-13 -10 -19 -14q-56 -40 -56 -75q0 -16 11.5 -27.5t28.5 -11.5q25 0 54 16l-7 -61q-24 -16 -59 -16q-40 0 -67.5 25t-27.5 62q0 51 74 102z" />
    <glyph glyph-name="Cedilla" unicode="&#xeff2;" 
d="M357 -79l-110 -130l-51 26l89 136z" />
    <glyph glyph-name="Ring" unicode="&#xeff3;" 
d="M249 896q37 0 64 -26.5t27 -63.5t-26.5 -64t-63.5 -27q-38 0 -64.5 27t-26.5 65q0 36 26.5 62.5t63.5 26.5zM250 847q-17 0 -29.5 -12t-12.5 -29t12.5 -29.5t29.5 -12.5t29 12.5t12 29.5t-12 29t-29 12z" />
    <glyph glyph-name="Tilde" unicode="&#xeff5;" 
d="M146 746l-43 34q36 71 89 71q23 0 63 -20.5t56 -20.5q24 0 45 43l43 -33q-34 -72 -91 -72q-24 0 -64 20.5t-57 20.5q-20 0 -41 -43z" />
    <glyph glyph-name="Circumflex" unicode="&#xeff7;" 
d="M110 762l139 119l141 -119l-53 -41l-88 76l-87 -76z" />
    <glyph glyph-name="Commabelow" unicode="&#xf634;" 
d="M228 -53l76 -24l-79 -152l-51 16z" />
    <glyph glyph-name="zeronarrow" unicode="&#xf639;" horiz-adv-x="567" 
d="M284 677q101 0 169.5 -98.5t68.5 -243.5t-66 -244q-31 -47 -78 -74.5t-94 -27.5q-49 0 -97 29t-79 78q-63 98 -63 240q0 143 69.5 242t169.5 99zM283 609q-70 0 -117.5 -79t-47.5 -195q0 -120 47 -198.5t119 -78.5q69 0 117 80t48 195q0 118 -47.5 197t-118.5 79z" />
    <glyph glyph-name="twonarrow" unicode="&#xf63a;" horiz-adv-x="567" 
d="M201 69h279v-69h-430l242 281q67 78 91.5 120t24.5 80q0 53 -39 90.5t-95 37.5q-75 0 -111 -58q-18 -29 -22 -79h-75q8 75 34 115q58 90 173 90q88 0 148 -57.5t60 -140.5q0 -55 -28 -104t-116 -150z" />
    <glyph glyph-name="threenarrow" unicode="&#xf63b;" horiz-adv-x="567" 
d="M254 317v65q51 1 79 17q53 30 53 97q0 49 -32.5 81t-81.5 32q-63 0 -92 -43q-13 -20 -21 -64h-73q9 63 31 98q48 77 154 77q82 0 135 -51t53 -128q0 -100 -85 -148q95 -44 95 -161q0 -86 -59 -143t-148 -57q-56 0 -102.5 25.5t-70.5 68.5q-20 36 -24 90h72q6 -43 23 -65
q37 -50 105 -50q55 0 93 39t38 95q0 81 -66 111q-28 13 -76 14z" />
    <glyph glyph-name="fournarrow" unicode="&#xf63c;" horiz-adv-x="567" 
d="M435 176h82v-67h-82v-109h-74v109h-342l416 594v-527zM361 176v301l-211 -301h211z" />
    <glyph glyph-name="fivenarrow" unicode="&#xf63d;" horiz-adv-x="567" 
d="M477 598h-213l-44 -143q23 4 38 4q97 0 160.5 -65.5t63.5 -165.5q0 -103 -69.5 -171t-175.5 -68q-130 0 -204 119l59 42q58 -92 151 -92q70 0 118 49t48 120q0 70 -47.5 118t-117.5 48q-58 0 -129 -45l97 319h265v-69z" />
    <glyph glyph-name="sixnarrow" unicode="&#xf63e;" horiz-adv-x="567" 
d="M335 684l56 -42l-154 -214q33 10 62 10q89 0 151 -64.5t62 -155.5q0 -94 -67 -161.5t-162 -67.5q-94 0 -162 66.5t-68 158.5q0 77 55 154zM283 372q-65 0 -111 -46t-46 -111t46 -111t111 -46q64 0 110 46t46 109q0 67 -45.5 113t-110.5 46z" />
    <glyph glyph-name="sevennarrow" unicode="&#xf63f;" horiz-adv-x="567" 
d="M437 598h-364v69h491l-447 -683l-58 39z" />
    <glyph glyph-name="eightnarrow" unicode="&#xf640;" horiz-adv-x="567" 
d="M184 347q-82 49 -82 147q0 78 53.5 130.5t133.5 52.5t133.5 -52.5t53.5 -130.5q0 -45 -23 -85t-61 -62q97 -48 97 -161q0 -85 -57 -141t-143 -56q-87 0 -145.5 56t-58.5 139q0 112 99 163zM289 609q-47 0 -81.5 -34t-34.5 -80q0 -49 34 -83.5t82 -34.5t82 34t34 82
t-34 82t-82 34zM287 314q-52 0 -90.5 -37.5t-38.5 -88.5q0 -54 37.5 -92t91.5 -38q53 0 91 37.5t38 90.5t-38 90.5t-91 37.5z" />
    <glyph glyph-name="ninenarrow" unicode="&#xf641;" horiz-adv-x="567" 
d="M231 -16l-55 41l153 214q-32 -9 -61 -9q-89 0 -151.5 64t-62.5 156q0 94 67 160.5t162 66.5t163 -66t68 -158q0 -78 -55 -154zM284 609q-65 0 -111 -45.5t-46 -109.5q0 -66 46 -112t111 -46t111 46t46 111t-46 110.5t-111 45.5z" />
    <glyph glyph-name="dotlessj" unicode="&#xf6be;" horiz-adv-x="208" 
d="M139 415v-649h-71v649h71z" />
    <glyph glyph-name="Scedilla1" unicode="&#xf6c1;" horiz-adv-x="517" 
d="M443 574l-59 -38q-25 40 -50.5 56t-64.5 16q-47 0 -78.5 -29.5t-31.5 -73.5t42 -72q23 -16 115 -56q80 -35 115.5 -78t35.5 -106q0 -86 -61.5 -145.5t-150.5 -59.5q-79 0 -132.5 45t-72.5 127l72 20q11 -45 27 -68q38 -54 109 -54q56 0 95 38t39 93q0 60 -55 95
q-12 8 -118 58q-72 32 -103.5 70.5t-31.5 93.5q0 74 53.5 123t133.5 49q112 0 172 -104zM319 -79l-110 -130l-51 26l90 136z" />
    <glyph glyph-name="scedilla1" unicode="&#xf6c2;" horiz-adv-x="350" 
d="M297 349l-59 -31q-22 41 -58 41q-20 0 -35 -13.5t-15 -32.5q0 -18 13.5 -30t53.5 -29q57 -24 79 -40q46 -34 46 -91t-41 -96t-101 -39q-104 0 -145 106l63 26q31 -67 83 -67q29 0 48.5 19t19.5 47q0 23 -14 37t-53 31q-72 31 -96 55.5t-24 65.5q0 50 34.5 83t86.5 33
q76 0 114 -75zM227 -74l-100 -128l-50 25l84 130z" />
    <glyph glyph-name="Acute" unicode="&#xf6c9;" 
d="M398 837l-143 -117l-43 32l119 130z" />
    <glyph glyph-name="Caron" unicode="&#xf6ca;" 
d="M390 840l-139 -119l-141 119l53 41l88 -75l87 75z" />
    <glyph glyph-name="Dieresis" unicode="&#xf6cb;" 
d="M155 849q21 0 36 -15t15 -36t-15 -36t-36 -15t-36 15t-15 37q0 20 15 35t36 15zM345 849q21 0 36 -15t15 -36t-15 -36t-36 -15t-36 15t-15 37q0 20 15 35t36 15z" />
    <glyph glyph-name="Grave" unicode="&#xf6ce;" 
d="M102 837l67 45l119 -130l-43 -32z" />
    <glyph glyph-name="Hungarumlaut" unicode="&#xf6cf;" 
d="M312 846l-147 -122l-35 28l118 130zM479 846l-147 -122l-35 28l118 130z" />
    <glyph glyph-name="Macron" unicode="&#xf6d0;" 
d="M117 824h293v-62h-293v62z" />
    <glyph glyph-name="onefitted" unicode="&#xf6dc;" horiz-adv-x="365" 
d="M163 598h-110l39 69h146v-667h-75v598z" />
    <glyph glyph-name="centsuperior" unicode="&#xf6e0;" horiz-adv-x="387" 
d="M227 657v-55q44 -7 71 -25v-63q-46 43 -87 43q-37 0 -61 -24.5t-24 -62.5q0 -37 24 -61t62 -24q39 0 86 44v-66q-38 -19 -71 -24v-59h-43v60q-109 30 -109 131q0 105 109 130v56h43z" />
    <glyph glyph-name="commasuperior" unicode="&#xf6e2;" horiz-adv-x="161" 
d="M72 340l54 -18l-68 -143l-42 15z" />
    <glyph glyph-name="dollarsuperior" unicode="&#xf6e4;" horiz-adv-x="387" 
d="M219 723v-52q58 -9 90 -63l-43 -26q-27 44 -69 44q-26 0 -44 -16.5t-18 -39.5q0 -33 63.5 -61.5t84.5 -44.5q40 -30 40 -80q0 -43 -28.5 -76t-75.5 -44v-57h-43v55q-95 11 -118 103l48 14q26 -69 85 -69q34 0 57 21t23 52q0 25 -16.5 39.5t-73.5 40.5q-45 20 -63 35
q-34 28 -34 72q0 38 25.5 66t66.5 35v52h43z" />
    <glyph glyph-name="hyphensuperior" unicode="&#xf6e6;" horiz-adv-x="132" 
d="M3 422h126v-50h-126v50z" />
    <glyph glyph-name="periodsuperior" unicode="&#xf6e8;" horiz-adv-x="161" 
d="M80 334q15 0 25.5 -10.5t10.5 -25.5t-11 -26t-25 -11q-16 0 -26.5 11t-10.5 26t11 25.5t26 10.5z" />
    <glyph glyph-name="asuperior" unicode="&#xf6e9;" horiz-adv-x="345" 
d="M242 521h57v-254h-57v24q-35 -31 -83 -31q-56 0 -93 38.5t-37 96.5q0 57 37 94.5t93 37.5q48 0 83 -31v25zM166 476q-34 0 -56.5 -23t-22.5 -58q0 -37 22 -60.5t57 -23.5t56.5 23t21.5 61q0 37 -21.5 59t-56.5 22z" />
    <glyph glyph-name="esuperior" unicode="&#xf6ec;" horiz-adv-x="318" 
d="M290 379h-201q11 -68 75 -68q26 0 41.5 11t35.5 42l49 -26q-16 -25 -26 -36q-40 -42 -101 -42q-59 0 -96.5 37t-37.5 96t37 96.5t95 37.5t93.5 -37t35.5 -97v-14zM93 427h135q-16 49 -67 49q-52 0 -68 -49z" />
    <glyph glyph-name="isuperior" unicode="&#xf6ed;" horiz-adv-x="149" 
d="M104 521v-254h-58v254h58zM74 644q15 0 26 -11t11 -26q0 -16 -11 -27t-27 -11q-15 0 -26 11t-11 27q0 15 11 26t27 11z" />
    <glyph glyph-name="lsuperior" unicode="&#xf6ee;" horiz-adv-x="148" 
d="M103 703v-436h-58v436h58z" />
    <glyph glyph-name="msuperior" unicode="&#xf6ef;" horiz-adv-x="442" 
d="M45 521h58v-17q26 23 56 23q46 0 72 -34q25 34 75 34q90 0 90 -101v-159h-58v153q0 56 -39 56q-48 0 -48 -69v-140h-58v149q0 60 -41 60q-49 0 -49 -72v-137h-58v254z" />
    <glyph glyph-name="osuperior" unicode="&#xf6f0;" horiz-adv-x="337" 
d="M169 526q58 0 98.5 -38.5t40.5 -94.5t-40.5 -94.5t-98.5 -38.5q-59 0 -99.5 38.5t-40.5 96.5q0 54 41 92.5t99 38.5zM168 475q-35 0 -58 -23t-23 -58q0 -37 23 -60t58 -23q36 0 59 23t23 59t-23 59t-59 23z" />
    <glyph glyph-name="rsuperior" unicode="&#xf6f1;" horiz-adv-x="203" 
d="M45 521h58v-22q23 28 53 28q19 0 47 -14l-28 -50l-6 4q-10 7 -22 7q-44 0 -44 -74v-133h-58v254z" />
    <glyph glyph-name="ssuperior" unicode="&#xf6f2;" horiz-adv-x="237" 
d="M203 473l-48 -24l-3 6q-10 20 -30 20q-24 0 -24 -20q0 -13 37 -27.5t51 -24.5q31 -21 31 -58q0 -36 -27.5 -60.5t-67.5 -24.5q-69 0 -99 71l51 20q21 -40 49 -40q36 0 36 32q0 18 -38 33q-47 19 -63 34.5t-16 41.5q0 31 23.5 52.5t58.5 21.5q50 0 79 -53z" />
    <glyph glyph-name="tsuperior" unicode="&#xf6f3;" horiz-adv-x="153" 
d="M104 469v-202h-58v202h-27v52h27v87h58v-87h45v-52h-45z" />
    <glyph glyph-name="ff" unicode="&#xfb00;" horiz-adv-x="479" 
d="M139 349v-349h-71v349h-39v66h39v177q0 74 24 105q34 44 99 44q23 0 53 -9v-72q-28 10 -48 10q-34 0 -45.5 -19.5t-11.5 -75.5v-160h91v-66h-91zM379 349v-349h-71v349h-40v66h40v177q0 74 24 105q34 44 99 44q22 0 52 -9v-72q-26 10 -47 10q-34 0 -45.5 -19.5
t-11.5 -75.5v-160h104v-66h-104z" />
    <glyph glyph-name="ffi" unicode="&#xfb03;" horiz-adv-x="686" 
d="M139 349v-349h-71v349h-39v66h39v177q0 74 24 105q34 44 99 44q23 0 53 -9v-72q-28 10 -48 10q-34 0 -45.5 -19.5t-11.5 -75.5v-160h91v-66h-91zM379 349v-349h-71v349h-40v66h40v177q0 74 24 105q34 44 99 44q22 0 52 -9v-72q-26 10 -47 10q-34 0 -45.5 -19.5
t-11.5 -75.5v-160h104v-66h-104zM618 415v-415h-71v415h71zM583 623q21 0 36 -15t15 -36t-15 -36t-36 -15t-36 15t-15 37q0 20 15 35t36 15z" />
    <glyph glyph-name="ffl" unicode="&#xfb04;" horiz-adv-x="686" 
d="M139 349v-349h-71v349h-39v66h39v177q0 74 24 105q34 44 99 44q23 0 53 -9v-72q-28 10 -48 10q-34 0 -45.5 -19.5t-11.5 -75.5v-160h91v-66h-91zM379 349v-349h-71v349h-40v66h40v177q0 74 24 105q34 44 99 44q22 0 52 -9v-72q-28 10 -47 10q-34 0 -45.5 -19.5
t-11.5 -75.5v-160h104v-66h-104zM618 729v-729h-71v729h71z" />
    <glyph glyph-name="glyph584" horiz-adv-x="250" 
 />
    </font>
</defs>
</svg>
