<?xml version="1.0" standalone="no"?>
<!DOCTYPE svg PUBLIC "-//W3C//DTD SVG 1.1//EN" "http://www.w3.org/Graphics/SVG/1.1/DTD/svg11.dtd" >
<svg>
<metadata>
Created by FontForge 20090622 at Sun Oct 18 16:05:47 2015
 By deploy user
Digitized data copyright &#194;&#169; 1991-99 The Monotype Corporation, Inc. All rights reserved. Generic&#194;&#174; is a trademark of The Monotype Corporation, Inc. which may be registered in certain jurisdictions.
</metadata>
<defs>
<font id="TimesNRCondensed" horiz-adv-x="918" >
  <font-face 
    font-family="Times NR Condensed"
    font-weight="400"
    font-stretch="normal"
    units-per-em="2048"
    panose-1="2 2 6 6 5 4 5 2 3 4"
    ascent="1638"
    descent="-410"
    x-height="944"
    cap-height="1397"
    bbox="-301 -512 2048 1884"
    underline-thickness="102"
    underline-position="-154"
    unicode-range="U+0020-U+F006"
  />
<missing-glyph horiz-adv-x="1024" 
d="M51 0v1536h922v-1536h-922zM179 128h666v1280h-666v-1280z" />
    <glyph glyph-name=".notdef" horiz-adv-x="1024" 
d="M51 0v1536h922v-1536h-922zM179 128h666v1280h-666v-1280z" />
    <glyph glyph-name=".null" horiz-adv-x="0" 
 />
    <glyph glyph-name="nonmarkingreturn" horiz-adv-x="389" 
 />
    <glyph glyph-name="space" unicode=" " horiz-adv-x="389" 
 />
    <glyph glyph-name="exclam" unicode="!" horiz-adv-x="512" 
d="M272 377h-34q-4 122 -20.5 258.5l-44.5 354.5t-28 276q0 78 29 119.5t84 41.5q52 0 80.5 -37.5t28.5 -105.5q0 -69 -10.5 -155t-37 -274t-37 -285.5t-10.5 -192.5zM256 199q46 0 78.5 -31.5t32.5 -79.5t-32.5 -80.5t-78.5 -32.5q-47 0 -80 33t-33 80t33 79t80 32z" />
    <glyph glyph-name="quotedbl" unicode="&#x22;" horiz-adv-x="836" 
d="M578 844l-58 317q-18 92 -18 144q0 122 96 122q30 0 53.5 -13t37 -38.5t13.5 -56.5q0 -30 -6.5 -72.5t-13.5 -75.5l-61 -327h-43zM211 844l-57 317q-19 87 -19 144q0 122 96 122q29 0 53.5 -13t38 -38.5t13.5 -56.5q0 -61 -21 -148l-61 -327h-43z" />
    <glyph glyph-name="numbersign" unicode="#" horiz-adv-x="1368" 
d="M420 1006l84 403h123l-84 -403h420l84 403h122l-84 -403h193v-123h-219l-78 -371h297v-123h-324l-84 -401h-122l83 401h-419l-84 -401h-123l84 401h-199v123h225l78 371h-303v123h330zM936 883h-420l-78 -371h420z" />
    <glyph glyph-name="dollar" unicode="$" 
d="M414 -143v120q-170 5 -336 86v289h35q66 -287 301 -313v590q-106 78 -171 137.5t-101.5 109.5t-49 92.5t-12.5 86.5q0 84 42.5 153.5t119 111.5t172.5 48v92h63v-92q90 -3 165 -23.5t151 -64.5v-303h-37q-10 156 -85 236.5t-194 91.5v-498q160 -124 235.5 -198.5
t103.5 -135t28 -135.5q0 -146 -101 -244.5t-266 -116.5v-120h-63zM414 856v447q-83 -17 -130.5 -68.5t-47.5 -122.5q0 -40 17 -79.5t54.5 -81t106.5 -95.5zM477 580v-539q100 20 154.5 80.5t54.5 150.5q0 54 -19 99t-65 95t-125 114z" />
    <glyph glyph-name="percent" unicode="%" horiz-adv-x="1450" 
d="M1059 362q0 -154 28 -241.5t76 -87.5q34 0 58 38.5t36.5 110.5t12.5 180q0 154 -28 242t-79 88q-49 0 -76.5 -87t-27.5 -243zM356 -12h-82l822 1431h80zM180 1044q0 -154 28 -241.5t77 -87.5q50 0 78 87.5t28 241.5t-28 242t-78 88t-77.5 -87t-27.5 -243zM920 362
q0 108 31.5 193t88 133.5t123.5 48.5q69 0 126 -48.5t88.5 -133.5t31.5 -193t-31.5 -192.5t-88.5 -133t-126 -48.5q-103 0 -173 107t-70 267zM41 1044q0 108 31.5 193t88 133.5t124.5 48.5q69 0 125.5 -48.5t88 -133.5t31.5 -193q0 -161 -69.5 -267.5t-175.5 -106.5
q-105 0 -174.5 106.5t-69.5 267.5z" />
    <glyph glyph-name="ampersand" unicode="&#x26;" horiz-adv-x="1217" 
d="M45 303q0 82 29.5 160.5t102 157.5t190.5 151q-28 75 -42 125t-21 98.5t-7 102.5q0 97 35 172t100 116t146 41q51 0 94 -16.5t75.5 -48.5t49 -76.5t16.5 -97.5q0 -70 -26.5 -130t-82 -118.5t-149.5 -122.5q35 -98 82 -202.5t108 -217.5q129 235 129 371q0 92 -75 100v35
h329v-35q-55 -2 -92 -39q-17 -17 -36.5 -56.5t-52 -118t-73 -162t-90.5 -164.5q36 -63 63 -100.5t51.5 -60.5t52.5 -36.5t55 -13.5q49 0 83.5 35.5t59.5 111.5l35 -10q-23 -90 -60 -155t-84.5 -97.5t-105.5 -32.5q-68 0 -135 48.5t-137 146.5q-63 -72 -116 -114.5
t-106 -61.5t-110 -19q-83 0 -148 42.5t-101 119t-36 172.5zM530 887q92 64 132 134.5t40 168.5q0 78 -31.5 122t-86.5 44q-56 0 -88.5 -46t-32.5 -124q0 -129 67 -299zM389 709q-97 -73 -138.5 -139.5t-41.5 -151.5q0 -74 31 -145.5t81 -114.5t105 -43q98 0 197 110
q-41 59 -112.5 207.5t-121.5 276.5z" />
    <glyph glyph-name="quotesingle" unicode="'" horiz-adv-x="369" 
d="M160 844l-58 317q-18 92 -18 144q0 122 96 122q29 0 53.5 -13t38 -38.5t13.5 -56.5q0 -46 -21 -148l-61 -327h-43z" />
    <glyph glyph-name="parenleft" unicode="(" horiz-adv-x="598" 
d="M571 1460v-41q-106 -90 -168.5 -218.5t-88 -297t-25.5 -391.5q0 -164 14 -297.5t46.5 -246t86.5 -202t135 -161.5v-45q-155 108 -260.5 251t-159 319.5t-53.5 379.5q0 153 31 291.5t91 258.5t147 220t204 180z" />
    <glyph glyph-name="parenright" unicode=")" horiz-adv-x="598" 
d="M27 -440v41q81 69 136.5 160.5t86 197t45 244.5t14.5 305q0 165 -14.5 303t-45 244t-86 197.5t-136.5 162.5v45q234 -162 353.5 -401.5t119.5 -548.5q0 -306 -120 -547.5t-353 -402.5z" />
    <glyph glyph-name="asterisk" unicode="*" horiz-adv-x="705" 
d="M123 1321q42 0 61.5 -19.5t67 -79t82.5 -75.5q0 12 -4 31.5t-11.5 44.5l-11.5 39q-28 82 -28 116q0 35 21 58.5t52 23.5t51.5 -23.5t20.5 -58.5q0 -42 -28.5 -115.5t-28.5 -115.5q37 18 84 78.5t64.5 78t59.5 17.5q36 0 57 -19.5t21 -50.5q0 -37 -29.5 -56.5t-83 -32
l-97 -22.5t-60.5 -24q18 -16 99.5 -30.5t126 -34t44.5 -70.5q0 -29 -22 -49.5t-53 -20.5q-39 0 -58.5 19.5t-67 77t-85.5 77.5q0 -52 26 -114q31 -76 31 -117q0 -35 -20.5 -58.5t-51.5 -23.5t-52 23.5t-21 58.5q0 33 14 74.5l27.5 82.5t13.5 72q-25 -8 -41.5 -25t-52 -62
t-61 -65t-56.5 -20q-30 0 -52 20t-22 50q0 39 30 60.5t82 32l93.5 19t60.5 23.5q-27 20 -106.5 36t-119.5 34t-40 65q0 30 22 50t52 20z" />
    <glyph glyph-name="plus" unicode="+" horiz-adv-x="1366" 
d="M139 762h477v477h132v-477h477v-131h-477v-477h-132v477h-477v131z" />
    <glyph glyph-name="comma" unicode="," horiz-adv-x="512" 
d="M127 -344v37q199 110 199 256q0 51 -27 51q-7 0 -33 -16q-21 -19 -51 -19q-42 0 -72 33t-30 80q0 53 35 87t88 34q48 0 84.5 -25.5t57.5 -71t21 -104.5q0 -113 -71.5 -202.5t-200.5 -139.5z" />
    <glyph glyph-name="hyphen" unicode="-" horiz-adv-x="598" 
d="M68 395v160h462v-160h-462z" />
    <glyph glyph-name="period" unicode="." horiz-adv-x="512" 
d="M256 199q46 0 78.5 -31.5t32.5 -79.5t-32.5 -80.5t-78.5 -32.5q-47 0 -80 33t-33 80t33 79t80 32z" />
    <glyph glyph-name="slash" unicode="/" horiz-adv-x="575" 
d="M438 1460h137l-438 -1460h-137z" />
    <glyph glyph-name="zero" unicode="0" 
d="M63 700q0 241 60 402.5t153.5 239t190.5 77.5q81 0 152 -55t123 -155t81 -237.5t29 -297.5q0 -221 -56.5 -379t-147 -239t-185.5 -81q-110 0 -202 95.5t-145 262t-53 367.5zM258 682q0 -155 16.5 -298.5t63 -245t129.5 -101.5q64 0 106.5 69t63 213.5t20.5 356.5
q0 682 -198 682q-101 0 -151 -161t-50 -515z" />
    <glyph glyph-name="one" unicode="1" 
d="M553 1419v-1226q0 -83 33 -120.5t108 -37.5v-35h-450v35q74 1 105.5 38.5t31.5 114.5v926q0 72 -15.5 104.5t-50.5 32.5q-32 0 -71 -30l-15 30l289 168h35z" />
    <glyph glyph-name="two" unicode="2" 
d="M866 254l-94 -254h-721v35l240 274q153 177 237 344t84 316q0 86 -30 152.5t-86.5 102.5t-128.5 36q-90 0 -148.5 -56t-79.5 -160h-37q15 113 62 198t121 131t164 46q93 0 171 -47t122 -128.5t44 -180.5q0 -103 -52.5 -228t-176.5 -293t-340 -392h440q53 0 93.5 24
t76.5 80h39z" />
    <glyph glyph-name="three" unicode="3" 
d="M307 696v33q59 14 109 43t82.5 67.5t49.5 88.5t17 106q0 70 -24.5 126t-66.5 88t-97 32q-128 0 -215 -166l-29 12q94 293 320 293q78 0 140 -36.5t97 -102t35 -143.5q0 -169 -160 -308q101 -44 162 -148t61 -235q0 -129 -62.5 -237.5t-171.5 -171t-241 -62.5
q-98 0 -157.5 31.5t-59.5 81.5q0 31 24.5 52.5t59.5 21.5q32 0 55.5 -11t62 -35.5t71.5 -37t75 -12.5q58 0 103 34.5t69.5 97t24.5 142.5q0 82 -32 163.5t-107.5 136.5t-194.5 56z" />
    <glyph glyph-name="four" unicode="4" 
d="M528 350h-487v164l555 905h104v-915h150v-154h-150v-350h-172v350zM528 504v667h-4l-401 -667h405z" />
    <glyph glyph-name="five" unicode="5" 
d="M385 1397h438l-75 -160h-347l-77 -199q141 -20 249.5 -93.5t167 -188t58.5 -252.5q0 -110 -52 -234.5t-155.5 -209.5t-245.5 -85q-92 0 -156.5 40t-64.5 94q0 33 22 53t56 20q30 0 57.5 -15t59.5 -39.5t59 -38t57 -13.5q71 0 124 47t81.5 122.5t28.5 162.5t-33.5 168
t-97 147t-157 106t-204.5 43z" />
    <glyph glyph-name="six" unicode="6" 
d="M815 1419v-37q-120 -7 -226 -85.5t-181 -213t-109 -307.5l4 -4q99 102 236 102q67 0 125 -29t101 -81t66 -120.5t23 -151.5q0 -126 -43.5 -246t-129 -195.5t-202.5 -75.5q-84 0 -156 41.5t-125.5 120t-81.5 185.5t-28 237q0 188 59.5 347.5t159 274.5t222.5 177t253 62
q22 0 33 -1zM289 700q-10 -74 -10 -174q0 -151 26.5 -261t76.5 -166t122 -56q83 0 127.5 77.5t44.5 221.5q0 133 -25.5 233.5t-73 153.5t-112.5 53q-93 0 -176 -82z" />
    <glyph glyph-name="seven" unicode="7" 
d="M842 1397l-404 -1422l-106 31l348 1231h-268q-95 0 -150 -15.5t-90.5 -53.5t-62.5 -107l-33 10l114 326h652z" />
    <glyph glyph-name="eight" unicode="8" 
d="M342 711q-81 70 -129 131.5t-71 122.5t-23 129q0 95 42.5 168.5t121.5 115t178 41.5q102 0 175 -46t110.5 -117t37.5 -140q0 -94 -57.5 -173t-191.5 -171q153 -119 216.5 -217.5t63.5 -218.5q0 -100 -46.5 -182.5t-128.5 -130.5t-181 -48q-73 0 -139.5 26.5t-115.5 74.5
t-75.5 112t-26.5 134q0 207 240 389zM483 815q81 59 120.5 136.5t39.5 172.5q0 106 -53.5 173t-140.5 67q-56 0 -99 -27t-66.5 -75t-23.5 -105q0 -47 20.5 -99.5t71 -114t131.5 -128.5zM387 666q-70 -54 -103.5 -130t-33.5 -184q0 -145 61.5 -230t167.5 -85q85 0 142 62.5
t57 158.5q0 101 -62.5 187.5t-228.5 220.5z" />
    <glyph glyph-name="nine" unicode="9" 
d="M102 -25v37q91 7 172.5 51.5t152 127t119.5 192.5t72 235l-4 5q-98 -103 -235 -103q-89 0 -161.5 50t-113.5 138t-41 195q0 128 44.5 248t130 194t200.5 74q85 0 159 -42.5t126 -119t80 -184t28 -237.5q0 -123 -28 -242.5t-87.5 -228t-150.5 -199.5q-192 -192 -426 -192
q-24 0 -37 1zM629 694q5 41 6.5 75t1.5 99q0 152 -26 261.5t-75.5 166t-121.5 56.5q-82 0 -127 -77.5t-45 -221.5q0 -134 25.5 -234.5t73 -153.5t112.5 -53q90 0 176 82z" />
    <glyph glyph-name="colon" unicode=":" horiz-adv-x="512" 
d="M256 965q47 0 79 -32t32 -79q0 -48 -32.5 -80.5t-78.5 -32.5q-47 0 -80 33t-33 80q0 46 32.5 78.5t80.5 32.5zM256 199q46 0 78.5 -31.5t32.5 -79.5t-32.5 -80.5t-78.5 -32.5q-47 0 -80 33t-33 80t33 79t80 32z" />
    <glyph glyph-name="semicolon" unicode=";" horiz-adv-x="512" 
d="M127 -344v37q199 110 199 256q0 51 -27 51q-7 0 -33 -16q-21 -19 -51 -19q-42 0 -72 33t-30 80q0 53 35 87t88 34q48 0 84.5 -25.5t57.5 -71t21 -104.5q0 -113 -71.5 -202.5t-200.5 -139.5zM258 965q47 0 79 -32t32 -79q0 -48 -32.5 -80.5t-78.5 -32.5q-47 0 -80 33
t-33 80q0 46 32.5 78.5t80.5 32.5z" />
    <glyph glyph-name="less" unicode="&#x3c;" horiz-adv-x="1366" 
d="M1225 180l-1086 457v119l1086 456v-143l-910 -373l910 -372v-144z" />
    <glyph glyph-name="equal" unicode="=" horiz-adv-x="1366" 
d="M139 530h1086v-131h-1086v131zM139 997h1086v-131h-1086v131z" />
    <glyph glyph-name="greater" unicode="&#x3e;" horiz-adv-x="1366" 
d="M141 180v144l910 372l-910 373v143l1086 -456v-119z" />
    <glyph glyph-name="question" unicode="?" horiz-adv-x="705" 
d="M657 1104q0 -89 -37 -162t-115 -182t-114.5 -179.5t-36.5 -156.5v-82h-32v102q0 109 36.5 213l72.5 207.5t36 210.5q0 91 -21.5 156.5t-61.5 100t-93 34.5q-54 0 -93.5 -36.5t-39.5 -84.5q0 -23 9 -43t26.5 -44.5t27.5 -45.5t10 -49q0 -33 -20.5 -55.5t-52.5 -22.5
q-50 0 -85.5 46t-35.5 114q0 56 23.5 108t65 90.5t98.5 61t118 22.5q90 0 161 -42t112.5 -117t41.5 -164zM352 199q47 0 79 -32t32 -79t-32 -80t-79 -33q-45 0 -78.5 33.5t-33.5 79.5t33.5 78.5t78.5 32.5z" />
    <glyph glyph-name="at" unicode="@" horiz-adv-x="1886" 
d="M1413 954l-178 -614q-33 -107 -33 -166q0 -32 21 -54t53 -22q97 0 196 89.5t163.5 241t64.5 321.5q0 176 -82.5 317.5t-230.5 220t-334 78.5q-191 0 -352 -79.5t-273.5 -214.5t-172.5 -307t-60 -351q0 -230 99.5 -413t277.5 -284.5t405 -101.5q179 0 335 64t276.5 190
t193.5 299h57q-34 -119 -109 -228.5t-187.5 -196t-259 -138t-310.5 -51.5q-184 0 -345 66t-279.5 186.5t-183.5 282.5t-65 351q0 202 73 382t202.5 314.5t303 208.5t368.5 74q160 0 292 -49.5t226 -140.5t145 -217.5t51 -278.5q0 -111 -33.5 -231.5t-102 -229t-174 -177
t-241.5 -68.5q-74 0 -113.5 35t-39.5 102q0 54 16 143l-4 4q-72 -96 -142 -161t-131.5 -94t-115.5 -29q-50 0 -91.5 31t-66 84.5t-24.5 117.5q0 145 87.5 310t219 278t244.5 113q81 0 129 -48q28 -28 43 -92h4l30 111zM1063 913q-92 0 -186 -115t-157 -269.5t-63 -237.5
q0 -59 34.5 -101.5t82.5 -42.5q87 0 184 99q72 70 123.5 163t78 187.5t26.5 171.5q0 63 -34 104t-89 41z" />
    <glyph glyph-name="A" unicode="A" horiz-adv-x="1217" 
d="M371 446l-80 -270q-10 -32 -10 -61q0 -41 30 -60.5t105 -19.5v-35h-379v35q74 0 111.5 39.5t70.5 152.5l359 1200h32l385 -1200q30 -94 52.5 -133t50 -49t82.5 -10v-35h-478v35q64 0 91.5 18t27.5 62q0 26 -20 92l-78 239h-352zM698 524l-157 498h-4l-144 -498h305z" />
    <glyph glyph-name="B" unicode="B" horiz-adv-x="1110" 
d="M35 1397h493q139 0 247 -48.5t167 -133.5t59 -189q0 -117 -80.5 -206t-246.5 -103v-4q127 -6 212.5 -48.5t128 -116t42.5 -173.5q0 -114 -56 -199.5t-161.5 -130.5t-243.5 -45h-561v35q78 0 114.5 13.5t50 51.5t13.5 121v957q0 80 -13.5 117.5t-51 52t-113.5 14.5v35z
M406 1313v-547q65 -12 108 -12q134 0 209.5 73t75.5 207q0 90 -35 155.5t-99.5 100.5t-152.5 35q-52 0 -106 -12zM406 672v-574q69 -26 139 -26q86 0 150 34.5t98 102t34 158.5q0 90 -41.5 163t-114.5 112.5t-167 39.5q-50 0 -98 -10z" />
    <glyph glyph-name="C" unicode="C" horiz-adv-x="1110" 
d="M1018 1427l24 -460h-36q-9 116 -55.5 206t-123 138.5t-172.5 48.5q-189 0 -282.5 -178.5t-93.5 -526.5q0 -211 48 -348.5t138 -201.5t215 -64q82 0 145.5 28.5t117 90t99.5 153.5l33 -16q-145 -328 -452 -328q-148 0 -280 80t-213 238t-81 372q0 216 76.5 392.5t211 276
t300.5 99.5q74 0 125.5 -17t103 -43t70.5 -26t30 19.5t17 66.5h35z" />
    <glyph glyph-name="D" unicode="D" horiz-adv-x="1323" 
d="M39 1397h534q177 0 308 -56t216 -155.5t126 -226t41 -267.5q0 -159 -52 -287t-146.5 -219t-218 -138.5t-263.5 -47.5h-545v35q77 0 114 13.5t50.5 51.5t13.5 121v957q0 115 -33.5 149.5t-144.5 34.5v35zM410 1298v-1200q75 -35 176 -35q141 0 242 73.5t153.5 213.5
t52.5 336q0 149 -30.5 266.5t-92 202t-147 127.5t-195.5 43q-47 0 -81.5 -6t-77.5 -21z" />
    <glyph glyph-name="E" unicode="E" horiz-adv-x="1110" 
d="M946 1397l21 -303h-37q-12 98 -38.5 146.5t-74 63.5t-133.5 15h-283v-547h222q114 0 155 44.5t41 164.5h35v-487h-35q0 115 -35.5 157.5t-124.5 42.5h-258v-499q0 -74 18 -95.5t81 -21.5h200q127 0 199.5 62.5t124.5 217.5l35 -10l-107 -348h-921v35q77 0 113.5 14
t50.5 52t14 120v957q0 77 -12.5 114.5t-50.5 53.5t-115 16v35h915z" />
    <glyph glyph-name="F" unicode="F" horiz-adv-x="1110" 
d="M1055 1397l10 -299h-37q-11 221 -217 221h-397v-547h229q100 0 148 39t48 137q0 7 -0.5 12t-0.5 11h34v-477h-34v20q0 64 -15 103.5t-50.5 58t-98.5 18.5h-260v-473q0 -80 13.5 -118.5t53 -53t121.5 -14.5v-35h-557v35q78 0 114.5 15.5t49 54.5t12.5 116v957
q0 85 -12 121.5t-48.5 49.5t-115.5 13v35h1010z" />
    <glyph glyph-name="G" unicode="G" horiz-adv-x="1323" 
d="M1083 1427l25 -440h-35q-7 85 -41 156t-86 117.5t-115 71t-133 24.5q-123 0 -216 -81.5t-143 -232.5t-50 -346q0 -270 98 -462.5t297 -192.5q144 0 262 102v414q0 88 -29 124.5t-112 37.5v35h475v-35q-57 0 -87.5 -18t-42 -58t-11.5 -111v-407q-211 -156 -443 -156
q-138 0 -254.5 50.5t-203 145.5t-133 225t-46.5 280q0 141 41.5 274t123 244.5t195 175t253.5 63.5q84 0 146 -19t115.5 -45t65.5 -26q49 0 52 90h32z" />
    <glyph glyph-name="H" unicode="H" horiz-adv-x="1323" 
d="M408 694v-473q0 -74 12.5 -114t45 -56t100.5 -16h20v-35h-549v35h20q65 0 98.5 16t46.5 54.5t13 115.5v955q0 111 -30.5 149t-118.5 38q-9 0 -15 -0.5t-14 -0.5v35h549v-35q-75 0 -112 -14t-51.5 -53.5t-14.5 -118.5v-404h499v404q0 82 -13.5 120t-50.5 52t-116 14v35
h557v-35q-77 0 -115 -13.5t-53.5 -52.5t-15.5 -120v-955q0 -79 14.5 -118.5t52.5 -53.5t117 -14v-35h-557v35h20q67 0 101.5 16.5t46.5 56.5t12 113v473h-499z" />
    <glyph glyph-name="I" unicode="I" horiz-adv-x="598" 
d="M31 1397h536v-35q-71 0 -107 -14.5t-50.5 -53.5t-14.5 -116v-957q0 -84 15.5 -123t51.5 -51t105 -12v-35h-536v35q73 0 109 16t49.5 54t13.5 116v957q0 79 -14 118t-49.5 52.5t-108.5 13.5v35z" />
    <glyph glyph-name="J" unicode="J" horiz-adv-x="705" 
d="M168 1397h496v-35q-89 0 -119.5 -36.5t-30.5 -147.5v-795q0 -97 -23.5 -190.5t-86.5 -158.5t-173 -65q-78 0 -138 51.5t-60 118.5q0 43 25.5 71t64.5 28q41 0 64.5 -29.5t23.5 -79.5q0 -14 -0.5 -22.5t-1.5 -18.5q0 -51 43 -51q70 0 70 151v1014q0 87 -32.5 123.5
t-121.5 36.5v35z" />
    <glyph glyph-name="K" unicode="K" horiz-adv-x="1323" 
d="M80 1397h514v-35q-98 0 -130 -36.5t-32 -147.5v-476h4l359 459q50 62 67 93.5t17 54.5q0 53 -117 53v35h430v-35q-61 -3 -104.5 -22t-91.5 -64.5t-109 -124.5l-289 -365l508 -655q44 -57 92.5 -76.5t124.5 -19.5v-35h-549v35q98 0 98 59q0 28 -30 68l-406 540h-4v-481
q0 -76 13.5 -114.5t48.5 -55t100 -16.5v-35h-514v35q66 0 99 14t47 53t14 119v957q0 114 -32.5 149t-127.5 35v35z" />
    <glyph glyph-name="L" unicode="L" horiz-adv-x="1110" 
d="M45 1397h557v-35q-78 0 -115.5 -14t-52 -53.5t-14.5 -118.5v-988q0 -69 19.5 -89.5t82.5 -20.5h146q88 0 141.5 12t91.5 44t67.5 90.5t59.5 154.5l33 -10l-100 -369h-916v35q60 0 97 9t55 29t24 53t6 93v957q0 79 -15 118t-52.5 53.5t-114.5 14.5v35z" />
    <glyph glyph-name="M" unicode="M" horiz-adv-x="1516" 
d="M41 1397h356l373 -1030h4l373 1030h340v-35q-60 0 -91.5 -15t-44 -53.5t-12.5 -115.5v-957q0 -76 13 -116t45 -55t90 -15v-35h-514v35q73 0 109 14t50.5 53.5t14.5 118.5v940h-4l-418 -1161h-25l-413 1137h-4v-916q0 -82 14 -121.5t48 -52t108 -12.5v-35h-412v35
q69 0 103 14t47.5 53.5t13.5 118.5v957q0 77 -13 115.5t-48 53.5t-103 15v35z" />
    <glyph glyph-name="N" unicode="N" horiz-adv-x="1323" 
d="M23 1397h303l708 -1008h4v789q0 76 -14.5 115.5t-53 54t-114.5 14.5v35h404v-35q-79 0 -111.5 -32.5t-32.5 -112.5v-1240h-29l-794 1133h-4v-889q0 -61 7.5 -95.5t27 -54.5t51 -28t82.5 -8h28v-35h-432v35q93 1 125.5 35t32.5 120v1033l-57 77q-26 37 -54 49.5t-77 12.5
v35z" />
    <glyph glyph-name="O" unicode="O" horiz-adv-x="1217" 
d="M55 698q0 187 62.5 355t188 271t302.5 103t302.5 -103t188 -271t62.5 -355q0 -141 -35 -270.5t-103.5 -233t-174 -164.5t-240.5 -61q-171 0 -297 100t-191 267.5t-65 361.5zM285 698q0 -227 33.5 -373.5t105 -215t184.5 -68.5q124 0 195 78t100 220.5t29 358.5
q0 229 -33.5 375t-105 214.5t-185.5 68.5q-88 0 -150 -41.5t-100 -124.5t-55.5 -203t-17.5 -289z" />
    <glyph glyph-name="P" unicode="P" horiz-adv-x="1110" 
d="M420 664v-443q0 -80 13.5 -118.5t52.5 -53t118 -14.5v-35h-555v35q78 0 114.5 13.5t50 51.5t13.5 121v957q0 78 -15 116.5t-51.5 53t-111.5 14.5v35h549q102 0 189 -27.5t149 -79.5t95.5 -124t33.5 -156q0 -112 -54 -200.5t-149.5 -138.5t-212.5 -50q-114 0 -229 43z
M420 1303v-568q88 -35 145 -35q79 0 141.5 36.5t96 102.5t33.5 152q0 124 -68.5 229t-226.5 105q-65 0 -121 -22z" />
    <glyph glyph-name="Q" unicode="Q" horiz-adv-x="1217" 
d="M477 -16q-135 38 -230.5 143.5t-143.5 255t-48 315.5q0 144 35.5 274t107 233.5t175.5 162.5t235 59q184 0 308.5 -106.5t184.5 -274.5t60 -348q0 -129 -26 -239t-77 -204t-121 -159.5t-157 -97.5q54 -169 157.5 -256t240.5 -104v-35q-205 6 -393.5 112t-307.5 269z
M285 698q0 -227 33.5 -373.5t105 -215t184.5 -68.5q124 0 196 80.5t100 224t28 352.5q0 229 -33.5 375t-105 214.5t-185.5 68.5t-185.5 -70t-104.5 -213.5t-33 -374.5z" />
    <glyph glyph-name="R" unicode="R" horiz-adv-x="1217" 
d="M410 664v-443q0 -80 13 -118.5t49.5 -53t117.5 -14.5v-35h-555v35q79 0 117.5 14.5t51.5 53.5t13 118v955q0 79 -14.5 118.5t-52 53.5t-115.5 14v35h573q128 0 223 -47.5t145 -128.5t50 -174q0 -133 -90.5 -230.5t-247.5 -128.5l332 -541q40 -65 71.5 -88.5t86.5 -23.5
v-35h-269l-405 664h-94zM410 729h75q143 0 227.5 82.5t84.5 214.5q0 69 -19 124t-51 93t-79.5 60t-106.5 22q-71 0 -131 -29v-567z" />
    <glyph glyph-name="S" unicode="S" 
d="M74 -29v469h39q7 -127 58 -216t128 -133t158 -44q93 0 154 64t61 163q0 121 -101 222q-35 36 -182.5 140t-195.5 152q-44 44 -71.5 86.5t-43 94t-15.5 108.5q0 102 43.5 182t121.5 124t175 44q56 0 98 -9.5t81 -25l61.5 -25t36.5 -9.5q54 0 74 69h34v-456h-34
q-6 126 -59 212.5t-127.5 126.5t-143.5 40q-56 0 -103 -24t-73.5 -66t-26.5 -95q0 -112 92 -204q34 -32 72 -60t121 -84.5t137 -97t88 -76.5q59 -59 92 -137t33 -156q0 -81 -29.5 -151t-80.5 -120t-123.5 -80t-151.5 -30q-77 0 -169.5 37t-115.5 37q-61 0 -73 -72h-39z" />
    <glyph glyph-name="T" unicode="T" horiz-adv-x="1110" 
d="M651 1319v-1098q0 -82 15 -121.5t51 -52t117 -12.5v-35h-558v35q79 0 116.5 13.5t52 53t14.5 119.5v1098h-146q-84 0 -135 -23t-75 -76t-25 -141h-33v318h1020v-318h-33q-3 133 -55.5 186.5t-177.5 53.5h-148z" />
    <glyph glyph-name="U" unicode="U" horiz-adv-x="1323" 
d="M41 1397h510v-35q-65 0 -98.5 -15t-46.5 -53t-13 -116v-785q0 -183 90 -267.5t224 -84.5q156 0 251 104t95 287v746q0 78 -13 116.5t-47.5 53t-101.5 14.5v35h393v-35q-61 0 -93.5 -15t-46.5 -54.5t-14 -114.5v-754q0 -148 -56.5 -250.5t-159.5 -153.5t-242 -51
q-189 0 -330 105t-141 364v740q0 76 -13.5 115.5t-46.5 54t-100 14.5v35z" />
    <glyph glyph-name="V" unicode="V" horiz-adv-x="1217" 
d="M37 1397h465v-35q-73 0 -100 -14t-27 -54q0 -15 12 -55l295 -879h4l260 873q10 33 10 61q0 68 -122 68v35h348v-35q-48 -6 -77.5 -23t-48.5 -51.5t-42 -109.5l-365 -1209h-35l-421 1241q-28 87 -58.5 116.5t-97.5 35.5v35z" />
    <glyph glyph-name="W" unicode="W" horiz-adv-x="1622" 
d="M45 1397h440v-35q-57 0 -83.5 -18t-26.5 -62q0 -21 12 -68l229 -817h5l170 576l-74 260q-18 64 -51.5 93.5t-94.5 35.5v35h496v-35q-78 0 -113.5 -21t-35.5 -73q0 -22 10 -64l219 -798h4l215 763q16 55 16 93q0 100 -143 100v35h358v-35q-58 -6 -86.5 -44.5t-64.5 -162.5
l-342 -1186h-37l-236 860h-4l-256 -860h-30l-355 1235q-24 85 -53.5 118.5t-87.5 39.5v35z" />
    <glyph glyph-name="X" unicode="X" horiz-adv-x="1323" 
d="M694 854l252 371q29 39 29 73t-29 49t-98 15v35h422v-35q-63 0 -95.5 -10.5t-64 -43.5t-92.5 -122l-279 -408l353 -596q51 -83 92 -115t100 -32v-35h-506v35q125 0 125 53q0 32 -37 94l-245 416l-285 -416q-39 -55 -39 -86q0 -28 29.5 -44.5t93.5 -16.5v-35h-381v35
q57 0 97.5 26.5t82.5 90.5l354 524l-315 538q-49 87 -93.5 117.5t-125.5 30.5v35h541v-35q-68 0 -96.5 -16t-28.5 -50q0 -33 22 -71z" />
    <glyph glyph-name="Y" unicode="Y" horiz-adv-x="1217" 
d="M702 598v-377q0 -83 13.5 -120.5t51 -51.5t114.5 -14v-35h-549v35q75 0 112.5 13t51.5 52.5t14 120.5v365l-324 651q-34 69 -64 94t-87 31v35h467v-35q-55 0 -80.5 -4.5t-35 -15t-9.5 -31.5q0 -23 18 -58l273 -546l252 546q10 21 10 54q0 32 -23.5 43.5t-83.5 11.5v35
h359v-35q-79 -6 -118.5 -39.5t-86.5 -132.5z" />
    <glyph glyph-name="Z" unicode="Z" horiz-adv-x="1004" 
d="M702 1319h-286q-88 0 -137 -19.5t-76 -77t-31 -169.5h-35l6 344h813l-684 -1319h324q93 0 151.5 16t94 50.5t56 88.5t36.5 138h35l-62 -371h-870v35z" />
    <glyph glyph-name="bracketleft" unicode="[" horiz-adv-x="512" 
d="M125 -432v1829h348v-64h-184v-1702h184v-63h-348z" />
    <glyph glyph-name="backslash" unicode="\" horiz-adv-x="575" 
d="M137 1460l438 -1460h-137l-438 1460h137z" />
    <glyph glyph-name="bracketright" unicode="]" horiz-adv-x="512" 
d="M387 -432h-348v63h184v1702h-184v64h348v-1829z" />
    <glyph glyph-name="asciicircum" unicode="^" horiz-adv-x="961" 
d="M29 680l409 717h82l412 -717h-135l-318 553l-315 -553h-135z" />
    <glyph glyph-name="underscore" unicode="_" horiz-adv-x="1024" 
d="M1024 -256h-1024v102h1024v-102z" />
    <glyph glyph-name="grave" unicode="`" horiz-adv-x="682" 
d="M508 1090h-33l-242 346h199z" />
    <glyph glyph-name="a" unicode="a" horiz-adv-x="811" 
d="M489 610v144q0 82 -31 125t-93 43q-52 0 -88.5 -35.5t-36.5 -83.5q0 -12 9 -44.5t9 -49.5q0 -31 -24.5 -53.5t-59.5 -22.5q-24 0 -46 14t-33 37.5t-11 54.5q0 61 41.5 113t113 82.5t158.5 30.5q76 0 134.5 -26t90 -76.5t31.5 -121.5v-553q0 -96 54 -96q28 0 73 35v-35
q-36 -57 -83 -89t-93 -32q-112 0 -112 172h-5q-93 -172 -229 -172q-90 0 -148.5 63t-58.5 159q0 61 22 114.5t78.5 105t159.5 105.5zM489 553q-147 -73 -207.5 -138t-60.5 -157q0 -72 32.5 -119t82.5 -47q73 0 153 107v354z" />
    <glyph glyph-name="b" unicode="b" 
d="M301 1460v-676h4q55 95 111 138t125 43q75 0 143.5 -51t110 -150t41.5 -238q0 -127 -26.5 -229t-76 -175t-119 -112t-153.5 -39q-80 0 -162.5 30t-161.5 87v1100q0 68 -17.5 99.5t-56.5 31.5q-25 0 -57 -12l-14 32l274 121h35zM301 713v-568q38 -54 81 -83t89 -29
q92 0 136 102t44 291q0 208 -45.5 316t-132.5 108q-89 0 -172 -137z" />
    <glyph glyph-name="c" unicode="c" horiz-adv-x="705" 
d="M627 358l35 -8q-21 -174 -99 -276.5t-188 -102.5q-72 0 -130.5 34.5t-101.5 100t-65.5 154t-22.5 195.5q0 150 42 266.5t119 180t175 63.5q65 0 122.5 -29.5t92.5 -79.5t35 -104q0 -39 -26.5 -64.5t-67.5 -25.5q-46 0 -76.5 28.5t-30.5 73.5q0 2 5.5 25.5t5.5 35.5
q0 31 -23 51.5t-57 20.5q-152 0 -152 -328q0 -200 58.5 -317t160.5 -117q69 0 118.5 59t70.5 164z" />
    <glyph glyph-name="d" unicode="d" 
d="M772 1460v-1202q0 -81 17.5 -113t60.5 -32q19 0 29 6l12 -33l-246 -115h-37v158h-4q-107 -158 -233 -158q-88 0 -155.5 55t-105.5 155.5t-38 232.5q0 156 45.5 282t125 197.5t177.5 71.5q94 0 188 -74v309q0 119 -73 119q-26 0 -58 -12l-12 32l270 121h37zM608 201v415
q0 67 -12.5 119t-36.5 90.5t-55 58t-72 19.5q-85 0 -130.5 -100t-45.5 -291q0 -196 49.5 -308t136.5 -112q79 0 166 109z" />
    <glyph glyph-name="e" unicode="e" horiz-adv-x="705" 
d="M655 518h-446q5 -98 21 -167.5t42.5 -119t64.5 -76t83 -26.5q127 0 203 207l32 -14q-17 -104 -60 -183.5t-107 -123.5t-136 -44q-88 0 -156.5 60t-106.5 169.5t-38 245.5q0 122 30 240.5t100 198.5t181 80q91 0 156.5 -53t100 -152.5t36.5 -241.5zM209 582h272
q-1 163 -33.5 239t-99.5 76q-68 0 -102 -76t-37 -239z" />
    <glyph glyph-name="f" unicode="f" horiz-adv-x="512" 
d="M158 944v115q0 113 46 206t127.5 144t182.5 51q93 0 157 -42.5t64 -104.5q0 -36 -25 -62t-63 -26q-31 0 -45 16t-41 59.5t-52.5 66t-68.5 22.5q-118 0 -118 -197v-248h143v-63h-143v-709q0 -137 143 -137v-35h-422v35q58 0 86.5 34.5t28.5 120.5v691h-115v63h115z" />
    <glyph glyph-name="g" unicode="g" 
d="M141 133q0 80 138 217q-71 47 -108.5 121t-37.5 166q0 71 22.5 130.5t63.5 104t97.5 69t123.5 24.5q54 0 97.5 -16t87.5 -52h209q22 0 29 -6t7 -21v-26q0 -16 -3 -24t-9.5 -10.5t-23.5 -2.5h-129q43 -92 43 -182q0 -93 -38.5 -165.5t-108 -112.5t-159.5 -40
q-53 0 -116 21q-56 -70 -56 -107q0 -25 22 -38.5t79.5 -19t146.5 -5.5q350 0 350 -232q0 -69 -37.5 -132.5t-105.5 -112t-155 -76t-183 -27.5q-86 0 -162.5 26.5t-122 71t-45.5 95.5q0 35 18.5 72.5t60.5 90t89 101.5q-84 22 -84 98zM317 670q0 -310 134 -310q60 0 92 59
t32 171q0 106 -14.5 179.5t-44.5 107.5t-76 34q-64 0 -93.5 -58t-29.5 -183zM283 23q-84 -100 -84 -166q0 -32 24 -68t82 -63t156 -27q154 0 247 51t93 135q0 77 -69.5 99t-276.5 22q-113 0 -172 17z" />
    <glyph glyph-name="h" unicode="h" 
d="M311 1460v-680h4q77 109 133.5 147t126.5 38q100 0 150.5 -76.5t50.5 -200.5v-498q0 -71 26.5 -111.5t74.5 -43.5v-35h-385v35q62 0 91 35.5t29 119.5v461q0 104 -27.5 148.5t-90.5 44.5q-50 0 -89 -26.5t-94 -98.5v-541q0 -140 119 -143v-35h-395v35q112 0 112 155v1012
q0 65 -16.5 92t-56.5 27q-12 0 -33 -6l-12 33l247 112h35z" />
    <glyph glyph-name="i" unicode="i" horiz-adv-x="512" 
d="M344 965v-793q0 -69 32 -103t89 -34v-35h-414v35q67 0 98 36t31 119v539q0 41 -18 67.5t-49 26.5q-21 0 -56 -12l-14 31l266 123h35zM156 1358q0 44 29 73t73 29q21 0 40.5 -8t32.5 -21t21 -32.5t8 -40.5q0 -45 -29 -74t-73 -29t-73 29t-29 74z" />
    <glyph glyph-name="j" unicode="j" horiz-adv-x="512" 
d="M362 965v-965q0 -86 -19 -163.5t-56.5 -135t-91 -90.5t-117.5 -33q-44 0 -85.5 18t-66 48.5t-24.5 64.5t24 58t58 24q30 0 45.5 -16.5t35.5 -54.5t29 -50t33 -12q29 0 44 23.5t21.5 86t6.5 171.5v788q0 47 -18.5 71.5t-47.5 24.5q-21 0 -55 -12l-12 31l262 123h34z
M162 1358q0 42 30 72t72 30q20 0 40.5 -8t33.5 -21t21 -32.5t8 -40.5q0 -45 -29 -74t-74 -29q-42 0 -72 30t-30 73z" />
    <glyph glyph-name="k" unicode="k" 
d="M326 1460v-1288q0 -134 120 -137v-35h-405v35q60 0 90.5 35.5t30.5 119.5v1012q0 64 -18 91.5t-60 27.5q-10 0 -33 -6l-10 33l248 112h37zM551 944h334v-35q-58 0 -92.5 -9.5t-67.5 -37t-70 -76.5l-155 -198l258 -434q46 -77 72.5 -97.5t80.5 -21.5v-35h-346v35
q47 3 47 26q0 19 -22 58l-234 395l234 305q31 41 31 58q0 32 -70 32v35z" />
    <glyph glyph-name="l" unicode="l" horiz-adv-x="512" 
d="M342 1460v-1292q0 -65 33 -99t90 -34v-35h-418v35q69 0 100 36t31 119v981q0 81 -16.5 114.5t-57.5 33.5q-25 0 -57 -12l-14 32l272 121h37z" />
    <glyph glyph-name="m" unicode="m" horiz-adv-x="1323" 
d="M305 965v-193h4q103 193 250 193q55 0 94 -23.5t62.5 -70.5t27.5 -111h5q57 109 117 157t136 48q197 0 197 -301v-488q0 -69 26 -103.5t66 -37.5v-35h-364v35q56 0 82 37.5t26 117.5v474q0 96 -26 138t-84 42q-47 0 -83 -27.5t-89 -103.5v-523q0 -83 26.5 -117.5
t85.5 -37.5v-35h-385v35q109 3 109 155v465q0 97 -27.5 143t-85.5 46q-45 0 -86.5 -31.5t-83.5 -99.5v-523q0 -76 23 -113.5t88 -41.5v-35h-375v35q53 9 76.5 38t23.5 89v579q0 44 -13 64t-42 20q-18 0 -45 -8l-10 31l239 117h35z" />
    <glyph glyph-name="n" unicode="n" 
d="M315 965v-189h4q68 101 128.5 145t130.5 44q64 0 109 -30.5t68 -91.5t23 -149v-530q0 -58 26.5 -93.5t72.5 -35.5v-35h-381v35q118 0 118 155v504q0 150 -116 150q-96 0 -183 -125v-529q0 -86 29 -120.5t90 -34.5v-35h-391v35q109 3 109 155v570q0 65 -56 65
q-17 0 -45 -8l-8 31l240 117h32z" />
    <glyph glyph-name="o" unicode="o" 
d="M68 467q0 219 111.5 358.5t285.5 139.5q86 0 155.5 -35.5t121 -101.5t79 -156.5t27.5 -196.5q0 -145 -50.5 -260t-140.5 -179.5t-204 -64.5t-201 62.5t-135.5 174.5t-48.5 259zM258 526q0 -222 50 -354.5t161 -132.5q103 0 145.5 99t42.5 276q0 243 -52 363t-159 120
q-102 0 -145 -97.5t-43 -273.5z" />
    <glyph glyph-name="p" unicode="p" 
d="M293 965v-230h4q51 121 110.5 175.5t137.5 54.5q65 0 117.5 -32t92.5 -91t61.5 -140t21.5 -172q0 -136 -39.5 -264.5t-118 -208.5t-188.5 -80q-122 0 -187 93h-4v-322q0 -135 139 -135v-35h-426v35q123 0 123 156v938q0 118 -74 118q-13 0 -32 -8l-17 33l250 115h29z
M301 676v-340q0 -150 45 -223.5t131 -73.5q90 0 133 100t43 307q0 125 -21.5 216t-62 139.5t-96.5 48.5q-97 0 -172 -174z" />
    <glyph glyph-name="q" unicode="q" 
d="M776 965v-1209q0 -70 28 -105t89 -38v-35h-426v35q8 -1 22 -1q67 0 95 40.5t28 116.5v381h-4q-25 -51 -62 -91.5t-79.5 -61t-87.5 -20.5q-87 0 -156 56.5t-108 157t-39 225.5q0 120 27 221.5t74 174.5t112 113t143 40q102 0 197 -64l112 64h35zM612 215v459
q0 70 -21 121.5t-60 79.5t-91 28q-87 0 -133.5 -96t-46.5 -279q0 -207 50 -321.5t143 -114.5q74 0 159 123z" />
    <glyph glyph-name="r" unicode="r" horiz-adv-x="705" 
d="M330 965v-197h4q92 197 215 197q50 0 84.5 -31.5t34.5 -79.5q0 -38 -28 -67t-67 -29q-31 0 -64.5 32.5t-53.5 32.5q-30 0 -58.5 -28.5t-66.5 -98.5v-506q0 -91 32.5 -123t122.5 -32v-35h-446v35q68 0 97.5 37t29.5 118v543q0 41 -17.5 65.5t-54.5 24.5q-16 0 -41 -8
l-8 35l250 115h35z" />
    <glyph glyph-name="s" unicode="s" horiz-adv-x="598" 
d="M53 0v315h35q12 -126 68 -204t135 -78q49 0 84 40t35 99q0 75 -74 150q-24 24 -87.5 80.5l-103.5 93.5q-52 53 -73 104t-21 111q0 112 60 183t155 71q48 0 102.5 -20.5t61.5 -20.5q22 0 33 20h37v-293h-37q-9 54 -30 106t-43.5 81.5t-54 47t-63.5 17.5q-43 0 -75.5 -32.5
t-32.5 -77.5q0 -68 63 -131l87 -78.5t114 -108.5q77 -76 99 -123t22 -112q0 -74 -32.5 -135.5t-90.5 -97.5t-127 -36q-49 0 -112 24.5t-70 24.5q-9 0 -18 -7t-9 -13h-37z" />
    <glyph glyph-name="t" unicode="t" horiz-adv-x="618" 
d="M358 881v-615q0 -87 20 -130.5t68 -43.5q64 0 99 74h39q-28 -87 -89.5 -141t-132.5 -54q-75 0 -121 58.5t-46 175.5v676h-117v39q95 54 152.5 129.5t93.5 193.5h34v-299h174v-63h-174z" />
    <glyph glyph-name="u" unicode="u" 
d="M770 944v-727q0 -61 9 -79.5t40 -18.5q19 0 43 8l12 -33l-233 -114h-35v190h-4q-45 -88 -116 -139t-144 -51q-87 0 -143 68.5t-56 182.5v523q0 85 -27 120t-77 35v35h268v-684q0 -160 115 -160q49 0 100 35t84 94v525q0 86 -29 120.5t-90 34.5v35h283z" />
    <glyph glyph-name="v" unicode="v" horiz-adv-x="811" 
d="M35 944h356v-35q-86 0 -86 -80q0 -35 8 -59l144 -461h4l147 484q13 42 13 57q0 56 -86 59v35h243v-35q-38 -8 -57.5 -33t-42.5 -94l-252 -807h-35l-246 795q-20 65 -44.5 96.5t-65.5 42.5v35z" />
    <glyph glyph-name="w" unicode="w" horiz-adv-x="1217" 
d="M39 944h346v-35q-50 -2 -69 -14.5t-19 -42.5q0 -31 12 -72l148 -497h4l135 385l-41 127q-19 59 -41.5 82t-69.5 32v35h375v-35q-59 -3 -81.5 -18.5t-22.5 -52.5q0 -18 10 -50l152 -485h4l147 500q10 39 10 47q0 59 -98 59v35h244v-35q-34 -6 -51 -27.5t-35 -86.5
l-244 -820h-35l-186 588h-4l-207 -588h-37l-246 820q-18 62 -38 85.5t-62 28.5v35z" />
    <glyph glyph-name="x" unicode="x" horiz-adv-x="811" 
d="M416 641l94 180q14 30 14 43q0 42 -69 45v35h274v-35q-57 -1 -92.5 -31t-77.5 -112l-104 -203l176 -377q40 -82 69 -112t76 -39v-35h-364v35q52 0 69 7.5t17 29.5q0 18 -21 59l-117 252l-137 -264q-14 -27 -14 -45q0 -20 17.5 -28t68.5 -11v-35h-258v35q45 9 69.5 32.5
t59.5 94.5l158 301l-146 311q-26 58 -59.5 89t-81.5 46v35h354v-35q-40 -2 -56 -12t-16 -35q0 -15 9 -35z" />
    <glyph glyph-name="y" unicode="y" horiz-adv-x="811" 
d="M31 944h370v-35q-51 -2 -72.5 -17.5t-21.5 -49.5q0 -23 10 -54l164 -499h4l127 495q2 10 5 19t6.5 25t3.5 30q0 26 -16 38t-54 13v35h217v-35q-41 -17 -59.5 -43t-36.5 -96l-215 -840q-45 -172 -118.5 -262t-170.5 -90q-52 0 -86.5 30.5t-34.5 74.5q0 42 27 69t67 27
q38 0 72 -16.5t47 -16.5q49 0 86.5 75.5t57.5 178.5l-256 770q-21 63 -49 95t-74 44v35z" />
    <glyph glyph-name="z" unicode="z" horiz-adv-x="705" 
d="M106 944h564v-35l-439 -839h183q76 0 117 17.5t59 60t26 128.5h33v-276h-620v35l434 839h-172q-79 0 -108.5 -35t-41.5 -143h-35v248z" />
    <glyph glyph-name="braceleft" unicode="{" horiz-adv-x="983" 
d="M248 485v33q65 9 117 39.5t81 75t29 96.5q0 53 -22 148q-23 90 -23 170q0 93 48.5 176t134.5 138.5t192 70.5v-37q-101 -18 -163 -82.5t-62 -149.5q0 -27 3.5 -51.5t8.5 -49.5l10 -50q12 -59 17.5 -90t5.5 -76q0 -76 -36.5 -142.5t-103 -118t-155.5 -81.5v-4
q137 -47 216 -138t79 -204q0 -72 -23 -166q-22 -94 -22 -152q0 -85 61.5 -149t163.5 -82v-37q-105 15 -191.5 69.5t-135 138t-48.5 177.5q0 16 1.5 38.5t5 45.5t9.5 51t7 35q22 112 22 147q0 53 -29 97.5t-81.5 74.5t-116.5 39z" />
    <glyph glyph-name="bar" unicode="|" horiz-adv-x="406" 
d="M135 1536h133v-2048h-133v2048z" />
    <glyph glyph-name="braceright" unicode="}" horiz-adv-x="983" 
d="M735 485q-101 -14 -164 -73t-63 -138q0 -28 7.5 -68l14.5 -79q7 -30 15 -80t8 -90q0 -70 -28.5 -136.5t-79 -117.5t-119 -85t-148.5 -46v37q102 18 163.5 81t61.5 150q0 58 -22 152q-23 94 -23 166q0 113 79 204t216 138v4q-89 30 -155.5 81.5t-103 118t-36.5 142.5
q0 45 5.5 76t17.5 90l10 50t8.5 49.5t3.5 51.5q0 57 -28 105.5t-79.5 81.5t-117.5 45v37q106 -15 192 -70.5t134.5 -138.5t48.5 -176q0 -80 -23 -170q-22 -95 -22 -148q0 -78 63 -137t164 -74v-33z" />
    <glyph glyph-name="asciitilde" unicode="~" horiz-adv-x="1366" 
d="M1171 848h52q-3 -137 -74 -220t-184 -83q-53 0 -126 23.5t-183.5 70t-171.5 68.5t-109 22q-147 0 -180 -182h-52q1 149 75 226t175 77q62 0 135 -24.5t181.5 -70t172 -67.5t107.5 -22q79 0 125 47t57 135z" />
    <glyph glyph-name="Adieresis" unicode="&#xc4;" horiz-adv-x="1217" 
d="M371 446l-80 -270q-10 -32 -10 -61q0 -41 30 -60.5t105 -19.5v-35h-379v35q74 0 111.5 39.5t70.5 152.5l359 1200h32l385 -1200q30 -94 52.5 -133t50 -49t82.5 -10v-35h-478v35q64 0 91.5 18t27.5 62q0 26 -20 92l-78 239h-352zM698 524l-157 498h-4l-144 -498h305z
M423 1776q45 0 77 -31t32 -77q0 -45 -32 -77t-77 -32q-44 0 -76 32t-32 77q0 46 32 77t76 31zM755 1776q46 0 77 -31t31 -77q0 -45 -31 -77t-77 -32q-45 0 -77 33t-32 76q0 44 32 76t77 32z" />
    <glyph glyph-name="Aring" unicode="&#xc5;" horiz-adv-x="1217" 
d="M371 446l-80 -270q-10 -32 -10 -61q0 -41 30 -60.5t105 -19.5v-35h-379v35q74 0 111.5 39.5t70.5 152.5l359 1200h32l385 -1200q30 -94 52.5 -133t50 -49t82.5 -10v-35h-478v35q64 0 91.5 18t27.5 62q0 26 -20 92l-78 239h-352zM698 524l-157 498h-4l-144 -498h305z
M569 1884q80 0 135 -56t55 -135q0 -78 -56 -134t-134 -56q-76 0 -133 57t-57 133q0 77 56 134t134 57zM569 1822q-36 0 -65.5 -17t-46.5 -46.5t-17 -65.5q0 -54 38.5 -91.5t90.5 -37.5q53 0 91 37t38 92q0 36 -17 65.5t-46.5 46.5t-65.5 17z" />
    <glyph glyph-name="Ccedilla" unicode="&#xc7;" horiz-adv-x="1110" 
d="M1018 1427l24 -460h-36q-9 116 -55.5 206t-123 138.5t-172.5 48.5q-189 0 -282.5 -178.5t-93.5 -526.5q0 -211 48 -348.5t138 -201.5t215 -64q82 0 145.5 28.5t117 90t99.5 153.5l33 -16q-145 -328 -452 -328q-148 0 -280 80t-213 238t-81 372q0 216 76.5 392.5t211 276
t300.5 99.5q74 0 125.5 -17t103 -43t70.5 -26t30 19.5t17 66.5h35zM436 -180l191 186h73l-102 -117q61 -5 96 -42.5t35 -96.5q0 -86 -76.5 -136t-208.5 -50q-31 0 -84 6l13 37q99 0 146.5 31.5t47.5 82.5q0 46 -33.5 71.5t-97.5 27.5z" />
    <glyph glyph-name="Eacute" unicode="&#xc9;" horiz-adv-x="1110" 
d="M946 1397l21 -303h-37q-12 98 -38.5 146.5t-74 63.5t-133.5 15h-283v-547h222q114 0 155 44.5t41 164.5h35v-487h-35q0 115 -35.5 157.5t-124.5 42.5h-258v-499q0 -74 18 -95.5t81 -21.5h200q127 0 199.5 62.5t124.5 217.5l35 -10l-107 -348h-921v35q77 0 113.5 14
t50.5 52t14 120v957q0 77 -12.5 114.5t-50.5 53.5t-115 16v35h915zM471 1493l76 346h198l-241 -346h-33z" />
    <glyph glyph-name="Ntilde" unicode="&#xd1;" horiz-adv-x="1323" 
d="M23 1397h303l708 -1008h4v789q0 76 -14.5 115.5t-53 54t-114.5 14.5v35h404v-35q-79 0 -111.5 -32.5t-32.5 -112.5v-1240h-29l-794 1133h-4v-889q0 -61 7.5 -95.5t27 -54.5t51 -28t82.5 -8h28v-35h-432v35q93 1 125.5 35t32.5 120v1033l-57 77q-26 37 -54 49.5t-77 12.5
v35zM421 1536h-34q3 132 40 196q41 66 115 66q30 0 68 -18.5t77.5 -45.5l80 -52.5t61.5 -25.5q34 0 54.5 37.5t21.5 102.5h32q0 -117 -37.5 -188.5t-107.5 -71.5q-48 0 -81 18.5t-110.5 70.5t-103.5 52q-36 0 -54.5 -34t-21.5 -107z" />
    <glyph glyph-name="Odieresis" unicode="&#xd6;" horiz-adv-x="1217" 
d="M55 698q0 187 62.5 355t188 271t302.5 103t302.5 -103t188 -271t62.5 -355q0 -141 -35 -270.5t-103.5 -233t-174 -164.5t-240.5 -61q-171 0 -297 100t-191 267.5t-65 361.5zM285 698q0 -227 33.5 -373.5t105 -215t184.5 -68.5q124 0 195 78t100 220.5t29 358.5
q0 229 -33.5 375t-105 214.5t-185.5 68.5q-88 0 -150 -41.5t-100 -124.5t-55.5 -203t-17.5 -289zM444 1776q45 0 77 -31t32 -77q0 -45 -32 -77t-77 -32q-44 0 -76 32t-32 77q0 46 32 77t76 31zM776 1776q46 0 77 -31t31 -77q0 -45 -31 -77t-77 -32q-45 0 -77 33t-32 76
q0 44 32 76t77 32z" />
    <glyph glyph-name="Udieresis" unicode="&#xdc;" horiz-adv-x="1323" 
d="M41 1397h510v-35q-65 0 -98.5 -15t-46.5 -53t-13 -116v-785q0 -183 90 -267.5t224 -84.5q156 0 251 104t95 287v746q0 78 -13 116.5t-47.5 53t-101.5 14.5v35h393v-35q-61 0 -93.5 -15t-46.5 -54.5t-14 -114.5v-754q0 -148 -56.5 -250.5t-159.5 -153.5t-242 -51
q-189 0 -330 105t-141 364v740q0 76 -13.5 115.5t-46.5 54t-100 14.5v35zM518 1776q45 0 77 -31t32 -77q0 -45 -32 -77t-77 -32q-44 0 -76 32t-32 77q0 46 32 77t76 31zM850 1776q46 0 77 -31t31 -77q0 -45 -31 -77t-77 -32q-45 0 -77 33t-32 76q0 44 32 76t77 32z" />
    <glyph glyph-name="aacute" unicode="&#xe1;" horiz-adv-x="811" 
d="M489 610v144q0 82 -31 125t-93 43q-52 0 -88.5 -35.5t-36.5 -83.5q0 -12 9 -44.5t9 -49.5q0 -31 -24.5 -53.5t-59.5 -22.5q-24 0 -46 14t-33 37.5t-11 54.5q0 61 41.5 113t113 82.5t158.5 30.5q76 0 134.5 -26t90 -76.5t31.5 -121.5v-553q0 -96 54 -96q28 0 73 35v-35
q-36 -57 -83 -89t-93 -32q-112 0 -112 172h-5q-93 -172 -229 -172q-90 0 -148.5 63t-58.5 159q0 61 22 114.5t78.5 105t159.5 105.5zM489 553q-147 -73 -207.5 -138t-60.5 -157q0 -72 32.5 -119t82.5 -47q73 0 153 107v354zM291 1067l76 346h198l-241 -346h-33z" />
    <glyph glyph-name="agrave" unicode="&#xe0;" horiz-adv-x="811" 
d="M489 610v144q0 82 -31 125t-93 43q-52 0 -88.5 -35.5t-36.5 -83.5q0 -12 9 -44.5t9 -49.5q0 -31 -24.5 -53.5t-59.5 -22.5q-24 0 -46 14t-33 37.5t-11 54.5q0 61 41.5 113t113 82.5t158.5 30.5q76 0 134.5 -26t90 -76.5t31.5 -121.5v-553q0 -96 54 -96q28 0 73 35v-35
q-36 -57 -83 -89t-93 -32q-112 0 -112 172h-5q-93 -172 -229 -172q-90 0 -148.5 63t-58.5 159q0 61 22 114.5t78.5 105t159.5 105.5zM489 553q-147 -73 -207.5 -138t-60.5 -157q0 -72 32.5 -119t82.5 -47q73 0 153 107v354zM492 1067h-33l-242 346h199z" />
    <glyph glyph-name="acircumflex" unicode="&#xe2;" horiz-adv-x="811" 
d="M489 610v144q0 82 -31 125t-93 43q-52 0 -88.5 -35.5t-36.5 -83.5q0 -12 9 -44.5t9 -49.5q0 -31 -24.5 -53.5t-59.5 -22.5q-24 0 -46 14t-33 37.5t-11 54.5q0 61 41.5 113t113 82.5t158.5 30.5q76 0 134.5 -26t90 -76.5t31.5 -121.5v-553q0 -96 54 -96q28 0 73 35v-35
q-36 -57 -83 -89t-93 -32q-112 0 -112 172h-5q-93 -172 -229 -172q-90 0 -148.5 63t-58.5 159q0 61 22 114.5t78.5 105t159.5 105.5zM489 553q-147 -73 -207.5 -138t-60.5 -157q0 -72 32.5 -119t82.5 -47q73 0 153 107v354zM379 1287l-231 -209h-35l180 327h170l176 -327
h-35z" />
    <glyph glyph-name="adieresis" unicode="&#xe4;" horiz-adv-x="811" 
d="M489 610v144q0 82 -31 125t-93 43q-52 0 -88.5 -35.5t-36.5 -83.5q0 -12 9 -44.5t9 -49.5q0 -31 -24.5 -53.5t-59.5 -22.5q-24 0 -46 14t-33 37.5t-11 54.5q0 61 41.5 113t113 82.5t158.5 30.5q76 0 134.5 -26t90 -76.5t31.5 -121.5v-553q0 -96 54 -96q28 0 73 35v-35
q-36 -57 -83 -89t-93 -32q-112 0 -112 172h-5q-93 -172 -229 -172q-90 0 -148.5 63t-58.5 159q0 61 22 114.5t78.5 105t159.5 105.5zM489 553q-147 -73 -207.5 -138t-60.5 -157q0 -72 32.5 -119t82.5 -47q73 0 153 107v354zM210 1350q45 0 77 -31t32 -77q0 -45 -32 -77
t-77 -32q-44 0 -76 32t-32 77q0 46 32 77t76 31zM542 1350q46 0 77 -31t31 -77q0 -45 -31 -77t-77 -32q-45 0 -77 33t-32 76q0 44 32 76t77 32z" />
    <glyph glyph-name="atilde" unicode="&#xe3;" horiz-adv-x="811" 
d="M489 610v144q0 82 -31 125t-93 43q-52 0 -88.5 -35.5t-36.5 -83.5q0 -12 9 -44.5t9 -49.5q0 -31 -24.5 -53.5t-59.5 -22.5q-24 0 -46 14t-33 37.5t-11 54.5q0 61 41.5 113t113 82.5t158.5 30.5q76 0 134.5 -26t90 -76.5t31.5 -121.5v-553q0 -96 54 -96q28 0 73 35v-35
q-36 -57 -83 -89t-93 -32q-112 0 -112 172h-5q-93 -172 -229 -172q-90 0 -148.5 63t-58.5 159q0 61 22 114.5t78.5 105t159.5 105.5zM489 553q-147 -73 -207.5 -138t-60.5 -157q0 -72 32.5 -119t82.5 -47q73 0 153 107v354zM134 1110h-34q3 132 40 196q41 66 115 66
q30 0 68 -18.5t77.5 -45.5l80 -52.5t61.5 -25.5q34 0 54.5 37.5t21.5 102.5h32q0 -117 -37.5 -188.5t-107.5 -71.5q-48 0 -81 18.5t-110.5 70.5t-103.5 52q-36 0 -54.5 -34t-21.5 -107z" />
    <glyph glyph-name="aring" unicode="&#xe5;" horiz-adv-x="811" 
d="M489 610v144q0 82 -31 125t-93 43q-52 0 -88.5 -35.5t-36.5 -83.5q0 -12 9 -44.5t9 -49.5q0 -31 -24.5 -53.5t-59.5 -22.5q-24 0 -46 14t-33 37.5t-11 54.5q0 61 41.5 113t113 82.5t158.5 30.5q76 0 134.5 -26t90 -76.5t31.5 -121.5v-553q0 -96 54 -96q28 0 73 35v-35
q-36 -57 -83 -89t-93 -32q-112 0 -112 172h-5q-93 -172 -229 -172q-90 0 -148.5 63t-58.5 159q0 61 22 114.5t78.5 105t159.5 105.5zM489 553q-147 -73 -207.5 -138t-60.5 -157q0 -72 32.5 -119t82.5 -47q73 0 153 107v354zM376 1458q80 0 135 -56t55 -135q0 -78 -56 -134
t-134 -56q-76 0 -133 57t-57 133q0 77 56 134t134 57zM376 1396q-36 0 -65.5 -17t-46.5 -46.5t-17 -65.5q0 -54 38.5 -91.5t90.5 -37.5q53 0 91 37t38 92q0 36 -17 65.5t-46.5 46.5t-65.5 17z" />
    <glyph glyph-name="ccedilla" unicode="&#xe7;" horiz-adv-x="705" 
d="M627 358l35 -8q-21 -174 -99 -276.5t-188 -102.5q-72 0 -130.5 34.5t-101.5 100t-65.5 154t-22.5 195.5q0 150 42 266.5t119 180t175 63.5q65 0 122.5 -29.5t92.5 -79.5t35 -104q0 -39 -26.5 -64.5t-67.5 -25.5q-46 0 -76.5 28.5t-30.5 73.5q0 2 5.5 25.5t5.5 35.5
q0 31 -23 51.5t-57 20.5q-152 0 -152 -328q0 -200 58.5 -317t160.5 -117q69 0 118.5 59t70.5 164zM233 -180l191 186h74l-103 -117q61 -5 96 -42.5t35 -96.5q0 -57 -34.5 -99t-99.5 -64.5t-150 -22.5q-31 0 -84 6l12 37q195 0 195 114q0 46 -34 71.5t-98 27.5z" />
    <glyph glyph-name="eacute" unicode="&#xe9;" horiz-adv-x="705" 
d="M655 518h-446q5 -98 21 -167.5t42.5 -119t64.5 -76t83 -26.5q127 0 203 207l32 -14q-17 -104 -60 -183.5t-107 -123.5t-136 -44q-88 0 -156.5 60t-106.5 169.5t-38 245.5q0 122 30 240.5t100 198.5t181 80q91 0 156.5 -53t100 -152.5t36.5 -241.5zM209 582h272
q-1 163 -33.5 239t-99.5 76q-68 0 -102 -76t-37 -239zM238 1067l76 346h198l-241 -346h-33z" />
    <glyph glyph-name="egrave" unicode="&#xe8;" horiz-adv-x="705" 
d="M655 518h-446q5 -98 21 -167.5t42.5 -119t64.5 -76t83 -26.5q127 0 203 207l32 -14q-17 -104 -60 -183.5t-107 -123.5t-136 -44q-88 0 -156.5 60t-106.5 169.5t-38 245.5q0 122 30 240.5t100 198.5t181 80q91 0 156.5 -53t100 -152.5t36.5 -241.5zM209 582h272
q-1 163 -33.5 239t-99.5 76q-68 0 -102 -76t-37 -239zM459 1067h-33l-242 346h199z" />
    <glyph glyph-name="ecircumflex" unicode="&#xea;" horiz-adv-x="705" 
d="M655 518h-446q5 -98 21 -167.5t42.5 -119t64.5 -76t83 -26.5q127 0 203 207l32 -14q-17 -104 -60 -183.5t-107 -123.5t-136 -44q-88 0 -156.5 60t-106.5 169.5t-38 245.5q0 122 30 240.5t100 198.5t181 80q91 0 156.5 -53t100 -152.5t36.5 -241.5zM209 582h272
q-1 163 -33.5 239t-99.5 76q-68 0 -102 -76t-37 -239zM356 1287l-231 -209h-35l180 327h170l176 -327h-35z" />
    <glyph glyph-name="edieresis" unicode="&#xeb;" horiz-adv-x="705" 
d="M655 518h-446q5 -98 21 -167.5t42.5 -119t64.5 -76t83 -26.5q127 0 203 207l32 -14q-17 -104 -60 -183.5t-107 -123.5t-136 -44q-88 0 -156.5 60t-106.5 169.5t-38 245.5q0 122 30 240.5t100 198.5t181 80q91 0 156.5 -53t100 -152.5t36.5 -241.5zM209 582h272
q-1 163 -33.5 239t-99.5 76q-68 0 -102 -76t-37 -239zM188 1350q45 0 77 -31t32 -77q0 -45 -32 -77t-77 -32q-44 0 -76 32t-32 77q0 46 32 77t76 31zM520 1350q46 0 77 -31t31 -77q0 -45 -31 -77t-77 -32q-45 0 -77 33t-32 76q0 44 32 76t77 32z" />
    <glyph glyph-name="iacute" unicode="&#xed;" horiz-adv-x="512" 
d="M344 965v-793q0 -69 32 -103t89 -34v-35h-414v35q67 0 98 36t31 119v539q0 41 -18 67.5t-49 26.5q-21 0 -56 -12l-14 31l266 123h35zM141 1067l76 346h198l-241 -346h-33z" />
    <glyph glyph-name="igrave" unicode="&#xec;" horiz-adv-x="512" 
d="M344 965v-793q0 -69 32 -103t89 -34v-35h-414v35q67 0 98 36t31 119v539q0 41 -18 67.5t-49 26.5q-21 0 -56 -12l-14 31l266 123h35zM343 1067h-33l-242 346h199z" />
    <glyph glyph-name="icircumflex" unicode="&#xee;" horiz-adv-x="512" 
d="M344 965v-793q0 -69 32 -103t89 -34v-35h-414v35q67 0 98 36t31 119v539q0 41 -18 67.5t-49 26.5q-21 0 -56 -12l-14 31l266 123h35zM260 1287l-231 -209h-35l180 327h170l176 -327h-35z" />
    <glyph glyph-name="idieresis" unicode="&#xef;" horiz-adv-x="512" 
d="M344 965v-793q0 -69 32 -103t89 -34v-35h-414v35q67 0 98 36t31 119v539q0 41 -18 67.5t-49 26.5q-21 0 -56 -12l-14 31l266 123h35zM92 1350q45 0 77 -31t32 -77q0 -45 -32 -77t-77 -32q-44 0 -76 32t-32 77q0 46 32 77t76 31zM424 1350q46 0 77 -31t31 -77
q0 -45 -31 -77t-77 -32q-45 0 -77 33t-32 76q0 44 32 76t77 32z" />
    <glyph glyph-name="ntilde" unicode="&#xf1;" 
d="M315 965v-189h4q68 101 128.5 145t130.5 44q64 0 109 -30.5t68 -91.5t23 -149v-530q0 -58 26.5 -93.5t72.5 -35.5v-35h-381v35q118 0 118 155v504q0 150 -116 150q-96 0 -183 -125v-529q0 -86 29 -120.5t90 -34.5v-35h-391v35q109 3 109 155v570q0 65 -56 65
q-17 0 -45 -8l-8 31l240 117h32zM218 1110h-34q3 132 40 196q41 66 115 66q30 0 68 -18.5t77.5 -45.5l80 -52.5t61.5 -25.5q34 0 54.5 37.5t21.5 102.5h32q0 -117 -37.5 -188.5t-107.5 -71.5q-48 0 -81 18.5t-110.5 70.5t-103.5 52q-36 0 -54.5 -34t-21.5 -107z" />
    <glyph glyph-name="oacute" unicode="&#xf3;" 
d="M68 467q0 219 111.5 358.5t285.5 139.5q86 0 155.5 -35.5t121 -101.5t79 -156.5t27.5 -196.5q0 -145 -50.5 -260t-140.5 -179.5t-204 -64.5t-201 62.5t-135.5 174.5t-48.5 259zM258 526q0 -222 50 -354.5t161 -132.5q103 0 145.5 99t42.5 276q0 243 -52 363t-159 120
q-102 0 -145 -97.5t-43 -273.5zM344 1067l76 346h198l-241 -346h-33z" />
    <glyph glyph-name="ograve" unicode="&#xf2;" 
d="M68 467q0 219 111.5 358.5t285.5 139.5q86 0 155.5 -35.5t121 -101.5t79 -156.5t27.5 -196.5q0 -145 -50.5 -260t-140.5 -179.5t-204 -64.5t-201 62.5t-135.5 174.5t-48.5 259zM258 526q0 -222 50 -354.5t161 -132.5q103 0 145.5 99t42.5 276q0 243 -52 363t-159 120
q-102 0 -145 -97.5t-43 -273.5zM545 1067h-33l-242 346h199z" />
    <glyph glyph-name="ocircumflex" unicode="&#xf4;" 
d="M68 467q0 219 111.5 358.5t285.5 139.5q86 0 155.5 -35.5t121 -101.5t79 -156.5t27.5 -196.5q0 -145 -50.5 -260t-140.5 -179.5t-204 -64.5t-201 62.5t-135.5 174.5t-48.5 259zM258 526q0 -222 50 -354.5t161 -132.5q103 0 145.5 99t42.5 276q0 243 -52 363t-159 120
q-102 0 -145 -97.5t-43 -273.5zM463 1287l-231 -209h-35l180 327h170l176 -327h-35z" />
    <glyph glyph-name="odieresis" unicode="&#xf6;" 
d="M68 467q0 219 111.5 358.5t285.5 139.5q86 0 155.5 -35.5t121 -101.5t79 -156.5t27.5 -196.5q0 -145 -50.5 -260t-140.5 -179.5t-204 -64.5t-201 62.5t-135.5 174.5t-48.5 259zM258 526q0 -222 50 -354.5t161 -132.5q103 0 145.5 99t42.5 276q0 243 -52 363t-159 120
q-102 0 -145 -97.5t-43 -273.5zM294 1350q45 0 77 -31t32 -77q0 -45 -32 -77t-77 -32q-44 0 -76 32t-32 77q0 46 32 77t76 31zM626 1350q46 0 77 -31t31 -77q0 -45 -31 -77t-77 -32q-45 0 -77 33t-32 76q0 44 32 76t77 32z" />
    <glyph glyph-name="otilde" unicode="&#xf5;" 
d="M68 467q0 219 111.5 358.5t285.5 139.5q86 0 155.5 -35.5t121 -101.5t79 -156.5t27.5 -196.5q0 -145 -50.5 -260t-140.5 -179.5t-204 -64.5t-201 62.5t-135.5 174.5t-48.5 259zM258 526q0 -222 50 -354.5t161 -132.5q103 0 145.5 99t42.5 276q0 243 -52 363t-159 120
q-102 0 -145 -97.5t-43 -273.5zM218 1110h-34q3 132 40 196q41 66 115 66q30 0 68 -18.5t77.5 -45.5l80 -52.5t61.5 -25.5q34 0 54.5 37.5t21.5 102.5h32q0 -117 -37.5 -188.5t-107.5 -71.5q-48 0 -81 18.5t-110.5 70.5t-103.5 52q-36 0 -54.5 -34t-21.5 -107z" />
    <glyph glyph-name="uacute" unicode="&#xfa;" 
d="M770 944v-727q0 -61 9 -79.5t40 -18.5q19 0 43 8l12 -33l-233 -114h-35v190h-4q-45 -88 -116 -139t-144 -51q-87 0 -143 68.5t-56 182.5v523q0 85 -27 120t-77 35v35h268v-684q0 -160 115 -160q49 0 100 35t84 94v525q0 86 -29 120.5t-90 34.5v35h283zM375 1067l76 346
h198l-241 -346h-33z" />
    <glyph glyph-name="ugrave" unicode="&#xf9;" 
d="M770 944v-727q0 -61 9 -79.5t40 -18.5q19 0 43 8l12 -33l-233 -114h-35v190h-4q-45 -88 -116 -139t-144 -51q-87 0 -143 68.5t-56 182.5v523q0 85 -27 120t-77 35v35h268v-684q0 -160 115 -160q49 0 100 35t84 94v525q0 86 -29 120.5t-90 34.5v35h283zM535 1067h-33
l-242 346h199z" />
    <glyph glyph-name="ucircumflex" unicode="&#xfb;" 
d="M770 944v-727q0 -61 9 -79.5t40 -18.5q19 0 43 8l12 -33l-233 -114h-35v190h-4q-45 -88 -116 -139t-144 -51q-87 0 -143 68.5t-56 182.5v523q0 85 -27 120t-77 35v35h268v-684q0 -160 115 -160q49 0 100 35t84 94v525q0 86 -29 120.5t-90 34.5v35h283zM463 1287
l-231 -209h-35l180 327h170l176 -327h-35z" />
    <glyph glyph-name="udieresis" unicode="&#xfc;" 
d="M770 944v-727q0 -61 9 -79.5t40 -18.5q19 0 43 8l12 -33l-233 -114h-35v190h-4q-45 -88 -116 -139t-144 -51q-87 0 -143 68.5t-56 182.5v523q0 85 -27 120t-77 35v35h268v-684q0 -160 115 -160q49 0 100 35t84 94v525q0 86 -29 120.5t-90 34.5v35h283zM274 1350
q45 0 77 -31t32 -77q0 -45 -32 -77t-77 -32q-44 0 -76 32t-32 77q0 46 32 77t76 31zM606 1350q46 0 77 -31t31 -77q0 -45 -31 -77t-77 -32q-45 0 -77 33t-32 76q0 44 32 76t77 32z" />
    <glyph glyph-name="dagger" unicode="&#x2020;" 
d="M440 -422v111q0 303 -27 574.5t-71 414.5q98 80 98 229q-37 0 -65 -10t-62.5 -28t-60.5 -26.5t-55 -8.5t-53 13t-37 37t-13 52q0 45 27.5 70.5t73.5 25.5q33 0 58.5 -10.5t63.5 -33t62.5 -33t60.5 -11.5q-1 37 -12.5 74t-33.5 92t-33 94.5t-11 77.5q0 66 29.5 105.5
t79.5 39.5q49 0 79.5 -40t30.5 -105q0 -48 -12 -89.5t-37 -100.5t-33.5 -85.5t-9.5 -62.5q27 0 54.5 11t66.5 33t66 33t63 11q43 0 69.5 -27.5t26.5 -70.5q0 -42 -29 -71t-73 -29q-42 0 -82 18.5l-80 36.5t-82 18q0 -78 23 -132.5t75 -96.5q-29 -95 -51.5 -249.5
t-34.5 -342.5t-12 -397v-111h-37z" />
    <glyph glyph-name="degree" unicode="&#xb0;" horiz-adv-x="817" 
d="M408 1317q-89 0 -150 -62t-61 -149t62 -149t149 -62t148.5 61.5t61.5 149.5q0 58 -28.5 106.5t-76 76.5t-105.5 28zM408 1419q84 0 156 -42.5t114.5 -114.5t42.5 -156t-42.5 -156t-114.5 -114.5t-156 -42.5t-156 42t-115 114.5t-43 156.5t43 156.5t115 114.5t156 42z" />
    <glyph glyph-name="cent" unicode="&#xa2;" horiz-adv-x="705" 
d="M106 -377l101 410q-72 56 -112 166.5t-40 255.5q0 150 42 266.5t118 180t174 63.5q27 0 47 -4l101 409h69l-106 -428q65 -31 103 -81.5t38 -108.5q0 -39 -26.5 -64.5t-67.5 -25.5q-75 0 -98 65h-5l-129 -534q55 -58 123 -58q69 0 118.5 59t70.5 164l35 -8
q-21 -173 -99 -276t-188 -103q-54 0 -109 23l-92 -371h-68zM268 272l150 613q-20 12 -47 12q-73 0 -112.5 -83t-39.5 -245q0 -165 45 -297h4z" />
    <glyph glyph-name="sterling" unicode="&#xa3;" 
d="M82 676v96h166q-6 153 -6 207q0 144 43.5 244t116 148t159.5 48q64 0 119.5 -27.5t87 -75t31.5 -104.5q0 -37 -24 -63.5t-58 -26.5q-33 0 -53.5 22.5t-20.5 55.5q0 3 3 33t3 39q0 35 -26.5 60.5t-69.5 25.5q-84 0 -115.5 -70.5t-31.5 -187.5q0 -155 14 -328h229v-96h-225
q3 -46 3 -89q0 -166 -58 -370q94 -37 154.5 -51t115.5 -14q77 0 130.5 45t68.5 120h34q-10 -91 -51 -171t-100.5 -125.5t-122.5 -45.5q-55 0 -112.5 35t-147.5 125q-37 -85 -77.5 -122.5t-94.5 -37.5q-53 0 -87 37.5t-34 96.5q0 67 42.5 111t105.5 44q37 0 86 -14q1 6 1 26
q0 37 -3 99t-7.5 121t-15.5 180h-172zM274 178q-48 19 -81 19q-40 0 -67.5 -25.5t-27.5 -65.5q0 -28 20.5 -48.5t47.5 -20.5q39 0 69 39.5t39 101.5z" />
    <glyph glyph-name="section" unicode="&#xa7;" horiz-adv-x="705" 
d="M231 872q-114 122 -114 256q0 76 34 144.5t92 107.5t128 39q58 0 109 -29.5t81.5 -78.5t30.5 -107q0 -39 -22.5 -67.5t-57.5 -28.5q-32 0 -53 24t-21 60q0 12 11 54t12 57q0 35 -24.5 56t-61.5 21q-42 0 -77 -24t-55 -66t-20 -92t24.5 -99.5t84.5 -109.5l89 -80t87 -80
q61 -61 94.5 -111t47.5 -99t14 -105q0 -105 -52 -198t-139 -148q60 -68 86.5 -128t26.5 -136q0 -78 -33 -143t-90.5 -102.5t-124.5 -37.5q-57 0 -109 29t-83 78t-31 104q0 43 23.5 70.5t58.5 27.5q32 0 50.5 -22.5t18.5 -57.5q0 -23 -10 -60t-10 -52q0 -36 25 -60t63 -24
q63 0 107 54t44 130q0 49 -21.5 93.5t-82.5 105.5q-22 24 -98.5 92.5l-92.5 83.5q-79 79 -115 152t-36 155q0 70 18.5 128.5t59.5 113t114 110.5zM446 197q121 81 121 221q0 84 -50.5 162.5t-172.5 181.5q-64 56 -86 80q-119 -74 -119 -215q0 -81 41 -153.5t139 -162.5z" />
    <glyph glyph-name="bullet" unicode="&#x2022;" horiz-adv-x="717" 
d="M360 928q52 0 98.5 -19t80.5 -53t52.5 -80.5t18.5 -97.5q0 -67 -33 -125.5t-90 -92.5t-127 -34q-104 0 -177.5 74.5t-73.5 177.5q0 69 33.5 126t91 90.5t126.5 33.5z" />
    <glyph glyph-name="paragraph" unicode="&#xb6;" horiz-adv-x="928" 
d="M973 1397v-39h-43q-58 0 -83 -19t-30.5 -59t-5.5 -133v-1569h-74v1761h-194v-1761h-76v1034q-91 5 -161.5 17t-125.5 34t-94 58q-43 41 -68.5 89t-37 98t-11.5 100q0 110 52.5 199t158 139.5t256.5 50.5h537z" />
    <glyph glyph-name="germandbls" unicode="&#xdf;" 
d="M467 805v59q52 11 83 42t45.5 89.5t14.5 141.5q0 77 -19 136t-55.5 89.5t-86.5 30.5q-134 0 -134 -232v-971q0 -76 22 -111t75 -44v-35h-363v35q58 1 80.5 40.5t22.5 114.5v877q0 111 29.5 198.5t98.5 141t179 53.5q89 0 164 -43t117 -117t42 -167q0 -188 -178 -285
q133 -36 196.5 -134.5t63.5 -269.5q0 -125 -36 -229.5t-98 -164.5t-136 -60q-67 0 -116.5 48t-49.5 112q0 42 23 70t57 28q18 0 31 -5t25 -17t17 -26t5 -32q0 -29 -13.5 -55t-13.5 -31q0 -13 11 -22t26 -9q44 0 71 74t27 190q0 111 -23 223t-73.5 186t-130.5 81z" />
    <glyph glyph-name="registered" unicode="&#xae;" horiz-adv-x="1556" 
d="M397 1137h400q90 0 160 -29.5t107.5 -82.5t37.5 -120q0 -86 -56 -141.5t-174 -85.5l215 -307q34 -49 61 -68t64 -22v-35h-188l-303 418h-78v-304q0 -45 28.5 -62t92.5 -17v-35h-377v35q61 0 84 21t23 75v631q0 51 -21 71.5t-76 20.5v37zM643 707h31q81 0 140.5 22
t90.5 64.5t31 101.5q0 85 -59 141t-148 56q-34 0 -86 -17v-368zM778 1419q150 0 282.5 -56t233.5 -157t157 -233.5t56 -282.5q0 -196 -97.5 -364.5t-265 -266.5t-366.5 -98q-197 0 -365 98t-266 266t-98 365q0 199 98 366.5t266.5 265t364.5 97.5zM776 1356
q-179 0 -332.5 -89.5t-243 -243.5t-89.5 -333t89.5 -332.5t243 -243t332.5 -89.5t333 89.5t243.5 243t89.5 332.5q0 136 -51 257t-144 214t-214 144t-257 51z" />
    <glyph glyph-name="copyright" unicode="&#xa9;" horiz-adv-x="1556" 
d="M1139 1157l20 -289h-41q-74 244 -309 244q-100 0 -174.5 -49t-115 -139.5t-40.5 -210.5q0 -149 45 -244t122 -138.5t173 -43.5q200 0 320 166l39 -19q-147 -209 -396 -209q-132 0 -242 60.5t-172.5 165.5t-62.5 231q0 134 67.5 242.5t185.5 170.5t261 62q49 0 90.5 -9.5
t83.5 -22.5t54 -13q32 0 51 45h41zM778 1419q150 0 282.5 -56t233.5 -157t157 -233.5t56 -282.5q0 -196 -97.5 -364.5t-265 -266.5t-366.5 -98q-197 0 -365 98t-266 266t-98 365q0 199 98 366.5t266.5 265t364.5 97.5zM776 1356q-179 0 -332.5 -89.5t-243 -243.5t-89.5 -333
t89.5 -332.5t243 -243t332.5 -89.5t333 89.5t243.5 243t89.5 332.5q0 136 -51 257t-144 214t-214 144t-257 51z" />
    <glyph glyph-name="trademark" unicode="&#x2122;" horiz-adv-x="2007" 
d="M51 1397h729l23 -205h-35q-8 55 -29.5 85t-61 43t-104.5 13h-75v-577q0 -53 7.5 -80t30 -37t70.5 -12v-37h-375v37q50 5 69.5 14.5t26.5 33.5t7 81v577h-80q-91 0 -132 -30.5t-56 -110.5h-35zM1159 1397l273 -572l270 572h272v-37q-51 -2 -72.5 -11t-28.5 -35t-7 -89
v-469q0 -84 17 -104.5t91 -24.5v-37h-399v37q58 2 83 11t34.5 35t9.5 83v491h-4l-309 -657h-33l-305 649h-4v-483q0 -64 9.5 -89.5t35.5 -32.5t88 -7v-37h-310v37q51 0 74.5 8.5t32 35.5t8.5 85v469q0 61 -8 89.5t-32 37t-75 8.5v37h289z" />
    <glyph glyph-name="acute" unicode="&#xb4;" horiz-adv-x="682" 
d="M256 1090l76 346h198l-241 -346h-33z" />
    <glyph glyph-name="dieresis" unicode="&#xa8;" horiz-adv-x="682" 
d="M176 1372q45 0 77 -31t32 -77q0 -45 -32 -77t-77 -32q-44 0 -76 32t-32 77q0 46 32 77t76 31zM508 1372q46 0 77 -31t31 -77q0 -45 -31 -77t-77 -32q-45 0 -77 33t-32 76q0 44 32 76t77 32z" />
    <glyph glyph-name="notequal" unicode="&#x2260;" horiz-adv-x="1124" 
d="M1087 289h-602l-163 -289h-111l166 289h-340v96h393l158 279h-551v96h604l164 291h108l-163 -291h337v-96h-391l-155 -279h546v-96z" />
    <glyph glyph-name="AE" unicode="&#xc6;" horiz-adv-x="1622" 
d="M954 696v-485q0 -64 8 -90t32 -34.5t77 -8.5h96q89 0 145 11t98 42t73.5 84t66.5 143l33 -12l-100 -346h-901v35h20q68 0 101.5 16t46 56.5t12.5 113.5v318h-322l-147 -355q-19 -44 -19 -80q0 -37 25 -53t84 -16v-35h-338v35q62 2 99 42.5t85 158.5l420 1021q15 36 15 54
q0 29 -26 40t-101 11v35h938l18 -301h-33q-17 119 -59 171t-133 52h-314v-545h226q93 0 131.5 48.5t38.5 160.5h34v-489h-34q0 117 -36 159.5t-114 42.5h-246zM762 616v703h-4l-285 -703h289z" />
    <glyph glyph-name="Oslash" unicode="&#xd8;" horiz-adv-x="1217" 
d="M334 268l506 957q-76 131 -232 131q-88 0 -150 -41.5t-100 -124.5t-55.5 -203t-17.5 -289q0 -280 49 -430zM879 1139l-506 -961q74 -137 235 -137q124 0 195 78t100 220.5t29 358.5q0 286 -53 441zM248 -57l-68 34l76 144q-64 67 -109.5 158.5t-68.5 199t-23 219.5
q0 187 62.5 355t188 271t302.5 103q167 0 289 -94l68 127l65 -35l-76 -141q54 -54 91.5 -118.5t64 -144t39 -158.5t12.5 -165q0 -141 -35 -270.5t-103.5 -233t-174 -164.5t-240.5 -61q-167 0 -295 99z" />
    <glyph glyph-name="infinity" unicode="&#x221e;" horiz-adv-x="1460" 
d="M1407 526q0 -186 -115 -307q-50 -53 -111.5 -83t-123.5 -30q-60 0 -112 25t-101.5 80t-98.5 139l-24 43q-44 -83 -90.5 -134.5t-103 -75t-130.5 -23.5q-100 0 -177.5 47t-122 132t-44.5 189q0 102 40.5 186.5t110.5 132.5t156 48q112 0 183 -68q54 -54 110 -159
q48 108 95 166q95 110 276 110q72 0 128 -19.5t110 -64.5q145 -124 145 -334zM1350 526q0 90 -38 169.5t-104 125t-141 45.5q-104 0 -172 -84q-29 -36 -54.5 -92t-78.5 -196l-12 -29q49 -101 93 -156.5t97.5 -81.5t120.5 -26q83 0 149 41.5t103 115.5t37 168zM625 590
q-38 80 -75 125t-84.5 67.5t-107.5 22.5q-74 0 -130 -35t-87.5 -97t-31.5 -143q0 -79 30.5 -147t83 -106.5t115.5 -38.5q60 0 115 36.5t84 92.5q39 77 77 190z" />
    <glyph glyph-name="plusminus" unicode="&#xb1;" horiz-adv-x="1366" 
d="M139 942h477v477h132v-477h477v-131h-477v-477h-132v477h-477v131zM139 131h1086v-131h-1086v131z" />
    <glyph glyph-name="lessequal" unicode="&#x2264;" horiz-adv-x="1124" 
d="M1065 221l-1006 498v51l1006 502v-111l-842 -416l842 -417v-107zM1065 0h-1006v96h1006v-96z" />
    <glyph glyph-name="greaterequal" unicode="&#x2265;" horiz-adv-x="1124" 
d="M1065 723l-1006 -502v111l842 416l-842 417v107l1006 -498v-51zM1065 0h-1006v96h1006v-96z" />
    <glyph glyph-name="yen" unicode="&#xa5;" horiz-adv-x="1217" 
d="M1094 786v-77h-375l-17 -29v-160h392v-78h-392v-221q0 -80 14.5 -119.5t51.5 -53t113 -13.5v-35h-549v35q79 0 115.5 14t49.5 52t13 120v221h-391v78h391v135l-21 54h-370v77h332l-224 451q-34 69 -64 94t-87 31v35h467v-35q-55 0 -80.5 -4.5t-35 -15t-9.5 -31.5
q0 -15 18 -58l234 -473l209 473q10 21 10 54q0 29 -23 42t-84 13v35h359v-35q-57 -5 -88.5 -18t-57 -46.5t-59.5 -107.5l-184 -404h342z" />
    <glyph glyph-name="mu" unicode="&#xb5;" horiz-adv-x="1024" 
d="M158 944h164v-579q0 -98 5.5 -151t27 -87.5t65.5 -34.5q42 0 74 18t57.5 48.5t69.5 91.5v694h163v-686q0 -96 13.5 -136t48.5 -40q60 0 80 127h43q-5 -112 -52.5 -175t-138.5 -63q-72 0 -110 47.5t-45 147.5h-5q-49 -80 -72.5 -112.5t-63.5 -57.5t-95 -25q-60 0 -91.5 20
t-62.5 68h-4q-2 -38 -2 -54q0 -50 3.5 -74.5t14 -83t15 -88.5t4.5 -70q0 -49 -20.5 -80t-59.5 -31q-38 0 -60 31t-22 82q0 30 5.5 58t20.5 90.5t22.5 108t7.5 111.5v885z" />
    <glyph glyph-name="partialdiff" unicode="&#x2202;" horiz-adv-x="1012" 
d="M995 920q0 -140 -28 -281t-81.5 -263.5t-127.5 -219.5q-143 -187 -355 -187q-154 0 -245.5 91.5t-91.5 244.5q0 157 76.5 296.5t203.5 222.5t270 83q106 0 189 -51q44 -27 72 -58t51 -81h4q10 147 10 186q0 117 -41.5 202t-120 130t-184.5 45q-100 0 -171.5 -37.5
t-129.5 -122.5h-45q35 74 61.5 116t63.5 79q49 51 117 79.5t137 28.5q47 0 94 -13.5t88 -39.5t70 -59q114 -130 114 -391zM911 629q-36 105 -111 165t-173 60q-81 0 -157.5 -49t-121.5 -127q-33 -57 -60 -132t-41 -146.5t-14 -135.5q0 -108 53.5 -172.5t143.5 -64.5
q72 0 152 49.5t147 136.5q70 93 112 188.5t70 227.5z" />
    <glyph glyph-name="summation" unicode="&#x2211;" horiz-adv-x="1460" 
d="M1419 212l-63 -416h-1313v37l670 831l-670 814v39h1278l27 -338h-39q-16 133 -76 194.5t-174 61.5h-740l562 -685l-629 -778h819q54 0 114.5 17t90.5 39q36 25 60.5 71t43.5 121z" />
    <glyph glyph-name="product" unicode="&#x220f;" horiz-adv-x="1686" 
d="M1640 -204h-598v37h35q87 0 125.5 37.5t38.5 118.5v1450h-797v-1450q0 -79 39.5 -117.5t122.5 -38.5h37v-37h-598v37h35q87 0 125.5 37.5t38.5 118.5v1335q0 83 -38.5 119.5t-125.5 36.5h-35v37h1595v-37h-34q-85 0 -124.5 -36.5t-39.5 -119.5v-1335q0 -81 39.5 -118.5
t124.5 -37.5h34v-37z" />
    <glyph glyph-name="pi" unicode="&#xf006;" horiz-adv-x="1124" 
d="M1049 258q-7 -61 -18.5 -104.5t-31.5 -79.5q-24 -48 -66.5 -76.5t-90.5 -28.5q-35 0 -69.5 16.5t-53.5 43.5q-32 44 -46 107.5t-14 168.5q0 62 7 158q3 27 5 52.5t9 98.5l5.5 48l6.5 55l6 53h-260l-4 -61q-17 -294 -39.5 -450t-58.5 -223t-94 -67q-34 0 -59 25t-25 59
q0 27 12 52t43 67q46 59 68.5 113t37.5 143q15 85 22.5 160.5t12.5 181.5h-45q-50 0 -74 -6.5t-51 -26.5q-46 -36 -90 -110h-39q52 160 116.5 224t174.5 64h703v-145h-242q-17 -109 -26 -222.5t-9 -215.5q0 -93 33 -142t92 -49q97 0 117 117h35z" />
    <glyph glyph-name="integral" unicode="&#x222b;" horiz-adv-x="561" 
d="M561 1755q0 -29 -12.5 -53t-34 -36.5t-47.5 -12.5q-36 0 -76 35q-20 20 -39 20q-41 0 -41 -63q0 -46 11 -146q18 -204 27 -371t9 -294l-2 -121l-14 -471q-6 -190 -49 -320q-22 -67 -68 -104t-106 -37q-54 0 -86.5 33.5t-32.5 87.5q0 44 25 71t65 27q42 0 70 -33
q13 -14 24 -22t25 -8q39 0 39 61q0 37 -10 119q-20 170 -29 395q-3 104 -6 229q-2 70 -2 154l16 553q6 191 66 317q19 40 63.5 69.5t87.5 29.5q31 0 61.5 -15t48 -41t17.5 -53z" />
    <glyph glyph-name="ordfeminine" unicode="&#xaa;" horiz-adv-x="532" 
d="M309 1217v81q0 93 -67 93q-28 0 -48 -18t-20 -46q0 -1 5 -24t5 -33q0 -22 -19.5 -36.5t-45.5 -14.5q-31 0 -50.5 18.5t-19.5 50.5q0 57 62 98t149 41q83 0 130.5 -35.5t47.5 -101.5v-338q0 -41 21 -41q24 0 59 35v-41q-53 -76 -125 -76t-84 76q-38 -43 -68 -59.5
t-69 -16.5q-62 0 -102.5 39.5t-40.5 98.5q0 73 56 123.5t224 126.5zM309 971v194q-81 -38 -114 -74t-33 -87q0 -37 17 -65t42 -28q20 0 40.5 14.5t47.5 45.5z" />
    <glyph glyph-name="ordmasculine" unicode="&#xba;" horiz-adv-x="598" 
d="M37 1126q0 133 74.5 217t191.5 84q76 0 134 -37t90 -103.5t32 -153.5q0 -88 -33.5 -157.5t-94 -108t-136.5 -38.5q-114 0 -186 83t-72 214zM182 1178q0 -295 121 -295q57 0 84 52t27 159q0 282 -123 282q-109 0 -109 -198z" />
    <glyph glyph-name="Omega" unicode="&#x2126;" horiz-adv-x="1573" 
d="M1518 0h-568l23 279q97 39 158 102t89.5 154.5t28.5 218.5q0 259 -123 405q-64 76 -152 117t-192 41q-102 0 -187 -39.5t-147 -112.5t-95.5 -175t-33.5 -222q0 -133 38 -242.5t106 -171.5q31 -28 57 -42.5t76 -32.5l22 -279h-563v279h35q3 -61 31 -82q26 -20 55.5 -27.5
t83.5 -7.5h270v69q-137 40 -236.5 118.5t-150.5 190t-51 248.5q0 130 50.5 241t142.5 191t218.5 123t278.5 43q154 0 283.5 -43.5t221 -121.5t143 -189.5t51.5 -243.5q0 -137 -54.5 -253t-154.5 -195.5t-230 -108.5l-8 -69h275q88 0 125 24.5t45 92.5h39v-279z" />
    <glyph glyph-name="ae" unicode="&#xe6;" horiz-adv-x="1110" 
d="M608 518v-28q0 -120 24.5 -202t72 -121.5t112.5 -39.5q79 0 132 50t89 161l35 -12q-11 -79 -41 -146.5t-72 -113.5t-95.5 -70.5t-112.5 -24.5q-58 0 -102 17t-80.5 55t-65.5 94q-91 -92 -149.5 -129t-116.5 -37q-83 0 -139 63t-56 156q0 124 96 224.5t307 197.5v78
q0 116 -28 173t-99 57q-44 0 -71 -27t-27 -72q0 -16 9.5 -57.5t9.5 -54.5q0 -31 -25 -53.5t-61 -22.5q-38 0 -62 28t-24 68q0 99 79.5 167.5t194.5 68.5q75 0 130.5 -24t107.5 -77q85 101 200 101q58 0 108.5 -26t86.5 -78t58.5 -141t23.5 -202h-449zM446 553
q-237 -106 -237 -297q0 -77 28.5 -120.5t81.5 -43.5q84 0 168 84q-23 57 -34 119t-11 151q0 62 4 107zM893 582q-6 160 -38.5 232.5t-104.5 72.5t-106 -73t-36 -232h285z" />
    <glyph glyph-name="oslash" unicode="&#xf8;" 
d="M291 227l303 572q-53 98 -148 98q-102 0 -145 -97.5t-43 -273.5q0 -181 33 -299zM627 713l-305 -568q51 -106 147 -106q103 0 145.5 99t42.5 276q0 185 -30 299zM721 1034l61 -30l-73 -140q139 -139 139 -389q0 -145 -50.5 -260t-140.5 -179.5t-204 -64.5q-111 0 -193 60
l-72 -135l-59 30l80 148q-66 63 -103.5 165t-37.5 228q0 219 111.5 358.5t285.5 139.5q103 0 188 -56z" />
    <glyph glyph-name="questiondown" unicode="&#xbf;" horiz-adv-x="705" 
d="M47 -164q0 89 36.5 162t113.5 179.5t115 180t38 158.5v82h33v-102q0 -88 -18.5 -158t-54.5 -160.5t-54 -157t-18 -155.5q0 -135 47.5 -213t128.5 -78q54 0 93.5 36.5t39.5 84.5q0 26 -10 47t-27.5 45t-27 44.5t-9.5 45.5q0 32 21 55t53 23q51 0 86 -46t35 -114
q0 -77 -41.5 -141.5t-112 -102.5t-152.5 -38q-90 0 -161 42t-112.5 117t-41.5 164zM352 741q-45 0 -77.5 32.5t-32.5 78.5q0 47 32 80t78 33q30 0 56.5 -16t41.5 -42t15 -55q0 -45 -34 -78t-79 -33z" />
    <glyph glyph-name="exclamdown" unicode="&#xa1;" horiz-adv-x="512" 
d="M240 563h34q4 -122 20.5 -258.5l44.5 -354.5t28 -276q0 -77 -29 -119t-84 -42q-52 0 -80.5 37.5t-28.5 105.5q0 71 17.5 203.5l35.5 259.5t30 238.5t12 205.5zM256 741q-45 0 -78 33t-33 78q0 29 14.5 55t41 42t55.5 16q30 0 56 -15.5t41.5 -41.5t15.5 -56
q0 -29 -16 -55.5t-42 -41t-55 -14.5z" />
    <glyph glyph-name="logicalnot" unicode="&#xac;" horiz-adv-x="1366" 
d="M139 997h1086v-598h-131v467h-955v131z" />
    <glyph glyph-name="radical" unicode="&#x221a;" horiz-adv-x="1124" 
d="M1124 1870l-311 -1948l-496 1022l-198 -92l-35 63l301 152l403 -823h5l258 1626h73z" />
    <glyph glyph-name="florin" unicode="&#x192;" horiz-adv-x="999" 
d="M637 803l-94 -449q-60 -284 -134 -457.5t-150.5 -246t-154.5 -72.5q-52 0 -88 29t-36 71q0 37 24 64t57 27q17 0 32.5 -8.5t23.5 -22t8 -29.5q0 -28 -16.5 -46.5t-16.5 -27.5q0 -20 31 -20q50 0 94.5 64t71.5 194l192 930h-123l15 63q67 8 98 39q23 23 42.5 64.5
t57.5 133t66 143t68 91.5q80 82 174 82q62 0 101.5 -32.5t39.5 -81.5q0 -39 -23 -65t-57 -26q-28 0 -45.5 17.5t-17.5 44.5q0 19 10 42t10 36q0 24 -31 24q-114 0 -170 -286l-45 -226h144l-15 -63h-143z" />
    <glyph glyph-name="approxequal" unicode="&#x2248;" horiz-adv-x="1124" 
d="M1073 874q-20 -152 -93.5 -236.5t-188.5 -84.5q-56 0 -123.5 26.5t-180.5 90.5q-140 78 -211 78q-72 0 -118.5 -49.5t-59.5 -137.5h-47q20 151 93 236.5t182 85.5q48 0 123 -25q56 -21 208 -102q118 -62 193 -62q41 0 68.5 13.5t54.5 46.5q39 47 49 120h51zM1073 487
q-20 -152 -93.5 -236.5t-188.5 -84.5q-56 0 -121 25t-183 90q-71 42 -121 60.5t-90 18.5q-72 0 -118.5 -49t-59.5 -137h-47q12 98 49 170.5t95 111t131 38.5q48 0 123 -25q52 -16 208 -100q118 -62 193 -62q41 0 68.5 13.5t54.5 46.5q39 47 49 120h51z" />
    <glyph glyph-name="Delta" unicode="&#x2206;" horiz-adv-x="1253" 
d="M1227 0h-1200l628 1386zM991 82l-399 967l-440 -967h839z" />
    <glyph glyph-name="guillemotleft" unicode="&#xab;" horiz-adv-x="811" 
d="M604 522l168 -473h-61l-305 473l305 469h61zM244 522l168 -473h-62l-305 473l305 469h62z" />
    <glyph glyph-name="guillemotright" unicode="&#xbb;" horiz-adv-x="811" 
d="M207 522l-168 469h61l306 -469l-306 -473h-61zM567 522l-168 469h62l305 -469l-305 -473h-62z" />
    <glyph glyph-name="ellipsis" unicode="&#x2026;" horiz-adv-x="2048" 
d="M342 199q46 0 78.5 -31.5t32.5 -79.5t-32.5 -80.5t-78.5 -32.5q-47 0 -80 33t-33 80t33 79t80 32zM1024 199q46 0 78.5 -31.5t32.5 -79.5t-32.5 -80.5t-78.5 -32.5q-47 0 -80 33t-33 80t33 79t80 32zM1706 199q46 0 78.5 -31.5t32.5 -79.5t-32.5 -80.5t-78.5 -32.5
q-47 0 -80 33t-33 80t33 79t80 32z" />
    <glyph glyph-name="nonbreakingspace" unicode="&#xa0;" horiz-adv-x="389" 
 />
    <glyph glyph-name="Agrave" unicode="&#xc0;" horiz-adv-x="1217" 
d="M371 446l-80 -270q-10 -32 -10 -61q0 -41 30 -60.5t105 -19.5v-35h-379v35q74 0 111.5 39.5t70.5 152.5l359 1200h32l385 -1200q30 -94 52.5 -133t50 -49t82.5 -10v-35h-478v35q64 0 91.5 18t27.5 62q0 26 -20 92l-78 239h-352zM698 524l-157 498h-4l-144 -498h305z
M674 1493h-33l-242 346h199z" />
    <glyph glyph-name="Atilde" unicode="&#xc3;" horiz-adv-x="1217" 
d="M371 446l-80 -270q-10 -32 -10 -61q0 -41 30 -60.5t105 -19.5v-35h-379v35q74 0 111.5 39.5t70.5 152.5l359 1200h32l385 -1200q30 -94 52.5 -133t50 -49t82.5 -10v-35h-478v35q64 0 91.5 18t27.5 62q0 26 -20 92l-78 239h-352zM698 524l-157 498h-4l-144 -498h305z
M368 1536h-34q3 132 40 196q41 66 115 66q30 0 68 -18.5t77.5 -45.5l80 -52.5t61.5 -25.5q34 0 54.5 37.5t21.5 102.5h32q0 -117 -37.5 -188.5t-107.5 -71.5q-48 0 -81 18.5t-110.5 70.5t-103.5 52q-36 0 -54.5 -34t-21.5 -107z" />
    <glyph glyph-name="Otilde" unicode="&#xd5;" horiz-adv-x="1217" 
d="M55 698q0 187 62.5 355t188 271t302.5 103t302.5 -103t188 -271t62.5 -355q0 -141 -35 -270.5t-103.5 -233t-174 -164.5t-240.5 -61q-171 0 -297 100t-191 267.5t-65 361.5zM285 698q0 -227 33.5 -373.5t105 -215t184.5 -68.5q124 0 195 78t100 220.5t29 358.5
q0 229 -33.5 375t-105 214.5t-185.5 68.5q-88 0 -150 -41.5t-100 -124.5t-55.5 -203t-17.5 -289zM337 1536h-34q3 132 40 196q41 66 115 66q30 0 68 -18.5t77.5 -45.5l80 -52.5t61.5 -25.5q34 0 54.5 37.5t21.5 102.5h32q0 -117 -37.5 -188.5t-107.5 -71.5q-48 0 -81 18.5
t-110.5 70.5t-103.5 52q-36 0 -54.5 -34t-21.5 -107z" />
    <glyph glyph-name="OE" unicode="&#x152;" horiz-adv-x="1622" 
d="M963 696v-506q0 -71 18.5 -91.5t81.5 -20.5h145q79 0 133 14.5t94 46t71.5 86.5t56.5 133l32 -10l-100 -348h-709q-27 0 -35.5 -0.5l-35.5 -2t-53 -3.5q-66 -6 -127 -6q-121 0 -229.5 74.5t-176.5 231.5t-68 394q0 170 34 306.5t101 229.5t162.5 140t219.5 47
q22 0 33.5 -1t28 -2t38.5 -3q66 -8 100 -8h707l22 -301h-34q-15 124 -64.5 173.5t-157.5 49.5h-288v-545h219q96 0 137 45t41 162h37v-489h-37q0 117 -36 160.5t-112 43.5h-249zM770 281v815q0 120 -48 181.5t-142 61.5q-111 0 -172.5 -75.5t-86 -233t-24.5 -409.5
q0 -150 12 -249.5t42.5 -170.5t83 -106.5t132.5 -35.5q91 0 147 60.5t56 161.5z" />
    <glyph glyph-name="oe" unicode="&#x153;" horiz-adv-x="1217" 
d="M1167 516h-428q0 -190 52 -286.5t153 -96.5q131 0 205 203l33 -12q-25 -119 -66.5 -197.5t-100 -117t-138.5 -38.5q-71 0 -121.5 34.5t-93.5 111.5q-65 -80 -120.5 -113t-127.5 -33q-99 0 -180.5 65.5t-128 180.5t-46.5 256t49.5 253.5t131.5 175.5t172 63q77 0 141 -38
t109 -110q40 72 97.5 110t127.5 38q81 0 144.5 -48t99.5 -148.5t36 -252.5zM244 608q0 -191 14 -312.5t53 -187t111 -65.5q95 0 123 93.5t28 256.5q0 191 -23 300.5t-62 154.5t-93 45q-151 0 -151 -285zM739 580h265q-4 160 -36 233.5t-98 73.5q-131 0 -131 -275v-32z" />
    <glyph glyph-name="endash" unicode="&#x2013;" horiz-adv-x="1024" 
d="M0 543h1024v-64h-1024v64z" />
    <glyph glyph-name="emdash" unicode="&#x2014;" horiz-adv-x="2048" 
d="M0 543h2048v-64h-2048v64z" />
    <glyph glyph-name="quotedblleft" unicode="&#x201c;" 
d="M764 1460v-43q-75 -39 -110.5 -94t-35.5 -104q0 -62 35 -62q9 0 24.5 10.5t39.5 10.5q45 0 72.5 -31.5t27.5 -75.5q0 -52 -36 -85.5t-89 -33.5q-43 0 -81 26.5t-61.5 74t-23.5 104.5q0 85 68 175t170 128zM348 1460v-43q-73 -38 -109 -93.5t-36 -104.5q0 -62 35 -62
q10 0 24.5 10.5t38.5 10.5q45 0 72.5 -31.5t27.5 -75.5q0 -52 -36 -85.5t-89 -33.5q-42 0 -80 26.5t-61.5 74t-23.5 104.5q0 85 67.5 175t169.5 128z" />
    <glyph glyph-name="quotedblright" unicode="&#x201d;" 
d="M569 952v43q75 39 110.5 94.5t35.5 104.5q0 30 -10 45.5t-25 15.5q-9 0 -25 -10t-39 -10q-44 0 -72 30.5t-28 75.5q0 52 36 85.5t89 33.5q66 0 116 -58t50 -147q0 -52 -30.5 -113.5t-84 -112t-123.5 -77.5zM154 952v43q74 40 109.5 95t35.5 104q0 61 -35 61q-8 0 -24 -10
t-39 -10q-45 0 -73 30.5t-28 75.5q0 52 36 85.5t89 33.5q66 0 116 -58t50 -147q0 -52 -30.5 -114t-83.5 -112t-123 -77z" />
    <glyph glyph-name="quoteleft" unicode="&#x2018;" horiz-adv-x="512" 
d="M348 1460v-43q-73 -38 -109 -93.5t-36 -104.5q0 -62 35 -62q10 0 24.5 10.5t38.5 10.5q45 0 72.5 -31.5t27.5 -75.5q0 -52 -36 -85.5t-89 -33.5q-42 0 -80 26.5t-61.5 74t-23.5 104.5q0 85 67.5 175t169.5 128z" />
    <glyph glyph-name="quoteright" unicode="&#x2019;" horiz-adv-x="512" 
d="M164 952v43q74 40 109.5 95t35.5 104q0 61 -35 61q-8 0 -24 -10t-39 -10q-44 0 -72 30.5t-28 75.5q0 52 36 85.5t89 33.5q65 0 115 -58t50 -147q0 -52 -30.5 -114t-83.5 -112t-123 -77z" />
    <glyph glyph-name="divide" unicode="&#xf7;" horiz-adv-x="1368" 
d="M684 1192q36 0 60 -24t24 -60q0 -35 -24.5 -60.5t-59.5 -25.5q-34 0 -60 26t-26 60q0 35 25.5 59.5t60.5 24.5zM139 762h1088v-131h-1088v131zM684 371q36 0 60 -24t24 -60q0 -35 -24.5 -60.5t-59.5 -25.5q-34 0 -60 26t-26 60q0 35 25.5 59.5t60.5 24.5z" />
    <glyph glyph-name="lozenge" unicode="&#x25ca;" horiz-adv-x="1012" 
d="M967 709l-418 -709h-111l-391 709l391 714h111zM854 709l-358 616l-340 -616l340 -615z" />
    <glyph glyph-name="ydieresis" unicode="&#xff;" horiz-adv-x="811" 
d="M31 944h370v-35q-51 -2 -72.5 -17.5t-21.5 -49.5q0 -23 10 -54l164 -499h4l127 495q2 10 5 19t6.5 25t3.5 30q0 26 -16 38t-54 13v35h217v-35q-41 -17 -59.5 -43t-36.5 -96l-215 -840q-45 -172 -118.5 -262t-170.5 -90q-52 0 -86.5 30.5t-34.5 74.5q0 42 27 69t67 27
q38 0 72 -16.5t47 -16.5q49 0 86.5 75.5t57.5 178.5l-256 770q-21 63 -49 95t-74 44v35zM241 1350q45 0 77 -31t32 -77q0 -45 -32 -77t-77 -32q-44 0 -76 32t-32 77q0 46 32 77t76 31zM573 1350q46 0 77 -31t31 -77q0 -45 -31 -77t-77 -32q-45 0 -77 33t-32 76q0 44 32 76
t77 32z" />
    <glyph glyph-name="Ydieresis" unicode="&#x178;" horiz-adv-x="1217" 
d="M702 598v-377q0 -83 13.5 -120.5t51 -51.5t114.5 -14v-35h-549v35q75 0 112.5 13t51.5 52.5t14 120.5v365l-324 651q-34 69 -64 94t-87 31v35h467v-35q-55 0 -80.5 -4.5t-35 -15t-9.5 -31.5q0 -23 18 -58l273 -546l252 546q10 21 10 54q0 32 -23.5 43.5t-83.5 11.5v35
h359v-35q-79 -6 -118.5 -39.5t-86.5 -132.5zM464 1776q45 0 77 -31t32 -77q0 -45 -32 -77t-77 -32q-44 0 -76 32t-32 77q0 46 32 77t76 31zM796 1776q46 0 77 -31t31 -77q0 -45 -31 -77t-77 -32q-45 0 -77 33t-32 76q0 44 32 76t77 32z" />
    <glyph glyph-name="fraction" unicode="&#x2215;" horiz-adv-x="299" 
d="M-219 -12h-82l821 1431h80z" />
    <glyph glyph-name="apple" unicode="&#x20ac;" 
d="M717 737h-404v-84h377l-22 -78h-355q3 -155 30 -273.5t79 -188.5t129 -70q65 0 121.5 38t94.5 84.5t58 82.5l31 -21q-35 -71 -68.5 -122t-105 -98.5t-172.5 -47.5q-117 0 -201.5 91t-131.5 233.5t-58 291.5h-101l23 78h74q0 56 2 84h-99l23 78h84q36 248 147.5 415.5
t305.5 170.5q81 0 130.5 -21.5t122.5 -66.5v-299h-38q-12 154 -65 237.5t-142 83.5q-91 0 -145 -73t-78 -179.5t-44 -267.5h420z" />
    <glyph glyph-name="guilsinglleft" unicode="&#x2039;" horiz-adv-x="512" 
d="M274 522l168 -473h-61l-305 473l305 469h61z" />
    <glyph glyph-name="guilsinglright" unicode="&#x203a;" horiz-adv-x="512" 
d="M238 522l-168 469h61l305 -469l-305 -473h-61z" />
    <glyph glyph-name="fi" unicode="&#xf001;" 
d="M143 944v76q0 131 45 231.5t129 154.5t193 54q69 0 125.5 -23t89.5 -62t33 -87q0 -39 -24 -65.5t-60 -26.5t-54.5 22.5t-40 71t-47 74t-73.5 25.5q-72 0 -112 -66.5t-40 -187.5v-191h338q65 0 96 21h29v-775q0 -84 28 -119.5t81 -35.5v-35h-390v35q65 1 91 39t26 116v566
q0 76 -21 100.5t-87 24.5h-191v-705q0 -57 26.5 -98.5t94.5 -42.5v-35h-391v35q106 3 106 155v691h-106v63h106z" />
    <glyph glyph-name="fi" unicode="&#xfb01;" 
d="M143 944v76q0 131 45 231.5t129 154.5t193 54q69 0 125.5 -23t89.5 -62t33 -87q0 -39 -24 -65.5t-60 -26.5t-54.5 22.5t-40 71t-47 74t-73.5 25.5q-72 0 -112 -66.5t-40 -187.5v-191h338q65 0 96 21h29v-775q0 -84 28 -119.5t81 -35.5v-35h-390v35q65 1 91 39t26 116v566
q0 76 -21 100.5t-87 24.5h-191v-705q0 -57 26.5 -98.5t94.5 -42.5v-35h-391v35q106 3 106 155v691h-106v63h106z" />
    <glyph glyph-name="fl" unicode="&#xf002;" 
d="M139 944v109q0 92 25.5 167t69 128t102.5 82.5t123 29.5q86 0 139 -67l139 67h35v-1288q0 -134 102 -137v-35h-389v35q65 0 94 36t29 119v691h-305v-701q0 -72 32 -108.5t89 -36.5v-35h-389v35q56 0 80 37.5t24 117.5v691h-104v63h104zM608 944v318q-27 -31 -65 -31
q-36 0 -54 20.5t-31 59.5t-25 58.5t-38 19.5q-50 0 -71 -57t-21 -204v-184h305z" />
    <glyph glyph-name="fl" unicode="&#xfb02;" 
d="M139 944v109q0 92 25.5 167t69 128t102.5 82.5t123 29.5q86 0 139 -67l139 67h35v-1288q0 -134 102 -137v-35h-389v35q65 0 94 36t29 119v691h-305v-701q0 -72 32 -108.5t89 -36.5v-35h-389v35q56 0 80 37.5t24 117.5v691h-104v63h104zM608 944v318q-27 -31 -65 -31
q-36 0 -54 20.5t-31 59.5t-25 58.5t-38 19.5q-50 0 -71 -57t-21 -204v-184h305z" />
    <glyph glyph-name="daggerdbl" unicode="&#x2021;" 
d="M219 53q24 0 47 -8t55 -21.5t61 -21t62 -8.5q-2 61 -20 98t-66 78q84 123 84 315q0 195 -84 318q48 40 66 77t20 97q-54 0 -125 -28.5t-100 -28.5q-34 0 -57 21t-23 56t21.5 58.5t52.5 23.5q25 0 96.5 -31t134.5 -34q0 52 -37.5 151.5t-37.5 151.5q0 48 25.5 79t64.5 31
t64.5 -31.5t25.5 -82.5t-38 -149t-38 -150q44 1 68 10l82 32t82 23q30 0 51.5 -23.5t21.5 -58.5t-22 -56t-58 -21q-31 0 -101 28.5t-124 28.5q0 -57 19 -94.5t67 -79.5q-84 -122 -84 -318q0 -193 84 -315q-49 -42 -67.5 -80t-18.5 -96q35 1 66.5 9.5t62.5 22t51.5 20.5
t44.5 7q18 0 32 -5t26 -17t17 -26t5 -32q0 -35 -21.5 -58.5t-51.5 -23.5q-15 0 -46.5 11.5t-57.5 22.5t-58 21t-70 13q0 -38 8 -66.5t27.5 -76t30 -83.5t10.5 -75q0 -50 -25.5 -81.5t-64.5 -31.5t-64.5 31.5t-25.5 81.5q0 41 19 96l37.5 109.5t18.5 95.5q-35 0 -63.5 -9.5
t-68 -27.5t-56.5 -24.5t-43 -6.5q-31 0 -52.5 23.5t-21.5 58.5q0 36 23 58t57 22z" />
    <glyph glyph-name="periodcentered" unicode="&#x2219;" horiz-adv-x="512" 
d="M256 807q46 0 78.5 -31.5t32.5 -79.5q0 -46 -33 -79t-78 -33q-46 0 -79.5 33.5t-33.5 78.5q0 47 33 79t80 32z" />
    <glyph glyph-name="quotesinglbase" unicode="&#x201a;" horiz-adv-x="512" 
d="M125 -344v37q199 110 199 256q0 51 -27 51q-9 0 -33 -16q-21 -19 -51 -19q-42 0 -72 33t-30 80q0 53 35 87t87 34q48 0 85 -25.5t58 -71t21 -104.5q0 -113 -71.5 -202.5t-200.5 -139.5z" />
    <glyph glyph-name="quotedblbase" unicode="&#x201e;" 
d="M580 -309v43q75 40 110 94.5t35 103.5q0 29 -10 45.5t-25 16.5q-11 0 -24 -10q-25 -11 -39 -11q-45 0 -73 30.5t-28 76.5q0 52 36 85.5t89 33.5q66 0 116 -58t50 -147q0 -53 -30.5 -114.5t-83.5 -111.5t-123 -77zM164 -309v43q75 40 110 94.5t35 103.5q0 29 -10 45.5
t-25 16.5q-11 0 -24 -10q-22 -11 -39 -11q-44 0 -72 30.5t-28 76.5q0 52 36 85.5t89 33.5q65 0 115 -58t50 -147q0 -53 -30.5 -114.5t-83.5 -111.5t-123 -77z" />
    <glyph glyph-name="perthousand" unicode="&#x2030;" horiz-adv-x="1772" 
d="M1384 362q0 -154 28 -241.5t77 -87.5q50 0 78 87.5t28 241.5t-28 242t-78 88t-77.5 -87t-27.5 -243zM225 -12h-82l822 1431h79zM176 1044q0 -154 28 -241.5t77 -87.5q50 0 78 87.5t28 241.5t-28 242t-78 88t-77.5 -87t-27.5 -243zM1245 362q0 103 31.5 190t88 136
t124.5 49q69 0 125.5 -48.5t88.5 -136t32 -190.5q0 -161 -70.5 -267.5t-175.5 -106.5q-103 0 -173.5 106.5t-70.5 267.5zM37 1044q0 108 31.5 193t88 133.5t124.5 48.5q69 0 125.5 -48.5t88 -133.5t31.5 -193q0 -161 -69.5 -267.5t-175.5 -106.5q-105 0 -174.5 106.5
t-69.5 267.5zM670 362q0 108 31.5 193t88 133.5t123.5 48.5q69 0 126 -48.5t88.5 -133.5t31.5 -193t-31.5 -192.5t-88.5 -133t-126 -48.5q-103 0 -173 107t-70 267zM809 362q0 -154 28 -241.5t76 -87.5q34 0 58 38.5t36.5 110.5t12.5 180q0 154 -28 242t-79 88
q-49 0 -76.5 -87t-27.5 -243z" />
    <glyph glyph-name="Acircumflex" unicode="&#xc2;" horiz-adv-x="1217" 
d="M371 446l-80 -270q-10 -32 -10 -61q0 -41 30 -60.5t105 -19.5v-35h-379v35q74 0 111.5 39.5t70.5 152.5l359 1200h32l385 -1200q30 -94 52.5 -133t50 -49t82.5 -10v-35h-478v35q64 0 91.5 18t27.5 62q0 26 -20 92l-78 239h-352zM698 524l-157 498h-4l-144 -498h305z
M612 1713l-231 -209h-35l180 327h170l176 -327h-35z" />
    <glyph glyph-name="Ecircumflex" unicode="&#xca;" horiz-adv-x="1110" 
d="M946 1397l21 -303h-37q-12 98 -38.5 146.5t-74 63.5t-133.5 15h-283v-547h222q114 0 155 44.5t41 164.5h35v-487h-35q0 115 -35.5 157.5t-124.5 42.5h-258v-499q0 -74 18 -95.5t81 -21.5h200q127 0 199.5 62.5t124.5 217.5l35 -10l-107 -348h-921v35q77 0 113.5 14
t50.5 52t14 120v957q0 77 -12.5 114.5t-50.5 53.5t-115 16v35h915zM559 1713l-231 -209h-35l180 327h170l176 -327h-35z" />
    <glyph glyph-name="Aacute" unicode="&#xc1;" horiz-adv-x="1217" 
d="M371 446l-80 -270q-10 -32 -10 -61q0 -41 30 -60.5t105 -19.5v-35h-379v35q74 0 111.5 39.5t70.5 152.5l359 1200h32l385 -1200q30 -94 52.5 -133t50 -49t82.5 -10v-35h-478v35q64 0 91.5 18t27.5 62q0 26 -20 92l-78 239h-352zM698 524l-157 498h-4l-144 -498h305z
M524 1493l76 346h198l-241 -346h-33z" />
    <glyph glyph-name="Edieresis" unicode="&#xcb;" horiz-adv-x="1110" 
d="M946 1397l21 -303h-37q-12 98 -38.5 146.5t-74 63.5t-133.5 15h-283v-547h222q114 0 155 44.5t41 164.5h35v-487h-35q0 115 -35.5 157.5t-124.5 42.5h-258v-499q0 -74 18 -95.5t81 -21.5h200q127 0 199.5 62.5t124.5 217.5l35 -10l-107 -348h-921v35q77 0 113.5 14
t50.5 52t14 120v957q0 77 -12.5 114.5t-50.5 53.5t-115 16v35h915zM391 1776q45 0 77 -31t32 -77q0 -45 -32 -77t-77 -32q-44 0 -76 32t-32 77q0 46 32 77t76 31zM723 1776q46 0 77 -31t31 -77q0 -45 -31 -77t-77 -32q-45 0 -77 33t-32 76q0 44 32 76t77 32z" />
    <glyph glyph-name="Egrave" unicode="&#xc8;" horiz-adv-x="1110" 
d="M946 1397l21 -303h-37q-12 98 -38.5 146.5t-74 63.5t-133.5 15h-283v-547h222q114 0 155 44.5t41 164.5h35v-487h-35q0 115 -35.5 157.5t-124.5 42.5h-258v-499q0 -74 18 -95.5t81 -21.5h200q127 0 199.5 62.5t124.5 217.5l35 -10l-107 -348h-921v35q77 0 113.5 14
t50.5 52t14 120v957q0 77 -12.5 114.5t-50.5 53.5t-115 16v35h915zM683 1493h-33l-242 346h199z" />
    <glyph glyph-name="Iacute" unicode="&#xcd;" horiz-adv-x="598" 
d="M31 1397h536v-35q-71 0 -107 -14.5t-50.5 -53.5t-14.5 -116v-957q0 -84 15.5 -123t51.5 -51t105 -12v-35h-536v35q73 0 109 16t49.5 54t13.5 116v957q0 79 -14 118t-49.5 52.5t-108.5 13.5v35zM236 1493l76 346h198l-241 -346h-33z" />
    <glyph glyph-name="Icircumflex" unicode="&#xce;" horiz-adv-x="598" 
d="M31 1397h536v-35q-71 0 -107 -14.5t-50.5 -53.5t-14.5 -116v-957q0 -84 15.5 -123t51.5 -51t105 -12v-35h-536v35q73 0 109 16t49.5 54t13.5 116v957q0 79 -14 118t-49.5 52.5t-108.5 13.5v35zM303 1713l-231 -209h-35l180 327h170l176 -327h-35z" />
    <glyph glyph-name="Idieresis" unicode="&#xcf;" horiz-adv-x="598" 
d="M31 1397h536v-35q-71 0 -107 -14.5t-50.5 -53.5t-14.5 -116v-957q0 -84 15.5 -123t51.5 -51t105 -12v-35h-536v35q73 0 109 16t49.5 54t13.5 116v957q0 79 -14 118t-49.5 52.5t-108.5 13.5v35zM135 1776q45 0 77 -31t32 -77q0 -45 -32 -77t-77 -32q-44 0 -76 32t-32 77
q0 46 32 77t76 31zM467 1776q46 0 77 -31t31 -77q0 -45 -31 -77t-77 -32q-45 0 -77 33t-32 76q0 44 32 76t77 32z" />
    <glyph glyph-name="Igrave" unicode="&#xcc;" horiz-adv-x="598" 
d="M31 1397h536v-35q-71 0 -107 -14.5t-50.5 -53.5t-14.5 -116v-957q0 -84 15.5 -123t51.5 -51t105 -12v-35h-536v35q73 0 109 16t49.5 54t13.5 116v957q0 79 -14 118t-49.5 52.5t-108.5 13.5v35zM406 1493h-33l-242 346h199z" />
    <glyph glyph-name="Oacute" unicode="&#xd3;" horiz-adv-x="1217" 
d="M55 698q0 187 62.5 355t188 271t302.5 103t302.5 -103t188 -271t62.5 -355q0 -141 -35 -270.5t-103.5 -233t-174 -164.5t-240.5 -61q-171 0 -297 100t-191 267.5t-65 361.5zM285 698q0 -227 33.5 -373.5t105 -215t184.5 -68.5q124 0 195 78t100 220.5t29 358.5
q0 229 -33.5 375t-105 214.5t-185.5 68.5q-88 0 -150 -41.5t-100 -124.5t-55.5 -203t-17.5 -289zM483 1493l76 346h198l-241 -346h-33z" />
    <glyph glyph-name="Ocircumflex" unicode="&#xd4;" horiz-adv-x="1217" 
d="M55 698q0 187 62.5 355t188 271t302.5 103t302.5 -103t188 -271t62.5 -355q0 -141 -35 -270.5t-103.5 -233t-174 -164.5t-240.5 -61q-171 0 -297 100t-191 267.5t-65 361.5zM285 698q0 -227 33.5 -373.5t105 -215t184.5 -68.5q124 0 195 78t100 220.5t29 358.5
q0 229 -33.5 375t-105 214.5t-185.5 68.5q-88 0 -150 -41.5t-100 -124.5t-55.5 -203t-17.5 -289zM612 1713l-231 -209h-35l180 327h170l176 -327h-35z" />
    <glyph glyph-name="Ograve" unicode="&#xd2;" horiz-adv-x="1217" 
d="M55 698q0 187 62.5 355t188 271t302.5 103t302.5 -103t188 -271t62.5 -355q0 -141 -35 -270.5t-103.5 -233t-174 -164.5t-240.5 -61q-171 0 -297 100t-191 267.5t-65 361.5zM285 698q0 -227 33.5 -373.5t105 -215t184.5 -68.5q124 0 195 78t100 220.5t29 358.5
q0 229 -33.5 375t-105 214.5t-185.5 68.5q-88 0 -150 -41.5t-100 -124.5t-55.5 -203t-17.5 -289zM736 1493h-33l-242 346h199z" />
    <glyph glyph-name="Uacute" unicode="&#xda;" horiz-adv-x="1323" 
d="M41 1397h510v-35q-65 0 -98.5 -15t-46.5 -53t-13 -116v-785q0 -183 90 -267.5t224 -84.5q156 0 251 104t95 287v746q0 78 -13 116.5t-47.5 53t-101.5 14.5v35h393v-35q-61 0 -93.5 -15t-46.5 -54.5t-14 -114.5v-754q0 -148 -56.5 -250.5t-159.5 -153.5t-242 -51
q-189 0 -330 105t-141 364v740q0 76 -13.5 115.5t-46.5 54t-100 14.5v35zM618 1493l76 346h198l-241 -346h-33z" />
    <glyph glyph-name="Ucircumflex" unicode="&#xdb;" horiz-adv-x="1323" 
d="M41 1397h510v-35q-65 0 -98.5 -15t-46.5 -53t-13 -116v-785q0 -183 90 -267.5t224 -84.5q156 0 251 104t95 287v746q0 78 -13 116.5t-47.5 53t-101.5 14.5v35h393v-35q-61 0 -93.5 -15t-46.5 -54.5t-14 -114.5v-754q0 -148 -56.5 -250.5t-159.5 -153.5t-242 -51
q-189 0 -330 105t-141 364v740q0 76 -13.5 115.5t-46.5 54t-100 14.5v35zM706 1713l-231 -209h-35l180 327h170l176 -327h-35z" />
    <glyph glyph-name="Ugrave" unicode="&#xd9;" horiz-adv-x="1323" 
d="M41 1397h510v-35q-65 0 -98.5 -15t-46.5 -53t-13 -116v-785q0 -183 90 -267.5t224 -84.5q156 0 251 104t95 287v746q0 78 -13 116.5t-47.5 53t-101.5 14.5v35h393v-35q-61 0 -93.5 -15t-46.5 -54.5t-14 -114.5v-754q0 -148 -56.5 -250.5t-159.5 -153.5t-242 -51
q-189 0 -330 105t-141 364v740q0 76 -13.5 115.5t-46.5 54t-100 14.5v35zM810 1493h-33l-242 346h199z" />
    <glyph glyph-name="dotlessi" unicode="&#x131;" horiz-adv-x="512" 
d="M344 965v-793q0 -69 32 -103t89 -34v-35h-414v35q67 0 98 36t31 119v539q0 41 -18 67.5t-49 26.5q-21 0 -56 -12l-14 31l266 123h35z" />
    <glyph glyph-name="circumflex" unicode="&#x2c6;" horiz-adv-x="682" 
d="M344 1309l-231 -209h-35l180 327h170l176 -327h-35z" />
    <glyph glyph-name="tilde" unicode="&#x2dc;" horiz-adv-x="682" 
d="M100 1133h-34q3 132 40 196q41 66 115 66q30 0 68 -18.5t77.5 -45.5l80 -52.5t61.5 -25.5q34 0 54.5 37.5t21.5 102.5h32q0 -117 -37.5 -188.5t-107.5 -71.5q-48 0 -81 18.5t-110.5 70.5t-103.5 52q-36 0 -54.5 -34t-21.5 -107z" />
    <glyph glyph-name="macron" unicode="&#x2c9;" horiz-adv-x="682" 
d="M82 1194v139h518v-139h-518z" />
    <glyph glyph-name="breve" unicode="&#x2d8;" horiz-adv-x="682" 
d="M547 1401h37q0 -77 -32 -141.5t-87 -99t-123 -34.5t-124 34.5t-88 97t-32 143.5h37q25 -121 207 -121q180 0 205 121z" />
    <glyph glyph-name="dotaccent" unicode="&#x2d9;" horiz-adv-x="682" 
d="M342 1372q45 0 77 -31t32 -77q0 -45 -32 -77t-77 -32t-77 33t-32 76q0 44 32 76t77 32z" />
    <glyph glyph-name="ring" unicode="&#x2da;" horiz-adv-x="682" 
d="M342 1481q80 0 135 -56t55 -135q0 -78 -56 -134t-134 -56q-76 0 -133 57t-57 133q0 77 56 134t134 57zM342 1419q-36 0 -65.5 -17t-46.5 -46.5t-17 -65.5q0 -54 38.5 -91.5t90.5 -37.5q53 0 91 37t38 92q0 36 -17 65.5t-46.5 46.5t-65.5 17z" />
    <glyph glyph-name="cedilla" unicode="&#xb8;" horiz-adv-x="682" 
d="M221 -180l191 186h73l-102 -117q61 -5 96 -42.5t35 -96.5q0 -86 -76.5 -136t-208.5 -50q-31 0 -84 6l13 37q99 0 146.5 31.5t47.5 82.5q0 46 -33.5 71.5t-97.5 27.5z" />
    <glyph glyph-name="hungarumlaut" unicode="&#x2dd;" horiz-adv-x="682" 
d="M430 1090l76 346h199l-242 -346h-33zM160 1090l76 346h198l-241 -346h-33z" />
    <glyph glyph-name="ogonek" unicode="&#x2db;" horiz-adv-x="682" 
d="M293 10h74q-41 -37 -61.5 -72.5t-20.5 -74.5q0 -46 28.5 -93.5t78 -79t112.5 -31.5q13 0 20 1l23 -31q-67 -67 -172 -67q-62 0 -117 31.5t-89 85t-34 114.5q0 67 43.5 126.5t114.5 90.5z" />
    <glyph glyph-name="caron" unicode="&#x2c7;" horiz-adv-x="682" 
d="M338 1219l231 208h35l-180 -327h-170l-176 327h35z" />
    <glyph glyph-name="Lslash" unicode="&#x141;" horiz-adv-x="1110" 
d="M45 1397h557v-35q-78 0 -115.5 -14t-52 -53.5t-14.5 -118.5v-433l250 197v-86l-250 -197v-469q0 -69 19.5 -89.5t82.5 -20.5h146q88 0 141.5 12t91.5 44t67.5 90.5t59.5 154.5l33 -10l-100 -369h-916v35q60 0 97 9t55 29t24 53t6 93v309l-182 -143v86l182 143v562
q0 79 -15 118t-52.5 53.5t-114.5 14.5v35z" />
    <glyph glyph-name="lslash" unicode="&#x142;" horiz-adv-x="512" 
d="M342 1460v-616l162 127v-92l-162 -127v-584q0 -65 33 -99t90 -34v-35h-418v35q69 0 100 36t31 119v453l-158 -125v94l158 123v436q0 81 -16.5 114.5t-57.5 33.5q-25 0 -57 -12l-14 32l272 121h37z" />
    <glyph glyph-name="Scaron" unicode="&#x160;" 
d="M74 -29v469h39q7 -127 58 -216t128 -133t158 -44q93 0 154 64t61 163q0 121 -101 222q-35 36 -182.5 140t-195.5 152q-44 44 -71.5 86.5t-43 94t-15.5 108.5q0 102 43.5 182t121.5 124t175 44q56 0 98 -9.5t81 -25l61.5 -25t36.5 -9.5q54 0 74 69h34v-456h-34
q-6 126 -59 212.5t-127.5 126.5t-143.5 40q-56 0 -103 -24t-73.5 -66t-26.5 -95q0 -112 92 -204q34 -32 72 -60t121 -84.5t137 -97t88 -76.5q59 -59 92 -137t33 -156q0 -81 -29.5 -151t-80.5 -120t-123.5 -80t-151.5 -30q-77 0 -169.5 37t-115.5 37q-61 0 -73 -72h-39z
M457 1623l231 208h35l-180 -327h-170l-176 327h35z" />
    <glyph glyph-name="scaron" unicode="&#x161;" horiz-adv-x="598" 
d="M53 0v315h35q12 -126 68 -204t135 -78q49 0 84 40t35 99q0 75 -74 150q-24 24 -87.5 80.5l-103.5 93.5q-52 53 -73 104t-21 111q0 112 60 183t155 71q48 0 102.5 -20.5t61.5 -20.5q22 0 33 20h37v-293h-37q-9 54 -30 106t-43.5 81.5t-54 47t-63.5 17.5q-43 0 -75.5 -32.5
t-32.5 -77.5q0 -68 63 -131l87 -78.5t114 -108.5q77 -76 99 -123t22 -112q0 -74 -32.5 -135.5t-90.5 -97.5t-127 -36q-49 0 -112 24.5t-70 24.5q-9 0 -18 -7t-9 -13h-37zM297 1197l231 208h35l-180 -327h-170l-176 327h35z" />
    <glyph glyph-name="Zcaron" unicode="&#x17d;" horiz-adv-x="1004" 
d="M702 1319h-286q-88 0 -137 -19.5t-76 -77t-31 -169.5h-35l6 344h813l-684 -1319h324q93 0 151.5 16t94 50.5t56 88.5t36.5 138h35l-62 -371h-870v35zM500 1623l231 208h35l-180 -327h-170l-176 327h35z" />
    <glyph glyph-name="zcaron" unicode="&#x17e;" horiz-adv-x="705" 
d="M106 944h564v-35l-439 -839h183q76 0 117 17.5t59 60t26 128.5h33v-276h-620v35l434 839h-172q-79 0 -108.5 -35t-41.5 -143h-35v248zM350 1197l231 208h35l-180 -327h-170l-176 327h35z" />
    <glyph glyph-name="brokenbar" unicode="&#xa6;" horiz-adv-x="406" 
d="M135 358h133v-716h-133v716zM135 1382h133v-716h-133v716z" />
    <glyph glyph-name="Eth" unicode="&#xd0;" horiz-adv-x="1323" 
d="M39 1397h534q177 0 308 -56t216 -155.5t126 -226t41 -267.5q0 -159 -52 -287t-146.5 -219t-218 -138.5t-263.5 -47.5h-545v35q77 0 114 13.5t50.5 51.5t13.5 121v434h-178v78h178v445q0 115 -33.5 149.5t-144.5 34.5v35zM410 1298v-565h366v-78h-366v-557q75 -35 176 -35
q141 0 242 73.5t153.5 213.5t52.5 336q0 149 -30.5 266.5t-92 202t-147 127.5t-195.5 43q-47 0 -81.5 -6t-77.5 -21z" />
    <glyph glyph-name="eth" unicode="&#xf0;" 
d="M424 1169l-217 -135l-27 56l205 131q-49 57 -83 90t-83 67l23 45q98 -57 219 -155l221 139l29 -55l-203 -131q109 -107 185 -230t115.5 -256t39.5 -262q0 -146 -51 -260.5t-142 -178t-206 -63.5q-111 0 -197 62.5t-134 175t-48 256.5q0 133 37.5 230t96.5 156t125.5 86.5
t121.5 27.5q56 0 102 -11q-33 69 -62.5 118t-66.5 97zM260 524q0 -207 46.5 -344t162.5 -137q108 0 148 100.5t40 272.5q0 477 -211 477q-78 0 -118.5 -52.5t-54 -131.5t-13.5 -185z" />
    <glyph glyph-name="Yacute" unicode="&#xdd;" horiz-adv-x="1217" 
d="M702 598v-377q0 -83 13.5 -120.5t51 -51.5t114.5 -14v-35h-549v35q75 0 112.5 13t51.5 52.5t14 120.5v365l-324 651q-34 69 -64 94t-87 31v35h467v-35q-55 0 -80.5 -4.5t-35 -15t-9.5 -31.5q0 -23 18 -58l273 -546l252 546q10 21 10 54q0 32 -23.5 43.5t-83.5 11.5v35
h359v-35q-79 -6 -118.5 -39.5t-86.5 -132.5zM565 1493l76 346h198l-241 -346h-33z" />
    <glyph glyph-name="yacute" unicode="&#xfd;" horiz-adv-x="811" 
d="M31 944h370v-35q-51 -2 -72.5 -17.5t-21.5 -49.5q0 -23 10 -54l164 -499h4l127 495q2 10 5 19t6.5 25t3.5 30q0 26 -16 38t-54 13v35h217v-35q-41 -17 -59.5 -43t-36.5 -96l-215 -840q-45 -172 -118.5 -262t-170.5 -90q-52 0 -86.5 30.5t-34.5 74.5q0 42 27 69t67 27
q38 0 72 -16.5t47 -16.5q49 0 86.5 75.5t57.5 178.5l-256 770q-21 63 -49 95t-74 44v35zM322 1067l76 346h198l-241 -346h-33z" />
    <glyph glyph-name="Thorn" unicode="&#xde;" horiz-adv-x="1110" 
d="M598 1397v-35q-75 0 -111.5 -11.5t-51.5 -49.5t-15 -123v-88h186q125 0 230 -49t167 -138t62 -203q0 -115 -64.5 -204t-171 -136t-229.5 -47h-180v-92q0 -82 14.5 -120t52 -52t117.5 -14v-35h-555v35q77 0 114.5 15.5t50.5 54.5t13 116v957q0 84 -14 121.5t-51 50
t-113 12.5v35h549zM420 391h133q87 0 151.5 37.5t98 103t33.5 150.5q0 87 -32 163t-94.5 121.5t-148.5 45.5h-141v-621z" />
    <glyph glyph-name="thorn" unicode="&#xfe;" 
d="M301 1460v-725h4q51 121 109 175.5t131 54.5q65 0 117.5 -32t92.5 -91t61.5 -140t21.5 -172q0 -136 -39.5 -264.5t-118 -208.5t-188.5 -80q-122 0 -187 93h-4v-322q0 -135 139 -135v-35h-426v35q123 0 123 156v1433q0 119 -74 119q-13 0 -32 -8l-17 33l250 114h37z
M301 676v-340q0 -150 45 -223.5t131 -73.5q90 0 133 100t43 307q0 125 -21.5 216t-62 139.5t-96.5 48.5q-97 0 -172 -174z" />
    <glyph glyph-name="minus" unicode="&#x2212;" horiz-adv-x="1366" 
d="M139 762h1086v-131h-1086v131z" />
    <glyph glyph-name="multiply" unicode="&#xd7;" horiz-adv-x="1368" 
d="M190 1110l76 78l418 -420l418 420l76 -78l-418 -418l414 -413l-76 -76l-414 413l-416 -413l-75 76l415 413z" />
    <glyph glyph-name="onesuperior" unicode="&#xb9;" horiz-adv-x="575" 
d="M354 1419v-618q0 -58 15.5 -73t68.5 -15v-31h-288v31q34 0 50 5.5t22.5 25t6.5 57.5v454q0 64 -26 64q-5 0 -24 -8t-23 -11l-15 29l176 90h37z" />
    <glyph glyph-name="twosuperior" unicode="&#xb2;" horiz-adv-x="575" 
d="M545 825l-62 -143h-448v25q133 126 206 211t98.5 144t25.5 120q0 64 -36 102.5t-96 38.5q-101 0 -122 -109h-45q12 95 69.5 150t145.5 55q59 0 106.5 -24.5t76 -68t28.5 -95.5q0 -54 -34 -121.5t-106 -150t-184 -187.5h207q58 0 79.5 9.5t43.5 43.5h47z" />
    <glyph glyph-name="threesuperior" unicode="&#xb3;" horiz-adv-x="575" 
d="M188 1038v27q152 33 152 152q0 50 -28.5 84t-71.5 34q-66 0 -119 -88l-39 15q62 157 203 157q75 0 124.5 -42.5t49.5 -106.5q0 -77 -90 -158q127 -66 127 -194q0 -68 -39 -125.5t-106.5 -90t-147.5 -32.5q-61 0 -100.5 18.5t-39.5 46.5q0 19 18 32t42 13q32 0 78 -24.5
t78 -24.5q47 0 76.5 36t29.5 95q0 71 -48 123.5t-149 52.5z" />
    <glyph glyph-name="onehalf" unicode="&#xbd;" horiz-adv-x="1450" 
d="M375 1419v-618q0 -58 16 -73t68 -15v-31h-289v31q47 0 63.5 17.5t16.5 70.5v454q0 37 -6 50.5t-21 13.5q-17 0 -47 -19l-14 29l176 90h37zM350 -12h-82l822 1431h79zM1374 143l-61 -143h-447v25q134 130 206 215.5t98 144.5t26 115q0 64 -36 102.5t-97 38.5
q-99 0 -123 -109h-45q12 96 70 150.5t147 54.5q59 0 107 -24.5t76 -68t28 -95.5q0 -81 -70 -182t-256 -277h207q58 0 79.5 9.5t43.5 43.5h47z" />
    <glyph glyph-name="onequarter" unicode="&#xbc;" horiz-adv-x="1450" 
d="M1108 178h-289v92l332 467h82v-467h88v-92h-88v-178h-125v178zM1108 270v299h-4l-207 -299h211zM375 1419v-618q0 -58 16 -73t68 -15v-31h-289v31q47 0 63.5 17.5t16.5 70.5v454q0 37 -6 50.5t-21 13.5q-17 0 -47 -19l-14 29l176 90h37zM352 -12h-82l822 1431h79z" />
    <glyph glyph-name="threequarters" unicode="&#xbe;" horiz-adv-x="1450" 
d="M209 1038v27q151 33 151 152q0 50 -28.5 84t-71.5 34q-66 0 -119 -88l-39 15q62 157 203 157q75 0 124.5 -42.5t49.5 -106.5q0 -44 -20 -78t-70 -80q127 -66 127 -194q0 -68 -39 -125.5t-106.5 -90t-147.5 -32.5q-62 0 -100.5 18t-38.5 47q0 18 17.5 31.5t41.5 13.5
q34 0 80 -24.5t76 -24.5q47 0 77 35.5t30 95.5q0 71 -48 123.5t-149 52.5zM356 -12h-82l822 1431h80zM1108 178h-289v92l332 467h82v-467h88v-92h-88v-178h-125v178zM1108 270v299h-4l-207 -299h211z" />
    <glyph glyph-name="sfthyphen" unicode="&#xad;" horiz-adv-x="598" 
d="M68 395v160h462v-160h-462z" />
    <glyph glyph-name="overscore" unicode="&#xaf;" horiz-adv-x="1024" 
d="M1024 1344h-1024v102h1024v-102z" />
    <glyph glyph-name="middot" unicode="&#xb7;" horiz-adv-x="512" 
d="M256 807q46 0 78.5 -31.5t32.5 -79.5q0 -46 -33 -79t-78 -33q-46 0 -79.5 33.5t-33.5 78.5q0 47 33 79t80 32z" />
    <glyph glyph-name="fraction1" unicode="&#x2044;" horiz-adv-x="299" 
d="M-219 -12h-82l821 1431h80z" />
    <glyph glyph-name="currency" unicode="&#xa4;" horiz-adv-x="1395" 
d="M700 961q-86 0 -160 -44.5t-116.5 -119.5t-42.5 -160q0 -86 42.5 -159.5t115.5 -117t161 -43.5q86 0 159 44t115 117t42 159q0 85 -42 160t-116 119.5t-158 44.5zM145 176l201 201q-88 107 -88 260q0 49 11 97t31.5 91t45.5 72l-201 201l95 94l196 -201q53 40 121 64
t143 24q151 0 261 -88l196 201l94 -94l-196 -201q23 -30 42.5 -73t30.5 -90.5t11 -96.5q0 -156 -84 -260l196 -201l-94 -94l-196 201q-50 -40 -116.5 -62t-144.5 -22q-161 0 -264 84l-196 -201z" />
    </font>
</defs>
</svg>
